{
.appVersion = "991";
classes = (
{
automatic = 1;
code = "A Aacute Abreve Acircumflex Adieresis Agrave Amacron Aogonek Aring Aringacute Atilde AE AEacute B C Cacute Ccaron Ccedilla Ccircumflex Cdotaccent D Eth Dcaron Dcroat E Eacute Ebreve Ecaron Ecircumflex Edieresis Edotaccent Egrave Emacron Eogonek F G Gbreve Gcircumflex Gcommaaccent Gdotaccent H Hbar Hcircumflex I Iacute Ibreve Icircumflex Idieresis Idotaccent Igrave Imacron Iogonek Itilde J Jcircumflex K Kcommaaccent L Lacute Lcaron Lcommaaccent Lslash M N Nacute Ncaron Ncommaaccent Eng Ntilde O Oacute Obreve Ocircumflex Odieresis Ograve Ohungarumlaut Omacron Oslash Oslashacute Otilde OE P Thorn Q R Racute Rcaron Rcommaaccent S Sacute Scaron Scedilla Scircumflex Scommaaccent T Tbar Tcaron Tcedilla Tcommaaccent U Uacute Ubreve Ucircumflex Udieresis Ugrave Uhungarumlaut Umacron Uogonek Uring Utilde V W Wacute Wcircumflex Wdieresis Wgrave X Y Yacute Ycircumflex Ydieresis Ygrave Z Zacute Zcaron Zdotaccent uni1EB0 uni1EF8";
name = Uppercase;
}
);
copyright = "Copyright 2009 The Cairo Project Authors (gaber@gaberism.net)";
customParameters = (
{
name = openTypeNameLicense;
value = "This Font Software is licensed under the SIL Open Font License, Version 1.1. This license is available with a FAQ at: http://scripts.sil.org/OFL";
},
{
name = openTypeNameLicenseURL;
value = "http://scripts.sil.org/OFL";
},
{
name = openTypeNameUniqueID;
value = "1.001;UKWN;TitilliumWeb-Light";
},
{
name = openTypeNameVersion;
value = "Version 1.001;PS 57.000;hotconv 1.0.70;makeotf.lib2.5.55311";
},
{
name = openTypeOS2CodePageRanges;
value = (
0,
1,
4,
7,
29
);
},
{
name = openTypeOS2FamilyClass;
value = (
0,
0
);
},
{
name = openTypeOS2Panose;
value = (
0,
0,
4,
0,
0,
0,
0,
0,
0,
0
);
},
{
name = openTypeOS2StrikeoutPosition;
value = 300;
},
{
name = openTypeOS2StrikeoutSize;
value = 30;
},
{
name = openTypeOS2SubscriptXOffset;
value = 0;
},
{
name = openTypeOS2SubscriptXSize;
value = 650;
},
{
name = openTypeOS2SubscriptYOffset;

glyphs = (
{
glyphname = A;
lastChange = "2017-03-20 21:51:06 +0000";
layers = (
{
anchors = (
{
name = bottom;
position = "{297, 0}";
},
{
name = ogonek;
position = "{535, 0}";
},
{
name = top;
position = "{297, 783}";
}
);
layerId = "8FFE84BD-9390-4D75-BABD-68166BF44E93";
paths = (
{
closed = 1;
nodes = (
"87 0 LINE",
"270 641 LINE",
"324 641 LINE",
"508 0 LINE",
"569 0 LINE",
"370 695 LINE",
"225 695 LINE",
"25 0 LINE"
);
},
{
closed = 1;
nodes = (
"461 192 LINE",
"446 247 LINE",
"146 247 LINE",
"134 192 LINE"
);
}
);
width = 594;
},
{
anchors = (
{
name = bottom;
position = "{298, 0}";
},
{
name = ogonek;
position = "{532, 0}";
},
{
name = top;
position = "{298, 749}";
}
);
layerId = "0596A6ED-150F-4F1F-BF1E-4449A7B9DE21";
paths = (
{
closed = 1;
nodes = (
"100 0 LINE",
"272 626 LINE",
"324 626 LINE",
"496 0 LINE",
"572 0 LINE",
"382 692 LINE",
"214 692 LINE",
"24 0 LINE"
);
},
{
closed = 1;
nodes = (
"469 178 LINE",
"450 247 LINE",
"151 247 LINE",
"132 178 LINE"
);
}
);
width = 596;
},
{
anchors = (
{
name = bottom;
position = "{301, 0}";
},
{
name = ogonek;
position = "{512, 0}";
},
{
name = top;
position = "{301, 723}";
}
);
layerId = "1FB77202-83CB-408E-8929-4AFC59A3446D";
paths = (
{
closed = 1;
nodes = (
"155 0 LINE",
"277 566 LINE",
"325 566 LINE",
"447 0 LINE",
"585 0 LINE",
"432 680 LINE",
"170 680 LINE",
"17 0 LINE"
);
},
{
closed = 1;
nodes = (
"437 123 LINE",
"408 243 LINE",
"192 243 LINE",
"162 123 LINE"
);
}
);
width = 602;
}
);
unicode = 0041;
},
{
glyphname = AE;
lastChange = "2017-03-20 23:29:15 +0000";
layers = (
{
components = (
{
name = E;
transform = "{1, 0, 0, 1, 324, 0}";
}
);
layerId = "8FFE84BD-9390-4D75-BABD-68166BF44E93";
paths = (
{
closed = 1;
nodes = (
"86 0 LINE",
"315 680 LINE",
"256 639 LINE",
"458 639 LINE",
"458 695 LINE",
"256 695 LINE",
"22 0 LINE"
);
},
{
closed = 1;
nodes = (
"422 190 LINE",
"422 249 LINE",
"160 249 LINE",
"141 190 LINE"
);
}
);
width = 877;
},
{
components = (
{
name = E;
transform = "{1, 0, 0, 1, 323, 0}";
}
);
layerId = "0596A6ED-150F-4F1F-BF1E-4449A7B9DE21";
paths = (
{
closed = 1;
nodes = (
"99 0 LINE",
"314 662 LINE",
"255 624 LINE",
"463 624 LINE",
"463 692 LINE",
"244 692 LINE",
"20 0 LINE"
);
},
{
closed = 1;
nodes = (
"426 175 LINE",
"426 249 LINE",
"170 249 LINE",
"147 175 LINE"
);
}
);
width = 876;
},
{
components = (
{
name = E;
transform = "{1, 0, 0, 1, 316, 0}";
}
);
layerId = "1FB77202-83CB-408E-8929-4AFC59A3446D";
paths = (
{
closed = 1;
nodes = (
"150 0 LINE",
"304 602 LINE",
"248 560 LINE",
"429 560 LINE",
"429 680 LINE",
"187 680 LINE",
"12 0 LINE"
);
},
{
closed = 1;
nodes = (
"415 116 LINE",
"415 249 LINE",
"208 249 LINE",
"169 116 LINE"
);
}
);
width = 871;
}
);
unicode = 00C6;
},
{
glyphname = B;
lastChange = "2017-03-20 23:48:11 +0000";
layers = (
{
anchors = (
{
name = bottom;
position = "{309, 0}";
},
{
name = top;
position = "{309, 695}";
}
);
layerId = "8FFE84BD-9390-4D75-BABD-68166BF44E93";
paths = (
{
closed = 1;
nodes = (
"349 0 LINE SMOOTH",
"485 0 OFFCURVE",
"562 53 OFFCURVE",
"562 188 CURVE SMOOTH",
"562 295 OFFCURVE",
"513 348 OFFCURVE",
"413 366 CURVE",
"417 348 LINE",
"499 368 OFFCURVE",
"539 428 OFFCURVE",
"539 519 CURVE SMOOTH",
"539 637 OFFCURVE",
"472 695 OFFCURVE",
"334 695 CURVE SMOOTH",
"87 695 LINE",
"87 0 LINE"
);
},
{
closed = 1;
nodes = (
"149 372 LINE",
"114 327 LINE",
"342 327 LINE SMOOTH",
"450 327 OFFCURVE",
"499 283 OFFCURVE",
"499 191 CURVE SMOOTH",
"499 91 OFFCURVE",
"442 55 OFFCURVE",
"348 55 CURVE SMOOTH",
"114 55 LINE",
"149 20 LINE"
);
},
{
closed = 1;
nodes = (
"149 675 LINE",
"114 640 LINE",
"332 640 LINE SMOOTH",
"430 640 OFFCURVE",
"476 602 OFFCURVE",
"476 513 CURVE SMOOTH",
"476 426 OFFCURVE",
"433 381 OFFCURVE",
"341 381 CURVE SMOOTH",
"114 381 LINE",
"149 336 LINE"
);
}
);
width = 617;
},
{
anchors = (
{
name = bottom;
position = "{308, 0}";
},
{
name = top;
position = "{308, 692}";
}
);
layerId = "0596A6ED-150F-4F1F-BF1E-4449A7B9DE21";
paths = (
{
closed = 1;
nodes = (
"349 0 LINE SMOOTH",
"485 0 OFFCURVE",
"563 55 OFFCURVE",
"563 189 CURVE SMOOTH",
"563 294 OFFCURVE",
"515 344 OFFCURVE",
"421 366 CURVE",
"423 345 LINE",
"502 372 OFFCURVE",
"542 417 OFFCURVE",
"542 513 CURVE SMOOTH",
"542 637 OFFCURVE",
"475 692 OFFCURVE",
"336 692 CURVE SMOOTH",
"85 692 LINE",
"85 0 LINE"
);
},
{
closed = 1;
nodes = (
"162 363 LINE",
"117 318 LINE",
"341 318 LINE SMOOTH",
"420 318 OFFCURVE",
"485 291 OFFCURVE",
"485 191 CURVE SMOOTH",
"485 101 OFFCURVE",
"433 68 OFFCURVE",
"346 68 CURVE SMOOTH",
"117 68 LINE",
"162 23 LINE"
);
},
{
closed = 1;
nodes = (
"162 669 LINE",
"117 624 LINE",
"333 624 LINE SMOOTH",
"423 624 OFFCURVE",
"463 590 OFFCURVE",
"463 507 CURVE SMOOTH",
"463 426 OFFCURVE",
"425 385 OFFCURVE",
"340 385 CURVE SMOOTH",
"117 385 LINE",
"162 340 LINE"
);
}
);
width = 616;
},
{
anchors = (
{
name = bottom;
position = "{305, 0}";
},
{
name = top;
position = "{305, 680}";
}
);
layerId = "1FB77202-83CB-408E-8929-4AFC59A3446D";
paths = (
{
closed = 1;
nodes = (
"345 0 LINE SMOOTH",
"485 0 OFFCURVE",
"566 62 OFFCURVE",
"566 198 CURVE SMOOTH",
"566 292 OFFCURVE",
"527 340 OFFCURVE",
"448 360 CURVE",
"445 332 LINE",
"527 371 OFFCURVE",
"553 416 OFFCURVE",
"553 496 CURVE SMOOTH",
"553 627 OFFCURVE",
"484 680 OFFCURVE",
"341 680 CURVE SMOOTH",
"74 680 LINE",
"74 0 LINE"
);
},
{
closed = 1;
nodes = (
"212 329 LINE",
"167 284 LINE",
"338 284 LINE SMOOTH",
"399 284 OFFCURVE",
"426 257 OFFCURVE",
"426 199 CURVE SMOOTH",
"426 138 OFFCURVE",
"396 118 OFFCURVE",
"338 118 CURVE SMOOTH",
"167 118 LINE",
"212 73 LINE"
);
},
{
closed = 1;
nodes = (
"212 607 LINE",
"167 562 LINE",
"334 562 LINE SMOOTH",
"387 562 OFFCURVE",
"413 535 OFFCURVE",
"413 481 CURVE SMOOTH",
"413 427 OFFCURVE",
"387 400 OFFCURVE",
"335 400 CURVE SMOOTH",
"167 400 LINE",
"212 355 LINE"
);
}
);
width = 609;
}
);
unicode = 0042;
},
{
glyphname = C;
lastChange = "2017-03-20 23:49:24 +0000";
layers = (
{
anchors = (
{
name = bottom;
position = "{272, 0}";
},
{
name = top;
position = "{292, 765}";
}
);
layerId = "8FFE84BD-9390-4D75-BABD-68166BF44E93";
paths = (
{
closed = 1;
nodes = (
"376 -10 OFFCURVE",
"433 -3 OFFCURVE",
"502 11 CURVE",
"499 65 LINE",
"430 52 OFFCURVE",
"373 46 OFFCURVE",
"326 46 CURVE SMOOTH",
"170 46 OFFCURVE",
"124 112 OFFCURVE",
"124 342 CURVE SMOOTH",
"124 587 OFFCURVE",
"176 649 OFFCURVE",
"329 649 CURVE SMOOTH",
"376 649 OFFCURVE",
"430 643 OFFCURVE",
"499 630 CURVE",
"502 684 LINE",
"432 698 OFFCURVE",
"369 705 OFFCURVE",
"313 705 CURVE SMOOTH",
"151 705 OFFCURVE",
"62 646 OFFCURVE",
"62 338 CURVE SMOOTH",
"62 108 OFFCURVE",
"112 -10 OFFCURVE",
"324 -10 CURVE SMOOTH"
);
}
);
width = 544;
},
{
anchors = (
{
name = bottom;
position = "{272, 0}";
},
{
name = top;
position = "{302, 752}";
}
);
layerId = "0596A6ED-150F-4F1F-BF1E-4449A7B9DE21";
paths = (
{
closed = 1;
nodes = (
"372 -10 OFFCURVE",
"434 -3 OFFCURVE",
"503 11 CURVE",
"500 77 LINE",
"436 65 OFFCURVE",
"380 59 OFFCURVE",
"335 59 CURVE SMOOTH",
"160 59 OFFCURVE",
"139 151 OFFCURVE",
"139 335 CURVE SMOOTH",
"139 558 OFFCURVE",
"170 633 OFFCURVE",
"326 633 CURVE SMOOTH",
"370 633 OFFCURVE",
"433 627 OFFCURVE",
"500 615 CURVE",
"503 680 LINE",
"431 695 OFFCURVE",
"367 702 OFFCURVE",
"316 702 CURVE SMOOTH",
"103 702 OFFCURVE",
"59 577 OFFCURVE",
"59 346 CURVE SMOOTH",
"59 115 OFFCURVE",
"103 -10 OFFCURVE",
"321 -10 CURVE SMOOTH"
);
}
);
width = 544;
},
{
anchors = (
{
name = bottom;
position = "{272, 0}";
},
{
name = top;
position = "{292, 722}";
}
);
layerId = "1FB77202-83CB-408E-8929-4AFC59A3446D";
paths = (
{
closed = 1;
nodes = (
"371 -12 OFFCURVE",
"434 -4 OFFCURVE",
"505 11 CURVE",
"502 124 LINE",
"440 115 OFFCURVE",
"378 110 OFFCURVE",
"338 110 CURVE SMOOTH",
"209 110 OFFCURVE",
"192 161 OFFCURVE",
"189 319 CURVE SMOOTH",
"185 506 OFFCURVE",
"207 570 OFFCURVE",
"341 570 CURVE SMOOTH",
"379 570 OFFCURVE",
"436 565 OFFCURVE",
"502 555 CURVE",
"506 665 LINE",
"431 683 OFFCURVE",
"365 692 OFFCURVE",
"303 692 CURVE SMOOTH",
"108 692 OFFCURVE",
"47 603 OFFCURVE",
"47 337 CURVE SMOOTH",
"47 106 OFFCURVE",
"93 -12 OFFCURVE",
"314 -12 CURVE SMOOTH"
);
}
);
width = 543;
},
{
associatedMasterId = "8FFE84BD-9390-4D75-BABD-68166BF44E93";
layerId = "6D49E500-1909-4F61-9A35-931A7C6BDA93";
name = "Mar 21 17, 01:36";
paths = (
{
closed = 1;
nodes = (
"376 -10 OFFCURVE",
"433 -3 OFFCURVE",
"502 11 CURVE",
"499 65 LINE",
"430 52 OFFCURVE",
"372 46 OFFCURVE",
"328 46 CURVE SMOOTH",
"149 46 OFFCURVE",
"126 145 OFFCURVE",
"126 357 CURVE SMOOTH",
"126 528 OFFCURVE",
"141 649 OFFCURVE",
"332 649 CURVE SMOOTH",
"374 649 OFFCURVE",
"430 643 OFFCURVE",
"499 630 CURVE",
"502 684 LINE",
"432 698 OFFCURVE",
"369 705 OFFCURVE",
"313 705 CURVE SMOOTH",
"151 705 OFFCURVE",
"62 646 OFFCURVE",
"62 338 CURVE SMOOTH",
"62 108 OFFCURVE",
"112 -10 OFFCURVE",
"324 -10 CURVE SMOOTH"
);
}
);
width = 544;
},
{
associatedMasterId = "8FFE84BD-9390-4D75-BABD-68166BF44E93";
layerId = "899D077D-4700-4851-BA63-E770192BF9E2";
name = "Mar 21 17, 01:40";
paths = (
{
closed = 1;
nodes = (
"376 -10 OFFCURVE",
"433 -3 OFFCURVE",
"502 11 CURVE",
"499 65 LINE",
"427 50 OFFCURVE",
"372 45 OFFCURVE",
"327 45 CURVE SMOOTH",
"167 45 OFFCURVE",
"124 110 OFFCURVE",
"124 348 CURVE SMOOTH",
"124 588 OFFCURVE",
"168 650 OFFCURVE",
"324 650 CURVE SMOOTH",
"363 650 OFFCURVE",
"428 646 OFFCURVE",
"499 630 CURVE",
"502 684 LINE",
"432 698 OFFCURVE",
"369 705 OFFCURVE",
"313 705 CURVE SMOOTH",
"151 705 OFFCURVE",
"62 646 OFFCURVE",
"62 338 CURVE SMOOTH",
"62 108 OFFCURVE",
"112 -10 OFFCURVE",
"324 -10 CURVE SMOOTH"
);
}
);
width = 544;
},
{
associatedMasterId = "0596A6ED-150F-4F1F-BF1E-4449A7B9DE21";
layerId = "1A3F8472-A314-4EB7-ABFB-F642F80561EF";
name = "Mar 21 17, 01:45";
paths = (
{
closed = 1;
nodes = (
"372 -10 OFFCURVE",
"434 -3 OFFCURVE",
"503 11 CURVE",
"500 77 LINE",
"436 65 OFFCURVE",
"380 59 OFFCURVE",
"335 59 CURVE SMOOTH",
"160 59 OFFCURVE",
"139 151 OFFCURVE",
"139 335 CURVE SMOOTH",
"139 558 OFFCURVE",
"170 633 OFFCURVE",
"326 633 CURVE SMOOTH",
"370 633 OFFCURVE",
"433 627 OFFCURVE",
"500 615 CURVE",
"503 680 LINE",
"431 695 OFFCURVE",
"367 702 OFFCURVE",
"316 702 CURVE SMOOTH",
"103 702 OFFCURVE",
"59 577 OFFCURVE",
"59 346 CURVE SMOOTH",
"59 115 OFFCURVE",
"103 -10 OFFCURVE",
"321 -10 CURVE SMOOTH"
);
}
);
width = 544;
},
{
associatedMasterId = "1FB77202-83CB-408E-8929-4AFC59A3446D";
layerId = "4017FE35-1F89-4D00-906C-8E0599360260";
name = "Mar 21 17, 01:45";
paths = (
{
closed = 1;
nodes = (
"371 -12 OFFCURVE",
"434 -4 OFFCURVE",
"505 11 CURVE",
"502 124 LINE",
"440 115 OFFCURVE",
"378 110 OFFCURVE",
"338 110 CURVE SMOOTH",
"209 110 OFFCURVE",
"192 161 OFFCURVE",
"189 319 CURVE SMOOTH",
"185 508 OFFCURVE",
"208 570 OFFCURVE",
"341 570 CURVE SMOOTH",
"379 570 OFFCURVE",
"436 565 OFFCURVE",
"502 555 CURVE",
"506 665 LINE",
"431 683 OFFCURVE",
"365 692 OFFCURVE",
"303 692 CURVE SMOOTH",
"108 692 OFFCURVE",
"47 603 OFFCURVE",
"47 337 CURVE SMOOTH",
"47 106 OFFCURVE",
"93 -12 OFFCURVE",
"314 -12 CURVE SMOOTH"
);
}
);
width = 543;
}
);
unicode = 0043;
},
{
glyphname = D;
lastChange = "2017-03-21 00:15:31 +0000";
layers = (
{
anchors = (
{
name = bottom;
position = "{293, 0}";
},
{
name = top;
position = "{293, 767}";
}
);
layerId = "8FFE84BD-9390-4D75-BABD-68166BF44E93";
paths = (
{
closed = 1;
nodes = (
"340 0 LINE SMOOTH",
"505 0 OFFCURVE",
"587 121 OFFCURVE",
"587 352 CURVE SMOOTH",
"587 581 OFFCURVE",
"507 695 OFFCURVE",
"340 695 CURVE SMOOTH",
"87 695 LINE",
"87 0 LINE"
);
},
{
closed = 1;
nodes = (
"149 684 LINE",
"104 639 LINE",
"340 639 LINE SMOOTH",
"463 639 OFFCURVE",
"525 546 OFFCURVE",
"525 353 CURVE SMOOTH",
"525 158 OFFCURVE",
"462 55 OFFCURVE",
"340 55 CURVE SMOOTH",
"104 55 LINE",
"149 10 LINE"
);
}
);
width = 646;
},
{
anchors = (
{
name = bottom;
position = "{293, 0}";
},
{
name = top;
position = "{293, 747}";
}
);
layerId = "0596A6ED-150F-4F1F-BF1E-4449A7B9DE21";
paths = (
{
closed = 1;
nodes = (
"332 0 LINE SMOOTH",
"504 0 OFFCURVE",
"588 106 OFFCURVE",
"588 363 CURVE SMOOTH",
"588 524 OFFCURVE",
"555 692 OFFCURVE",
"332 692 CURVE SMOOTH",
"85 692 LINE",
"85 0 LINE"
);
},
{
closed = 1;
nodes = (
"162 669 LINE",
"117 624 LINE",
"332 624 LINE SMOOTH",
"452 624 OFFCURVE",
"511 545 OFFCURVE",
"511 356 CURVE SMOOTH",
"511 164 OFFCURVE",
"450 68 OFFCURVE",
"332 68 CURVE SMOOTH",
"117 68 LINE",
"162 23 LINE"
);
}
);
width = 645;
},
{
anchors = (
{
name = bottom;
position = "{303, 0}";
},
{
name = top;
position = "{303, 717}";
}
);
layerId = "1FB77202-83CB-408E-8929-4AFC59A3446D";
paths = (
{
closed = 1;
nodes = (
"303 0 LINE",
"537 0 OFFCURVE",
"592 106 OFFCURVE",
"592 351 CURVE",
"592 588 OFFCURVE",
"535 680 OFFCURVE",
"303 680 CURVE",
"74 680 LINE",
"74 0 LINE"
);
},
{
closed = 1;
nodes = (
"212 630 LINE",
"144 560 LINE",
"303 560 LINE",
"425 560 OFFCURVE",
"454 504 OFFCURVE",
"454 359 CURVE",
"454 201 OFFCURVE",
"428 120 OFFCURVE",
"303 120 CURVE",
"144 120 LINE",
"212 52 LINE"
);
}
);
width = 638;
}
);
unicode = 0044;
},
{
glyphname = E;
lastChange = "2017-03-21 00:24:52 +0000";
layers = (
{
anchors = (
{
name = bottom;
position = "{276, 0}";
},
{
name = ogonek;
position = "{457, 10}";
},
{
name = top;
position = "{286, 765}";
},
{
name = topleft;
position = "{20, 0}";
}
);
layerId = "8FFE84BD-9390-4D75-BABD-68166BF44E93";
paths = (
{
closed = 1;
nodes = (
"504 0 LINE",
"504 55 LINE",
"104 55 LINE",
"149 10 LINE",
"149 371 LINE",
"104 326 LINE",
"444 326 LINE",
"444 381 LINE",
"104 381 LINE",
"149 336 LINE",
"149 684 LINE",
"104 639 LINE",
"504 639 LINE",
"504 695 LINE",
"87 695 LINE",
"87 0 LINE"
);
}
);
width = 552;
},
{
anchors = (
{
name = bottom;
position = "{277, 0}";
},
{
name = ogonek;
position = "{448, 10}";
},
{
name = top;
position = "{297, 752}";
},
{
name = topleft;
position = "{20, 0}";
}
);
layerId = "0596A6ED-150F-4F1F-BF1E-4449A7B9DE21";
paths = (
{
closed = 1;
nodes = (
"506 0 LINE",
"506 68 LINE",
"117 68 LINE",
"162 23 LINE",
"162 363 LINE",
"117 318 LINE",
"446 318 LINE",
"446 385 LINE",
"117 385 LINE",
"162 340 LINE",
"162 669 LINE",
"117 624 LINE",
"506 624 LINE",
"506 692 LINE",
"85 692 LINE",
"85 0 LINE"
);
}
);
width = 553;
},
{
anchors = (
{
name = bottom;
position = "{277, 0}";
},
{
name = ogonek;
position = "{429, 10}";
},
{
name = top;
position = "{297, 720}";
},
{
name = topleft;
position = "{20, 0}";
}
);
layerId = "1FB77202-83CB-408E-8929-4AFC59A3446D";
paths = (
{
closed = 1;
nodes = (
"514 0 LINE",
"514 120 LINE",
"167 120 LINE",
"212 75 LINE",
"212 328 LINE",
"167 283 LINE",
"454 283 LINE",
"454 401 LINE",
"167 401 LINE",
"212 356 LINE",
"212 605 LINE",
"167 560 LINE",
"514 560 LINE",
"514 680 LINE",
"74 680 LINE",
"74 0 LINE"
);
}
);
width = 554;
}
);
unicode = 0045;
},
{
glyphname = F;
lastChange = "2017-03-21 00:25:42 +0000";
layers = (
{
anchors = (
{
name = bottom;
position = "{263, 0}";
},
{
name = top;
position = "{263, 695}";
}
);
layerId = "8FFE84BD-9390-4D75-BABD-68166BF44E93";
paths = (
{
closed = 1;
nodes = (
"87 0 LINE",
"87 695 LINE",
"497 695 LINE",
"497 639 LINE",
"104 639 LINE",
"149 684 LINE",
"149 307 LINE",
"104 352 LINE",
"445 352 LINE",
"445 297 LINE",
"104 297 LINE",
"149 342 LINE",
"149 0 LINE"
);
}
);
width = 525;
},
{
anchors = (
{
name = bottom;
position = "{263, 0}";
},
{
name = top;
position = "{263, 692}";
}
);
layerId = "0596A6ED-150F-4F1F-BF1E-4449A7B9DE21";
paths = (
{
closed = 1;
nodes = (
"85 0 LINE",
"85 692 LINE",
"499 692 LINE",
"499 624 LINE",
"117 624 LINE",
"162 669 LINE",
"162 309 LINE",
"117 354 LINE",
"447 354 LINE",
"447 286 LINE",
"117 286 LINE",
"162 331 LINE",
"162 0 LINE"
);
}
);
width = 526;
},
{
anchors = (
{
name = bottom;
position = "{266, 0}";
},
{
name = top;
position = "{266, 680}";
}
);
layerId = "1FB77202-83CB-408E-8929-4AFC59A3446D";
paths = (
{
closed = 1;
nodes = (
"74 0 LINE",
"74 680 LINE",
"508 680 LINE",
"508 560 LINE",
"167 560 LINE",
"212 605 LINE",
"212 315 LINE",
"167 360 LINE",
"454 360 LINE",
"454 240 LINE",
"167 240 LINE",
"212 285 LINE",
"212 0 LINE"
);
}
);
width = 531;
}
);
unicode = 0046;
},
{
glyphname = G;
lastChange = "2017-03-21 00:31:05 +0000";
layers = (
{
anchors = (
{
name = bottom;
position = "{309, 0}";
},
{
name = top;
position = "{329, 785}";
}
);
layerId = "8FFE84BD-9390-4D75-BABD-68166BF44E93";
paths = (
{
closed = 1;
nodes = (
"390 -10 OFFCURVE",
"510 7 OFFCURVE",
"549 15 CURVE",
"549 351 LINE",
"360 351 LINE",
"360 296 LINE",
"488 296 LINE",
"488 62 LINE",
"429 51 OFFCURVE",
"376 46 OFFCURVE",
"329 46 CURVE SMOOTH",
"169 46 OFFCURVE",
"124 135 OFFCURVE",
"124 346 CURVE SMOOTH",
"124 557 OFFCURVE",
"169 649 OFFCURVE",
"330 649 CURVE SMOOTH",
"391 649 OFFCURVE",
"463 641 OFFCURVE",
"546 626 CURVE",
"549 679 LINE",
"449 699 OFFCURVE",
"396 705 OFFCURVE",
"325 705 CURVE SMOOTH",
"116 705 OFFCURVE",
"60 572 OFFCURVE",
"60 345 CURVE SMOOTH",
"60 106 OFFCURVE",
"126 -10 OFFCURVE",
"326 -10 CURVE SMOOTH"
);
}
);
width = 617;
},
{
anchors = (
{
name = bottom;
position = "{308, 0}";
},
{
name = top;
position = "{328, 752}";
}
);
layerId = "0596A6ED-150F-4F1F-BF1E-4449A7B9DE21";
paths = (
{
closed = 1;
nodes = (
"391 -10 OFFCURVE",
"466 -2 OFFCURVE",
"550 14 CURVE",
"550 354 LINE",
"359 354 LINE",
"359 285 LINE",
"474 285 LINE",
"474 72 LINE",
"425 63 OFFCURVE",
"378 58 OFFCURVE",
"331 58 CURVE SMOOTH",
"179 58 OFFCURVE",
"137 140 OFFCURVE",
"137 346 CURVE SMOOTH",
"137 552 OFFCURVE",
"179 633 OFFCURVE",
"332 633 CURVE SMOOTH",
"393 633 OFFCURVE",
"464 626 OFFCURVE",
"547 612 CURVE",
"550 676 LINE",
"452 695 OFFCURVE",
"388 702 OFFCURVE",
"323 702 CURVE SMOOTH",
"124 702 OFFCURVE",
"57 588 OFFCURVE",
"57 346 CURVE SMOOTH",
"57 104 OFFCURVE",
"124 -10 OFFCURVE",
"325 -10 CURVE SMOOTH"
);
}
);
width = 616;
},
{
anchors = (
{
name = bottom;
position = "{306, 0}";
},
{
name = top;
position = "{316, 723}";
}
);
layerId = "1FB77202-83CB-408E-8929-4AFC59A3446D";
paths = (
{
closed = 1;
nodes = (
"382 -12 OFFCURVE",
"460 -4 OFFCURVE",
"555 11 CURVE",
"555 364 LINE",
"357 364 LINE",
"357 244 LINE",
"419 244 LINE",
"419 112 LINE",
"401 109 OFFCURVE",
"357 108 OFFCURVE",
"336 108 CURVE",
"217 108 OFFCURVE",
"187 163 OFFCURVE",
"187 320 CURVE",
"187 477 OFFCURVE",
"184 570 OFFCURVE",
"355 570 CURVE",
"406 570 OFFCURVE",
"471 566 OFFCURVE",
"551 557 CURVE",
"555 664 LINE",
"450 684 OFFCURVE",
"383 692 OFFCURVE",
"318 692 CURVE",
"119 692 OFFCURVE",
"45 590 OFFCURVE",
"45 343 CURVE",
"45 96 OFFCURVE",
"111 -12 OFFCURVE",
"323 -12 CURVE"
);
}
);
width = 611;
}
);
unicode = 0047;
},
{
glyphname = H;
lastChange = "2017-03-21 00:39:59 +0000";
layers = (
{
anchors = (
{
name = bottom;
position = "{338, 0}";
},
{
name = center;
position = "{338, 0}";
},
{
name = top;
position = "{338, 785}";
},
{
name = topleft;
position = "{20, 695}";
}
);
layerId = "8FFE84BD-9390-4D75-BABD-68166BF44E93";
paths = (
{
closed = 1;
nodes = (
"149 0 LINE",
"149 695 LINE",
"87 695 LINE",
"87 0 LINE"
);
},
{
closed = 1;
nodes = (
"544 321 LINE",
"544 376 LINE",
"132 376 LINE",
"132 321 LINE"
);
},
{
closed = 1;
nodes = (
"587 0 LINE",
"587 695 LINE",
"526 695 LINE",
"526 0 LINE"
);
}
);
width = 675;
},
{
anchors = (
{
name = bottom;
position = "{338, 0}";
},
{
name = center;
position = "{338, 0}";
},
{
name = top;
position = "{338, 752}";
},
{
name = topleft;
position = "{20, 692}";
}
);
layerId = "0596A6ED-150F-4F1F-BF1E-4449A7B9DE21";
paths = (
{
closed = 1;
nodes = (
"162 0 LINE",
"162 692 LINE",
"85 692 LINE",
"85 0 LINE"
);
},
{
closed = 1;
nodes = (
"524 313 LINE",
"524 382 LINE",
"152 382 LINE",
"152 313 LINE"
);
},
{
closed = 1;
nodes = (
"590 0 LINE",
"590 692 LINE",
"514 692 LINE",
"514 0 LINE"
);
}
);
width = 675;
},
{
anchors = (
{
name = bottom;
position = "{339, 0}";
},
{
name = center;
position = "{339, 0}";
},
{
name = top;
position = "{339, 720}";
},
{
name = topleft;
position = "{20, 680}";
}
);
layerId = "1FB77202-83CB-408E-8929-4AFC59A3446D";
paths = (
{
closed = 1;
nodes = (
"212 0 LINE",
"212 680 LINE",
"74 680 LINE",
"74 0 LINE"
);
},
{
closed = 1;
nodes = (
"475 284 LINE",
"475 400 LINE",
"197 400 LINE",
"197 284 LINE"
);
},
{
closed = 1;
nodes = (
"603 0 LINE",
"603 680 LINE",
"465 680 LINE",
"465 0 LINE"
);
}
);
width = 677;
}
);
unicode = 0048;
},
{
glyphname = Hbar;
lastChange = "2017-03-21 00:38:36 +0000";
layers = (
{
components = (
{
name = H;
}
);
layerId = "8FFE84BD-9390-4D75-BABD-68166BF44E93";
paths = (
{
closed = 1;
nodes = (
"677 513 LINE",
"677 566 LINE",
"14 566 LINE",
"14 513 LINE"
);
}
);
width = 686;
},
{
components = (
{
name = H;
}
);
layerId = "0596A6ED-150F-4F1F-BF1E-4449A7B9DE21";
paths = (
{
closed = 1;
nodes = (
"677 508 LINE",
"677 573 LINE",
"15 573 LINE",
"15 508 LINE"
);
}
);
width = 686;
},
{
components = (
{
name = H;
}
);
layerId = "1FB77202-83CB-408E-8929-4AFC59A3446D";
paths = (
{
closed = 1;
nodes = (
"673 486 LINE",
"673 602 LINE",
"19 602 LINE",
"19 486 LINE"
);
}
);
width = 685;
}
);
unicode = 0126;
},
{
glyphname = I;
lastChange = "2017-03-21 00:46:44 +0000";
layers = (
{
anchors = (
{
name = bottom;
position = "{118, 0}";
},
{
name = ogonek;
position = "{117, -1}";
},
{
name = top;
position = "{118, 765}";
},
{
name = topleft;
position = "{20, 695}";
}
);
layerId = "8FFE84BD-9390-4D75-BABD-68166BF44E93";
paths = (
{
closed = 1;
nodes = (
"149 0 LINE",
"149 695 LINE",
"87 695 LINE",
"87 0 LINE"
);
}
);
width = 236;
},
{
anchors = (
{
name = bottom;
position = "{123, 0}";
},
{
name = ogonek;
position = "{129, -1}";
},
{
name = top;
position = "{123, 748}";
},
{
name = topleft;
position = "{20, 692}";
}
);
layerId = "0596A6ED-150F-4F1F-BF1E-4449A7B9DE21";
paths = (
{
closed = 1;
nodes = (
"162 0 LINE",
"162 692 LINE",
"85 692 LINE",
"85 0 LINE"
);
}
);
width = 246;
},
{
anchors = (
{
name = bottom;
position = "{143, 0}";
},
{
name = ogonek;
position = "{152, 0}";
},
{
name = top;
position = "{143, 720}";
},
{
name = topleft;
position = "{20, 680}";
}
);
layerId = "1FB77202-83CB-408E-8929-4AFC59A3446D";
paths = (
{
closed = 1;
nodes = (
"212 0 LINE",
"212 680 LINE",
"74 680 LINE",
"74 0 LINE"
);
}
);
width = 286;
}
);
unicode = 0049;
},
{
glyphname = J;
lastChange = "2017-03-21 12:22:22 +0000";
layers = (
{
anchors = (
{
name = bottom;
position = "{143, 0}";
},
{
name = top;
position = "{169, 777}";
}
);
layerId = "8FFE84BD-9390-4D75-BABD-68166BF44E93";
paths = (
{
closed = 1;
nodes = (
"161 -72 OFFCURVE",
"201 -52 OFFCURVE",
"201 89 CURVE SMOOTH",
"201 695 LINE",
"140 695 LINE",
"140 102 LINE SMOOTH",
"140 -2 OFFCURVE",
"130 -17 OFFCURVE",
"18 -17 CURVE",
"18 -72 LINE"
);
}
);
width = 285;
},
{
anchors = (
{
name = bottom;
position = "{145, 0}";
},
{
name = top;
position = "{169, 749}";
}
);
layerId = "0596A6ED-150F-4F1F-BF1E-4449A7B9DE21";
paths = (
{
closed = 1;
nodes = (
"138 -72 OFFCURVE",
"208 -64 OFFCURVE",
"208 95 CURVE SMOOTH",
"207 692 LINE",
"131 692 LINE",
"131 106 LINE SMOOTH",
"131 7 OFFCURVE",
"114 -3 OFFCURVE",
"18 -3 CURVE",
"18 -72 LINE"
);
}
);
width = 289;
},
{
anchors = (
{
name = bottom;
position = "{151, 0}";
},
{
name = top;
position = "{160, 724}";
}
);
layerId = "1FB77202-83CB-408E-8929-4AFC59A3446D";
paths = (
{
closed = 1;
nodes = (
"175 -70 OFFCURVE",
"233 -30 OFFCURVE",
"233 115 CURVE SMOOTH",
"232 680 LINE",
"95 680 LINE",
"95 121 LINE SMOOTH",
"95 66 OFFCURVE",
"72 50 OFFCURVE",
"19 50 CURVE",
"19 -70 LINE"
);
}
);
width = 302;
}
);
unicode = 004A;
},
{
glyphname = K;
lastChange = "2017-03-21 12:30:29 +0000";
layers = (
{
anchors = (
{
name = bottom;
position = "{282, 0}";
},
{
name = top;
position = "{282, 695}";
}
);
layerId = "8FFE84BD-9390-4D75-BABD-68166BF44E93";
paths = (
{
closed = 1;
nodes = (
"546 0 LINE",
"299 384 LINE",
"300 307 LINE",
"533 695 LINE",
"462 695 LINE",
"246 331 LINE",
"246 352 LINE",
"472 0 LINE"
);
},
{
closed = 1;
nodes = (
"149 0 LINE",
"149 695 LINE",
"87 695 LINE",
"87 0 LINE"
);
},
{
closed = 1;
nodes = (
"292 315 LINE",
"292 371 LINE",
"123 364 LINE",
"123 308 LINE"
);
}
);
width = 563;
},
{
anchors = (
{
name = bottom;
position = "{285, 0}";
},
{
name = top;
position = "{285, 692}";
}
);
layerId = "0596A6ED-150F-4F1F-BF1E-4449A7B9DE21";
paths = (
{
closed = 1;
nodes = (
"552 0 LINE",
"320 382 LINE",
"321 305 LINE",
"541 692 LINE",
"453 692 LINE",
"250 329 LINE",
"249 354 LINE",
"461 0 LINE"
);
},
{
closed = 1;
nodes = (
"162 0 LINE",
"162 692 LINE",
"85 692 LINE",
"85 0 LINE"
);
},
{
closed = 1;
nodes = (
"293 307 LINE",
"292 375 LINE",
"146 369 LINE",
"146 301 LINE"
);
}
);
width = 569;
},
{
anchors = (
{
name = bottom;
position = "{297, 0}";
},
{
name = top;
position = "{297, 680}";
}
);
layerId = "1FB77202-83CB-408E-8929-4AFC59A3446D";
paths = (
{
closed = 1;
nodes = (
"577 0 LINE",
"407 380 LINE",
"407 298 LINE",
"573 680 LINE",
"416 680 LINE",
"274 312 LINE",
"270 352 LINE",
"418 0 LINE"
);
},
{
closed = 1;
nodes = (
"212 0 LINE",
"212 680 LINE",
"74 680 LINE",
"74 0 LINE"
);
},
{
closed = 1;
nodes = (
"349 276 LINE",
"349 396 LINE",
"167 376 LINE",
"167 256 LINE"
);
}
);
width = 593;
}
);
unicode = 004B;
},
{
glyphname = L;
lastChange = "2017-03-21 12:37:12 +0000";
layers = (
{
anchors = (
{
name = bottom;
position = "{260, 0}";
},
{
name = center;
position = "{250, 0}";
},
{
name = top;
position = "{247, 762}";
},
{
name = topright;
position = "{460, 0}";
}
);
layerId = "8FFE84BD-9390-4D75-BABD-68166BF44E93";
paths = (
{
closed = 1;
nodes = (
"467 0 LINE",
"467 56 LINE",
"104 56 LINE",
"149 11 LINE",
"149 695 LINE",
"87 695 LINE",
"87 0 LINE"
);
}
);
width = 480;
},
{
anchors = (
{
name = bottom;
position = "{260, 0}";
},
{
name = center;
position = "{230, 0}";
},
{
name = top;
position = "{250, 752}";
},
{
name = topright;
position = "{459, 0}";
}
);
layerId = "0596A6ED-150F-4F1F-BF1E-4449A7B9DE21";
paths = (
{
closed = 1;
nodes = (
"466 0 LINE",
"466 69 LINE",
"117 69 LINE",
"162 24 LINE",
"162 692 LINE",
"85 692 LINE",
"85 0 LINE"
);
}
);
width = 479;
},
{
anchors = (
{
name = bottom;
position = "{246, 0}";
},
{
name = center;
position = "{226, 0}";
},
{
name = top;
position = "{251, 724}";
},
{
name = topright;
position = "{452, 0}";
}
);
layerId = "1FB77202-83CB-408E-8929-4AFC59A3446D";
paths = (
{
closed = 1;
nodes = (
"461 0 LINE",
"461 122 LINE",
"167 122 LINE",
"212 77 LINE",
"212 680 LINE",
"74 680 LINE",
"74 0 LINE"
);
}
);
width = 472;
}
);
unicode = 004C;
},
{
glyphname = Lcaron;
lastChange = "2017-03-21 12:36:14 +0000";
layers = (
{
components = (
{
name = L;
}
);
layerId = "8FFE84BD-9390-4D75-BABD-68166BF44E93";
paths = (
{
closed = 1;
nodes = (
"433 697 LINE",
"433 470 LINE",
"375 470 LINE",
"375 697 LINE"
);
}
);
width = 493;
},
{
components = (
{
name = L;
}
);
layerId = "0596A6ED-150F-4F1F-BF1E-4449A7B9DE21";
paths = (
{
closed = 1;
nodes = (
"439 696 LINE",
"439 462 LINE",
"366 462 LINE",
"366 696 LINE"
);
}
);
width = 494;
},
{
components = (
{
name = L;
}
);
layerId = "1FB77202-83CB-408E-8929-4AFC59A3446D";
paths = (
{
closed = 1;
nodes = (
"461 690 LINE",
"461 430 LINE",
"331 430 LINE",
"331 690 LINE"
);
}
);
width = 498;
}
);
unicode = 013D;
},
{
glyphname = Lslash;
lastChange = "2017-03-21 12:39:19 +0000";
layers = (
{
components = (
{
name = L;
}
);
layerId = "8FFE84BD-9390-4D75-BABD-68166BF44E93";
paths = (
{
closed = 1;
nodes = (
"336 457 LINE",
"306 499 LINE",
"1 285 LINE",
"31 243 LINE"
);
}
);
width = 484;
},
{
components = (
{
name = L;
}
);
layerId = "0596A6ED-150F-4F1F-BF1E-4449A7B9DE21";
paths = (
{
closed = 1;
nodes = (
"346 452 LINE",
"309 503 LINE",
"-4 284 LINE",
"33 232 LINE"
);
}
);
width = 483;
},
{
components = (
{
name = L;
}
);
layerId = "1FB77202-83CB-408E-8929-4AFC59A3446D";
paths = (
{
closed = 1;
nodes = (
"385 429 LINE",
"320 519 LINE",
"-24 278 LINE",
"41 188 LINE"
);
}
);
width = 481;
}
);
unicode = 0141;
},
{
glyphname = M;
lastChange = "2017-03-20 20:50:13 +0000";
layers = (
{
layerId = "8FFE84BD-9390-4D75-BABD-68166BF44E93";
paths = (
{
closed = 1;
nodes = (
"87 0 LINE",
"87 695 LINE",
"203 695 LINE",
"418 87 LINE",
"632 695 LINE",
"748 695 LINE",
"748 0 LINE",
"686 0 LINE",
"686 631 LINE",
"672 631 LINE",
"454 23 LINE",
"381 23 LINE",
"163 631 LINE",
"149 631 LINE",
"149 0 LINE"
);
}
);
width = 835;
},
{
layerId = "0596A6ED-150F-4F1F-BF1E-4449A7B9DE21";
paths = (
{
closed = 1;
nodes = (
"85 0 LINE",
"85 692 LINE",
"224 692 LINE",
"420 107 LINE",
"616 692 LINE",
"755 692 LINE",
"755 0 LINE",
"678 0 LINE",
"678 610 LINE",
"664 610 LINE",
"463 25 LINE",
"377 25 LINE",
"176 610 LINE",
"162 610 LINE",
"162 0 LINE"
);
}
);
width = 840;
},
{
layerId = "1FB77202-83CB-408E-8929-4AFC59A3446D";
paths = (
{
closed = 1;
nodes = (
"74 0 LINE",
"74 680 LINE",
"309 680 LINE",
"429 184 LINE",
"549 680 LINE",
"784 680 LINE",
"784 0 LINE",
"646 0 LINE",
"646 526 LINE",
"631 526 LINE",
"498 30 LINE",
"360 30 LINE",
"227 526 LINE",
"212 526 LINE",
"212 0 LINE"
);
}
);
width = 858;
}
);
unicode = 004D;
},
{
glyphname = N;
lastChange = "2017-03-20 20:50:13 +0000";
layers = (
{
layerId = "8FFE84BD-9390-4D75-BABD-68166BF44E93";
paths = (
{
closed = 1;
nodes = (
"87 0 LINE",
"87 695 LINE",
"209 695 LINE",
"500 55 LINE",
"523 55 LINE",
"523 695 LINE",
"584 695 LINE",
"584 0 LINE",
"464 0 LINE",
"171 639 LINE",
"149 639 LINE",
"149 0 LINE"
);
}
);
width = 672;
},
{
layerId = "0596A6ED-150F-4F1F-BF1E-4449A7B9DE21";
paths = (
{
closed = 1;
nodes = (
"85 0 LINE",
"85 692 LINE",
"229 692 LINE",
"494 68 LINE",
"515 68 LINE",
"515 692 LINE",
"591 692 LINE",
"591 0 LINE",
"450 0 LINE",
"181 624 LINE",
"162 624 LINE",
"162 0 LINE"
);
}
);
width = 676;
},
{
layerId = "1FB77202-83CB-408E-8929-4AFC59A3446D";
paths = (
{
closed = 1;
nodes = (
"74 0 LINE",
"74 680 LINE",
"307 680 LINE",
"471 120 LINE",
"481 120 LINE",
"481 680 LINE",
"619 680 LINE",
"619 0 LINE",
"392 0 LINE",
"222 560 LINE",
"212 560 LINE",
"212 0 LINE"
);
}
);
width = 693;
}
);
unicode = 004E;
},
{
glyphname = Nacute;
lastChange = "2017-03-20 20:50:13 +0000";
layers = (
{
layerId = "8FFE84BD-9390-4D75-BABD-68166BF44E93";
paths = (
{
closed = 1;
nodes = (
"87 0 LINE",
"87 695 LINE",
"209 695 LINE",
"500 55 LINE",
"523 55 LINE",
"523 695 LINE",
"584 695 LINE",
"584 0 LINE",
"464 0 LINE",
"171 639 LINE",
"149 639 LINE",
"149 0 LINE"
);
},
{
closed = 1;
nodes = (
"224 829 LINE",
"431 928 LINE",
"453 874 LINE",
"244 786 LINE"
);
}
);
width = 672;
},
{
layerId = "0596A6ED-150F-4F1F-BF1E-4449A7B9DE21";
paths = (
{
closed = 1;
nodes = (
"85 0 LINE",
"85 692 LINE",
"229 692 LINE",
"494 68 LINE",
"515 68 LINE",
"515 692 LINE",
"591 692 LINE",
"591 0 LINE",
"450 0 LINE",
"181 624 LINE",
"162 624 LINE",
"162 0 LINE"
);
},
{
closed = 1;
nodes = (
"220 831 LINE",
"436 931 LINE",
"462 865 LINE",
"243 778 LINE"
);
}
);
width = 676;
},
{
layerId = "1FB77202-83CB-408E-8929-4AFC59A3446D";
paths = (
{
closed = 1;
nodes = (
"74 0 LINE",
"74 680 LINE",
"307 680 LINE",
"471 120 LINE",
"481 120 LINE",
"481 680 LINE",
"619 680 LINE",
"619 0 LINE",
"392 0 LINE",
"222 560 LINE",
"212 560 LINE",
"212 0 LINE"
);
},
{
closed = 1;
nodes = (
"202 839 LINE",
"454 945 LINE",
"495 825 LINE",
"235 746 LINE"
);
}
);
width = 693;
}
);
unicode = 0143;
},
{
glyphname = Ncaron;
lastChange = "2017-03-20 20:50:13 +0000";
layers = (
{
layerId = "8FFE84BD-9390-4D75-BABD-68166BF44E93";
paths = (
{
closed = 1;
nodes = (
"87 0 LINE",
"87 695 LINE",
"209 695 LINE",
"500 55 LINE",
"523 55 LINE",
"523 695 LINE",
"584 695 LINE",
"584 0 LINE",
"464 0 LINE",
"171 639 LINE",
"149 639 LINE",
"149 0 LINE"
);
},
{
closed = 1;
nodes = (
"310 794 LINE",
"176 925 LINE",
"245 925 LINE",
"336 839 LINE",
"426 925 LINE",
"496 925 LINE",
"362 794 LINE"
);
}
);
width = 672;
},
{
layerId = "0596A6ED-150F-4F1F-BF1E-4449A7B9DE21";
paths = (
{
closed = 1;
nodes = (
"85 0 LINE",
"85 692 LINE",
"229 692 LINE",
"494 68 LINE",
"515 68 LINE",
"515 692 LINE",
"591 692 LINE",
"591 0 LINE",
"450 0 LINE",
"181 624 LINE",
"162 624 LINE",
"162 0 LINE"
);
},
{
closed = 1;
nodes = (
"306 788 LINE",
"172 923 LINE",
"256 923 LINE",
"339 843 LINE",
"421 923 LINE",
"505 923 LINE",
"371 788 LINE"
);
}
);
width = 676;
},
{
layerId = "1FB77202-83CB-408E-8929-4AFC59A3446D";
paths = (
{
closed = 1;
nodes = (
"74 0 LINE",
"74 680 LINE",
"307 680 LINE",
"471 120 LINE",
"481 120 LINE",
"481 680 LINE",
"619 680 LINE",
"619 0 LINE",
"392 0 LINE",
"222 560 LINE",
"212 560 LINE",
"212 0 LINE"
);
},
{
closed = 1;
nodes = (
"289 765 LINE",
"155 914 LINE",
"297 914 LINE",
"349 858 LINE",
"398 914 LINE",
"540 914 LINE",
"406 765 LINE"
);
}
);
width = 693;
}
);
unicode = 0147;
},
{
glyphname = Ncommaaccent;
lastChange = "2017-03-20 20:50:13 +0000";
layers = (
{
layerId = "8FFE84BD-9390-4D75-BABD-68166BF44E93";
paths = (
{
closed = 1;
nodes = (
"330 -78 LINE",
"390 -78 LINE",
"342 -278 LINE",
"290 -278 LINE"
);
},
{
closed = 1;
nodes = (
"87 0 LINE",
"87 695 LINE",
"209 695 LINE",
"500 55 LINE",
"523 55 LINE",
"523 695 LINE",
"584 695 LINE",
"584 0 LINE",
"464 0 LINE",
"171 639 LINE",
"149 639 LINE",
"149 0 LINE"
);
}
);
width = 672;
},
{
layerId = "0596A6ED-150F-4F1F-BF1E-4449A7B9DE21";
paths = (
{
closed = 1;
nodes = (
"324 -78 LINE",
"398 -78 LINE",
"348 -285 LINE",
"283 -285 LINE"
);
},
{
closed = 1;
nodes = (
"85 0 LINE",
"85 692 LINE",
"229 692 LINE",
"494 68 LINE",
"515 68 LINE",
"515 692 LINE",
"591 692 LINE",
"591 0 LINE",
"450 0 LINE",
"181 624 LINE",
"162 624 LINE",
"162 0 LINE"
);
}
);
width = 676;
},
{
layerId = "1FB77202-83CB-408E-8929-4AFC59A3446D";
paths = (
{
closed = 1;
nodes = (
"299 -77 LINE",
"429 -77 LINE",
"374 -311 LINE",
"253 -311 LINE"
);
},
{
closed = 1;
nodes = (
"74 0 LINE",
"74 680 LINE",
"307 680 LINE",
"471 120 LINE",
"481 120 LINE",
"481 680 LINE",
"619 680 LINE",
"619 0 LINE",
"392 0 LINE",
"222 560 LINE",
"212 560 LINE",
"212 0 LINE"
);
}
);
width = 693;
}
);
unicode = 0145;
},
{
glyphname = Eng;
lastChange = "2017-03-20 20:50:13 +0000";
layers = (
{
layerId = "8FFE84BD-9390-4D75-BABD-68166BF44E93";
paths = (
{
closed = 1;
nodes = (
"87 0 LINE",
"87 695 LINE",
"209 695 LINE",
"500 55 LINE",
"523 55 LINE",
"523 695 LINE",
"584 695 LINE",
"584 -22 LINE SMOOTH",
"584 -78 OFFCURVE",
"565 -143 OFFCURVE",
"514 -175 OFFCURVE",
"456 -183 OFFCURVE",
"401 -183 QCURVE",
"401 -128 LINE",
"444 -128 OFFCURVE",
"482 -123 OFFCURVE",
"515 -99 OFFCURVE",
"523 -53 OFFCURVE",
"523 -9 QCURVE SMOOTH",
"523 0 LINE",
"464 0 LINE",
"171 639 LINE",
"149 639 LINE",
"149 0 LINE"
);
}
);
width = 672;
},
{
layerId = "0596A6ED-150F-4F1F-BF1E-4449A7B9DE21";
paths = (
{
closed = 1;
nodes = (
"85 0 LINE",
"85 692 LINE",
"229 692 LINE",
"494 68 LINE",
"515 68 LINE",
"515 692 LINE",
"591 692 LINE",
"591 575 LINE",
"592 -22 LINE SMOOTH",
"592 -106 OFFCURVE",
"564 -146 QCURVE SMOOTH",
"541 -178 OFFCURVE",
"473 -186 QCURVE SMOOTH",
"446 -189 OFFCURVE",
"402 -189 QCURVE",
"402 -120 LINE",
"474 -120 OFFCURVE",
"515 -85 OFFCURVE",
"515 -11 QCURVE SMOOTH",
"515 0 LINE",
"450 0 LINE",
"181 624 LINE",
"162 624 LINE",
"162 0 LINE"
);
}
);
width = 676;
},
{
layerId = "1FB77202-83CB-408E-8929-4AFC59A3446D";
paths = (
{
closed = 1;
nodes = (
"74 0 LINE",
"74 680 LINE",
"307 680 LINE",
"471 120 LINE",
"481 120 LINE",
"481 680 LINE",
"619 680 LINE",
"619 -27 LINE SMOOTH",
"619 -136 OFFCURVE",
"522 -212 OFFCURVE",
"405 -212 QCURVE",
"405 -92 LINE",
"445 -92 OFFCURVE",
"481 -62 OFFCURVE",
"481 -21 QCURVE SMOOTH",
"481 0 LINE",
"392 0 LINE",
"222 560 LINE",
"212 560 LINE",
"212 0 LINE"
);
}
);
width = 693;
}
);
unicode = 014A;
},
{
glyphname = Ntilde;
lastChange = "2017-03-20 20:50:13 +0000";
layers = (
{
layerId = "8FFE84BD-9390-4D75-BABD-68166BF44E93";
paths = (
{
closed = 1;
nodes = (
"87 0 LINE",
"87 695 LINE",
"209 695 LINE",
"500 55 LINE",
"523 55 LINE",
"523 695 LINE",
"584 695 LINE",
"584 0 LINE",
"464 0 LINE",
"171 639 LINE",
"149 639 LINE",
"149 0 LINE"
);
},
{
closed = 1;
nodes = (
"414 814 QCURVE SMOOTH",
"394 814 OFFCURVE",
"271 871 OFFCURVE",
"258 871 QCURVE SMOOTH",
"236 871 OFFCURVE",
"198 834 QCURVE",
"186 821 LINE",
"171 867 LINE",
"218 923 OFFCURVE",
"256 923 QCURVE SMOOTH",
"282 923 OFFCURVE",
"404 868 OFFCURVE",
"415 868 QCURVE SMOOTH",
"434 868 OFFCURVE",
"470 902 QCURVE",
"482 914 LINE",
"497 869 LINE",
"451 814 OFFCURVE"
);
}
);
width = 672;
},
{
layerId = "0596A6ED-150F-4F1F-BF1E-4449A7B9DE21";
paths = (
{
closed = 1;
nodes = (
"85 0 LINE",
"85 692 LINE",
"229 692 LINE",
"494 68 LINE",
"515 68 LINE",
"515 692 LINE",
"591 692 LINE",
"591 0 LINE",
"450 0 LINE",
"181 624 LINE",
"162 624 LINE",
"162 0 LINE"
);
},
{
closed = 1;
nodes = (
"416 803 QCURVE SMOOTH",
"395 803 OFFCURVE",
"271 857 OFFCURVE",
"258 857 QCURVE SMOOTH",
"236 857 OFFCURVE",
"197 821 QCURVE SMOOTH",
"184 809 LINE",
"167 865 LINE",
"186 887 OFFCURVE",
"238 923 OFFCURVE",
"284 923 OFFCURVE",
"406 869 OFFCURVE",
"416 869 QCURVE SMOOTH",
"436 869 OFFCURVE",
"474 904 QCURVE SMOOTH",
"486 915 LINE",
"504 859 LINE",
"457 803 OFFCURVE"
);
}
);
width = 676;
},
{
layerId = "1FB77202-83CB-408E-8929-4AFC59A3446D";
paths = (
{
closed = 1;
nodes = (
"74 0 LINE",
"74 680 LINE",
"307 680 LINE",
"471 120 LINE",
"481 120 LINE",
"481 680 LINE",
"619 680 LINE",
"619 0 LINE",
"392 0 LINE",
"222 560 LINE",
"212 560 LINE",
"212 0 LINE"
);
},
{
closed = 1;
nodes = (
"399 758 OFFCURVE",
"272 804 OFFCURVE",
"259 804 QCURVE SMOOTH",
"234 804 OFFCURVE",
"192 772 QCURVE",
"178 762 LINE",
"149 858 LINE",
"169 882 OFFCURVE",
"232 922 OFFCURVE",
"291 922 OFFCURVE",
"413 876 OFFCURVE",
"424 876 QCURVE SMOOTH",
"447 876 OFFCURVE",
"490 908 QCURVE",
"505 918 LINE",
"534 821 LINE",
"513 797 OFFCURVE",
"451 758 OFFCURVE"
);
}
);
width = 693;
}
);
unicode = 00D1;
},
{
glyphname = O;
lastChange = "2017-03-20 20:50:13 +0000";
layers = (
{
layerId = "8FFE84BD-9390-4D75-BABD-68166BF44E93";
paths = (
{
closed = 1;
nodes = (
"208 46 OFFCURVE",
"455 46 OFFCURVE",
"539 182 OFFCURVE",
"539 501 OFFCURVE",
"451 649 OFFCURVE",
"331 649 QCURVE SMOOTH",
"207 649 OFFCURVE",
"164 569 QCURVE SMOOTH",
"141 528 OFFCURVE",
"124 422 OFFCURVE",
"124 344 QCURVE SMOOTH",
"124 185 OFFCURVE"
);
},
{
closed = 1;
nodes = (
"486 -10 OFFCURVE",
"177 -10 OFFCURVE",
"60 160 OFFCURVE",
"60 527 OFFCURVE",
"178 705 OFFCURVE",
"484 705 OFFCURVE",
"603 528 OFFCURVE",
"603 156 OFFCURVE"
);
}
);
width = 662;
},
{
layerId = "0596A6ED-150F-4F1F-BF1E-4449A7B9DE21";
paths = (
{
closed = 1;
nodes = (
"216 58 OFFCURVE",
"445 58 OFFCURVE",
"524 188 OFFCURVE",
"524 494 OFFCURVE",
"442 634 OFFCURVE",
"217 634 OFFCURVE",
"136 495 OFFCURVE",
"136 191 OFFCURVE"
);
},
{
closed = 1;
nodes = (
"486 -10 OFFCURVE",
"175 -10 OFFCURVE",
"57 160 OFFCURVE",
"57 525 OFFCURVE",
"177 702 OFFCURVE",
"483 702 OFFCURVE",
"604 526 OFFCURVE",
"604 156 OFFCURVE"
);
}
);
width = 660;
},
{
layerId = "1FB77202-83CB-408E-8929-4AFC59A3446D";
paths = (
{
closed = 1;
nodes = (
"407 108 OFFCURVE",
"466 213 OFFCURVE",
"466 460 OFFCURVE",
"406 572 OFFCURVE",
"246 572 OFFCURVE",
"186 460 OFFCURVE",
"186 213 OFFCURVE",
"245 108 OFFCURVE"
);
},
{
closed = 1;
nodes = (
"171 -12 OFFCURVE",
"44 157 OFFCURVE",
"44 517 OFFCURVE",
"171 692 OFFCURVE",
"481 692 OFFCURVE",
"608 517 OFFCURVE",
"608 157 OFFCURVE",
"481 -12 OFFCURVE"
);
}
);
width = 652;
}
);
unicode = 004F;
},
{
glyphname = Oacute;
lastChange = "2017-03-20 20:50:13 +0000";
layers = (
{
layerId = "8FFE84BD-9390-4D75-BABD-68166BF44E93";
paths = (
{
closed = 1;
nodes = (
"208 46 OFFCURVE",
"455 46 OFFCURVE",
"539 182 OFFCURVE",
"539 501 OFFCURVE",
"451 649 OFFCURVE",
"331 649 QCURVE SMOOTH",
"207 649 OFFCURVE",
"164 569 QCURVE SMOOTH",
"141 528 OFFCURVE",
"124 422 OFFCURVE",
"124 344 QCURVE SMOOTH",
"124 185 OFFCURVE"
);
},
{
closed = 1;
nodes = (
"486 -10 OFFCURVE",
"177 -10 OFFCURVE",
"60 160 OFFCURVE",
"60 527 OFFCURVE",
"178 705 OFFCURVE",
"484 705 OFFCURVE",
"603 528 OFFCURVE",
"603 156 OFFCURVE"
);
},
{
closed = 1;
nodes = (
"206 829 LINE",
"413 928 LINE",
"435 874 LINE",
"226 786 LINE"
);
}
);
width = 662;
},
{
layerId = "0596A6ED-150F-4F1F-BF1E-4449A7B9DE21";
paths = (
{
closed = 1;
nodes = (
"216 58 OFFCURVE",
"445 58 OFFCURVE",
"524 188 OFFCURVE",
"524 494 OFFCURVE",
"442 634 OFFCURVE",
"217 634 OFFCURVE",
"136 495 OFFCURVE",
"136 191 OFFCURVE"
);
},
{
closed = 1;
nodes = (
"486 -10 OFFCURVE",
"175 -10 OFFCURVE",
"57 160 OFFCURVE",
"57 525 OFFCURVE",
"177 702 OFFCURVE",
"483 702 OFFCURVE",
"604 526 OFFCURVE",
"604 156 OFFCURVE"
);
},
{
closed = 1;
nodes = (
"198 831 LINE",
"414 931 LINE",
"440 865 LINE",
"221 778 LINE"
);
}
);
width = 660;
},
{
layerId = "1FB77202-83CB-408E-8929-4AFC59A3446D";
paths = (
{
closed = 1;
nodes = (
"407 108 OFFCURVE",
"466 213 OFFCURVE",
"466 460 OFFCURVE",
"406 572 OFFCURVE",
"246 572 OFFCURVE",
"186 460 OFFCURVE",
"186 213 OFFCURVE",
"245 108 OFFCURVE"
);
},
{
closed = 1;
nodes = (
"171 -12 OFFCURVE",
"44 157 OFFCURVE",
"44 517 OFFCURVE",
"171 692 OFFCURVE",
"481 692 OFFCURVE",
"608 517 OFFCURVE",
"608 157 OFFCURVE",
"481 -12 OFFCURVE"
);
},
{
closed = 1;
nodes = (
"167 839 LINE",
"419 945 LINE",
"460 825 LINE",
"200 746 LINE"
);
}
);
width = 652;
}
);
unicode = 00D3;
},
{
glyphname = Obreve;
lastChange = "2017-03-20 20:50:13 +0000";
layers = (
{
layerId = "8FFE84BD-9390-4D75-BABD-68166BF44E93";
paths = (
{
closed = 1;
nodes = (
"208 46 OFFCURVE",
"455 46 OFFCURVE",
"539 182 OFFCURVE",
"539 501 OFFCURVE",
"451 649 OFFCURVE",
"331 649 QCURVE SMOOTH",
"207 649 OFFCURVE",
"164 569 QCURVE SMOOTH",
"141 528 OFFCURVE",
"124 422 OFFCURVE",
"124 344 QCURVE SMOOTH",
"124 185 OFFCURVE"
);
},
{
closed = 1;
nodes = (
"486 -10 OFFCURVE",
"177 -10 OFFCURVE",
"60 160 OFFCURVE",
"60 527 OFFCURVE",
"178 705 OFFCURVE",
"484 705 OFFCURVE",
"603 528 OFFCURVE",
"603 156 OFFCURVE"
);
},
{
closed = 1;
nodes = (
"371 841 OFFCURVE",
"425 884 OFFCURVE",
"426 920 QCURVE",
"482 920 LINE",
"481 863 OFFCURVE",
"397 793 OFFCURVE",
"267 793 OFFCURVE",
"184 863 OFFCURVE",
"182 920 QCURVE",
"239 920 LINE",
"240 884 OFFCURVE",
"293 841 OFFCURVE"
);
}
);
width = 662;
},
{
layerId = "0596A6ED-150F-4F1F-BF1E-4449A7B9DE21";
paths = (
{
closed = 1;
nodes = (
"216 58 OFFCURVE",
"445 58 OFFCURVE",
"524 188 OFFCURVE",
"524 494 OFFCURVE",
"442 634 OFFCURVE",
"217 634 OFFCURVE",
"136 495 OFFCURVE",
"136 191 OFFCURVE"
);
},
{
closed = 1;
nodes = (
"486 -10 OFFCURVE",
"175 -10 OFFCURVE",
"57 160 OFFCURVE",
"57 525 OFFCURVE",
"177 702 OFFCURVE",
"483 702 OFFCURVE",
"604 526 OFFCURVE",
"604 156 OFFCURVE"
);
},
{
closed = 1;
nodes = (
"368 843 OFFCURVE",
"418 885 OFFCURVE",
"419 918 QCURVE",
"489 918 LINE",
"486 859 OFFCURVE",
"400 787 OFFCURVE",
"262 787 OFFCURVE",
"177 859 OFFCURVE",
"174 918 QCURVE",
"243 918 LINE",
"244 885 OFFCURVE",
"294 843 OFFCURVE"
);
}
);
width = 660;
},
{
layerId = "1FB77202-83CB-408E-8929-4AFC59A3446D";
paths = (
{
closed = 1;
nodes = (
"407 108 OFFCURVE",
"466 213 OFFCURVE",
"466 460 OFFCURVE",
"406 572 OFFCURVE",
"246 572 OFFCURVE",
"186 460 OFFCURVE",
"186 213 OFFCURVE",
"245 108 OFFCURVE"
);
},
{
closed = 1;
nodes = (
"171 -12 OFFCURVE",
"44 157 OFFCURVE",
"44 517 OFFCURVE",
"171 692 OFFCURVE",
"481 692 OFFCURVE",
"608 517 OFFCURVE",
"608 157 OFFCURVE",
"481 -12 OFFCURVE"
);
},
{
closed = 1;
nodes = (
"300 853 OFFCURVE",
"355 853 OFFCURVE",
"390 885 OFFCURVE",
"393 910 QCURVE",
"514 910 LINE",
"506 842 OFFCURVE",
"413 759 OFFCURVE",
"241 759 OFFCURVE",
"149 842 OFFCURVE",
"141 910 QCURVE",
"262 910 LINE",
"266 885 OFFCURVE"
);
}
);
width = 652;
}
);
unicode = 014E;
},
{
glyphname = Ocircumflex;
lastChange = "2017-03-20 20:50:13 +0000";
layers = (
{
layerId = "8FFE84BD-9390-4D75-BABD-68166BF44E93";
paths = (
{
closed = 1;
nodes = (
"208 46 OFFCURVE",
"455 46 OFFCURVE",
"539 182 OFFCURVE",
"539 501 OFFCURVE",
"451 649 OFFCURVE",
"331 649 QCURVE SMOOTH",
"207 649 OFFCURVE",
"164 569 QCURVE SMOOTH",
"141 528 OFFCURVE",
"124 422 OFFCURVE",
"124 344 QCURVE SMOOTH",
"124 185 OFFCURVE"
);
},
{
closed = 1;
nodes = (
"486 -10 OFFCURVE",
"177 -10 OFFCURVE",
"60 160 OFFCURVE",
"60 527 OFFCURVE",
"178 705 OFFCURVE",
"484 705 OFFCURVE",
"603 528 OFFCURVE",
"603 156 OFFCURVE"
);
},
{
closed = 1;
nodes = (
"171 798 LINE",
"305 929 LINE",
"357 929 LINE",
"491 798 LINE",
"422 798 LINE",
"332 884 LINE",
"241 798 LINE"
);
}
);
width = 662;
},
{
layerId = "0596A6ED-150F-4F1F-BF1E-4449A7B9DE21";
paths = (
{
closed = 1;
nodes = (
"216 58 OFFCURVE",
"445 58 OFFCURVE",
"524 188 OFFCURVE",
"524 494 OFFCURVE",
"442 634 OFFCURVE",
"217 634 OFFCURVE",
"136 495 OFFCURVE",
"136 191 OFFCURVE"
);
},
{
closed = 1;
nodes = (
"486 -10 OFFCURVE",
"175 -10 OFFCURVE",
"57 160 OFFCURVE",
"57 525 OFFCURVE",
"177 702 OFFCURVE",
"483 702 OFFCURVE",
"604 526 OFFCURVE",
"604 156 OFFCURVE"
);
},
{
closed = 1;
nodes = (
"164 791 LINE",
"298 926 LINE",
"363 926 LINE",
"497 791 LINE",
"413 791 LINE",
"331 871 LINE",
"248 791 LINE"
);
}
);
width = 660;
},
{
layerId = "1FB77202-83CB-408E-8929-4AFC59A3446D";
paths = (
{
closed = 1;
nodes = (
"407 108 OFFCURVE",
"466 213 OFFCURVE",
"466 460 OFFCURVE",
"406 572 OFFCURVE",
"246 572 OFFCURVE",
"186 460 OFFCURVE",
"186 213 OFFCURVE",
"245 108 OFFCURVE"
);
},
{
closed = 1;
nodes = (
"171 -12 OFFCURVE",
"44 157 OFFCURVE",
"44 517 OFFCURVE",
"171 692 OFFCURVE",
"481 692 OFFCURVE",
"608 517 OFFCURVE",
"608 157 OFFCURVE",
"481 -12 OFFCURVE"
);
},
{
closed = 1;
nodes = (
"135 765 LINE",
"269 914 LINE",
"386 914 LINE",
"520 765 LINE",
"378 765 LINE",
"329 821 LINE",
"277 765 LINE"
);
}
);
width = 652;
}
);
unicode = 00D4;
},
{
glyphname = Odieresis;
lastChange = "2017-03-20 20:50:13 +0000";
layers = (
{
layerId = "8FFE84BD-9390-4D75-BABD-68166BF44E93";
paths = (
{
closed = 1;
nodes = (
"208 46 OFFCURVE",
"455 46 OFFCURVE",
"539 182 OFFCURVE",
"539 501 OFFCURVE",
"451 649 OFFCURVE",
"331 649 QCURVE SMOOTH",
"207 649 OFFCURVE",
"164 569 QCURVE SMOOTH",
"141 528 OFFCURVE",
"124 422 OFFCURVE",
"124 344 QCURVE SMOOTH",
"124 185 OFFCURVE"
);
},
{
closed = 1;
nodes = (
"486 -10 OFFCURVE",
"177 -10 OFFCURVE",
"60 160 OFFCURVE",
"60 527 OFFCURVE",
"178 705 OFFCURVE",
"484 705 OFFCURVE",
"603 528 OFFCURVE",
"603 156 OFFCURVE"
);
},
{
closed = 1;
nodes = (
"202 819 LINE",
"202 899 LINE",
"261 899 LINE",
"261 819 LINE"
);
},
{
closed = 1;
nodes = (
"403 819 LINE",
"403 899 LINE",
"461 899 LINE",
"461 819 LINE"
);
}
);
width = 662;
},
{
layerId = "0596A6ED-150F-4F1F-BF1E-4449A7B9DE21";
paths = (
{
closed = 1;
nodes = (
"216 58 OFFCURVE",
"445 58 OFFCURVE",
"524 188 OFFCURVE",
"524 494 OFFCURVE",
"442 634 OFFCURVE",
"217 634 OFFCURVE",
"136 495 OFFCURVE",
"136 191 OFFCURVE"
);
},
{
closed = 1;
nodes = (
"486 -10 OFFCURVE",
"175 -10 OFFCURVE",
"57 160 OFFCURVE",
"57 525 OFFCURVE",
"177 702 OFFCURVE",
"483 702 OFFCURVE",
"604 526 OFFCURVE",
"604 156 OFFCURVE"
);
},
{
closed = 1;
nodes = (
"192 808 LINE",
"192 898 LINE",
"265 898 LINE",
"265 808 LINE"
);
},
{
closed = 1;
nodes = (
"396 808 LINE",
"396 898 LINE",
"468 898 LINE",
"468 808 LINE"
);
}
);
width = 660;
},
{
layerId = "1FB77202-83CB-408E-8929-4AFC59A3446D";
paths = (
{
closed = 1;
nodes = (
"407 108 OFFCURVE",
"466 213 OFFCURVE",
"466 460 OFFCURVE",
"406 572 OFFCURVE",
"246 572 OFFCURVE",
"186 460 OFFCURVE",
"186 213 OFFCURVE",
"245 108 OFFCURVE"
);
},
{
closed = 1;
nodes = (
"171 -12 OFFCURVE",
"44 157 OFFCURVE",
"44 517 OFFCURVE",
"171 692 OFFCURVE",
"481 692 OFFCURVE",
"608 517 OFFCURVE",
"608 157 OFFCURVE",
"481 -12 OFFCURVE"
);
},
{
closed = 1;
nodes = (
"155 764 LINE",
"155 896 LINE",
"283 896 LINE",
"283 764 LINE"
);
},
{
closed = 1;
nodes = (
"369 764 LINE",
"369 896 LINE",
"497 896 LINE",
"497 764 LINE"
);
}
);
width = 652;
}
);
unicode = 00D6;
},
{
glyphname = Ograve;
lastChange = "2017-03-20 20:50:13 +0000";
layers = (
{
layerId = "8FFE84BD-9390-4D75-BABD-68166BF44E93";
paths = (
{
closed = 1;
nodes = (
"208 46 OFFCURVE",
"455 46 OFFCURVE",
"539 182 OFFCURVE",
"539 501 OFFCURVE",
"451 649 OFFCURVE",
"331 649 QCURVE SMOOTH",
"207 649 OFFCURVE",
"164 569 QCURVE SMOOTH",
"141 528 OFFCURVE",
"124 422 OFFCURVE",
"124 344 QCURVE SMOOTH",
"124 185 OFFCURVE"
);
},
{
closed = 1;
nodes = (
"486 -10 OFFCURVE",
"177 -10 OFFCURVE",
"60 160 OFFCURVE",
"60 527 OFFCURVE",
"178 705 OFFCURVE",
"484 705 OFFCURVE",
"603 528 OFFCURVE",
"603 156 OFFCURVE"
);
},
{
closed = 1;
nodes = (
"232 928 LINE",
"439 829 LINE",
"419 786 LINE",
"210 874 LINE"
);
}
);
width = 662;
},
{
layerId = "0596A6ED-150F-4F1F-BF1E-4449A7B9DE21";
paths = (
{
closed = 1;
nodes = (
"216 58 OFFCURVE",
"445 58 OFFCURVE",
"524 188 OFFCURVE",
"524 494 OFFCURVE",
"442 634 OFFCURVE",
"217 634 OFFCURVE",
"136 495 OFFCURVE",
"136 191 OFFCURVE"
);
},
{
closed = 1;
nodes = (
"486 -10 OFFCURVE",
"175 -10 OFFCURVE",
"57 160 OFFCURVE",
"57 525 OFFCURVE",
"177 702 OFFCURVE",
"483 702 OFFCURVE",
"604 526 OFFCURVE",
"604 156 OFFCURVE"
);
},
{
closed = 1;
nodes = (
"227 931 LINE",
"443 831 LINE",
"420 778 LINE",
"201 865 LINE"
);
}
);
width = 660;
},
{
layerId = "1FB77202-83CB-408E-8929-4AFC59A3446D";
paths = (
{
closed = 1;
nodes = (
"407 108 OFFCURVE",
"466 213 OFFCURVE",
"466 460 OFFCURVE",
"406 572 OFFCURVE",
"246 572 OFFCURVE",
"186 460 OFFCURVE",
"186 213 OFFCURVE",
"245 108 OFFCURVE"
);
},
{
closed = 1;
nodes = (
"171 -12 OFFCURVE",
"44 157 OFFCURVE",
"44 517 OFFCURVE",
"171 692 OFFCURVE",
"481 692 OFFCURVE",
"608 517 OFFCURVE",
"608 157 OFFCURVE",
"481 -12 OFFCURVE"
);
},
{
closed = 1;
nodes = (
"204 945 LINE",
"456 839 LINE",
"423 746 LINE",
"163 825 LINE"
);
}
);
width = 652;
}
);
unicode = 00D2;
},
{
glyphname = Ohungarumlaut;
lastChange = "2017-03-20 20:50:13 +0000";
layers = (
{
layerId = "8FFE84BD-9390-4D75-BABD-68166BF44E93";
paths = (
{
closed = 1;
nodes = (
"208 46 OFFCURVE",
"455 46 OFFCURVE",
"539 182 OFFCURVE",
"539 501 OFFCURVE",
"451 649 OFFCURVE",
"331 649 QCURVE SMOOTH",
"207 649 OFFCURVE",
"164 569 QCURVE SMOOTH",
"141 528 OFFCURVE",
"124 422 OFFCURVE",
"124 344 QCURVE SMOOTH",
"124 185 OFFCURVE"
);
},
{
closed = 1;
nodes = (
"486 -10 OFFCURVE",
"177 -10 OFFCURVE",
"60 160 OFFCURVE",
"60 527 OFFCURVE",
"178 705 OFFCURVE",
"484 705 OFFCURVE",
"603 528 OFFCURVE",
"603 156 OFFCURVE"
);
},
{
closed = 1;
nodes = (
"344 787 LINE",
"504 901 LINE",
"545 869 LINE",
"381 755 LINE"
);
},
{
closed = 1;
nodes = (
"149 787 LINE",
"310 902 LINE",
"349 869 LINE",
"187 756 LINE"
);
}
);
width = 662;
},
{
layerId = "0596A6ED-150F-4F1F-BF1E-4449A7B9DE21";
paths = (
{
closed = 1;
nodes = (
"216 58 OFFCURVE",
"445 58 OFFCURVE",
"524 188 OFFCURVE",
"524 494 OFFCURVE",
"442 634 OFFCURVE",
"217 634 OFFCURVE",
"136 495 OFFCURVE",
"136 191 OFFCURVE"
);
},
{
closed = 1;
nodes = (
"486 -10 OFFCURVE",
"175 -10 OFFCURVE",
"57 160 OFFCURVE",
"57 525 OFFCURVE",
"177 702 OFFCURVE",
"483 702 OFFCURVE",
"604 526 OFFCURVE",
"604 156 OFFCURVE"
);
},
{
closed = 1;
nodes = (
"348 785 LINE",
"490 916 LINE",
"545 881 LINE",
"399 752 LINE"
);
},
{
closed = 1;
nodes = (
"151 785 LINE",
"293 917 LINE",
"347 882 LINE",
"202 753 LINE"
);
}
);
width = 660;
},
{
layerId = "1FB77202-83CB-408E-8929-4AFC59A3446D";
paths = (
{
closed = 1;
nodes = (
"407 108 OFFCURVE",
"466 213 OFFCURVE",
"466 460 OFFCURVE",
"406 572 OFFCURVE",
"246 572 OFFCURVE",
"186 460 OFFCURVE",
"186 213 OFFCURVE",
"245 108 OFFCURVE"
);
},
{
closed = 1;
nodes = (
"171 -12 OFFCURVE",
"44 157 OFFCURVE",
"44 517 OFFCURVE",
"171 692 OFFCURVE",
"481 692 OFFCURVE",
"608 517 OFFCURVE",
"608 157 OFFCURVE",
"481 -12 OFFCURVE"
);
},
{
closed = 1;
nodes = (
"366 775 LINE",
"433 972 LINE",
"549 930 LINE",
"471 739 LINE"
);
},
{
closed = 1;
nodes = (
"158 776 LINE",
"225 973 LINE",
"341 931 LINE",
"263 740 LINE"
);
}
);
width = 652;
}
);
unicode = 0150;
},
{
glyphname = Omacron;
lastChange = "2017-03-20 20:50:13 +0000";
layers = (
{
layerId = "8FFE84BD-9390-4D75-BABD-68166BF44E93";
paths = (
{
closed = 1;
nodes = (
"208 46 OFFCURVE",
"455 46 OFFCURVE",
"539 182 OFFCURVE",
"539 501 OFFCURVE",
"451 649 OFFCURVE",
"331 649 QCURVE SMOOTH",
"207 649 OFFCURVE",
"164 569 QCURVE SMOOTH",
"141 528 OFFCURVE",
"124 422 OFFCURVE",
"124 344 QCURVE SMOOTH",
"124 185 OFFCURVE"
);
},
{
closed = 1;
nodes = (
"486 -10 OFFCURVE",
"177 -10 OFFCURVE",
"60 160 OFFCURVE",
"60 527 OFFCURVE",
"178 705 OFFCURVE",
"484 705 OFFCURVE",
"603 528 OFFCURVE",
"603 156 OFFCURVE"
);
},
{
closed = 1;
nodes = (
"180 819 LINE",
"180 868 LINE",
"482 868 LINE",
"482 819 LINE"
);
}
);
width = 662;
},
{
layerId = "0596A6ED-150F-4F1F-BF1E-4449A7B9DE21";
paths = (
{
closed = 1;
nodes = (
"216 58 OFFCURVE",
"445 58 OFFCURVE",
"524 188 OFFCURVE",
"524 494 OFFCURVE",
"442 634 OFFCURVE",
"217 634 OFFCURVE",
"136 495 OFFCURVE",
"136 191 OFFCURVE"
);
},
{
closed = 1;
nodes = (
"486 -10 OFFCURVE",
"175 -10 OFFCURVE",
"57 160 OFFCURVE",
"57 525 OFFCURVE",
"177 702 OFFCURVE",
"483 702 OFFCURVE",
"604 526 OFFCURVE",
"604 156 OFFCURVE"
);
},
{
closed = 1;
nodes = (
"174 812 LINE",
"174 870 LINE",
"485 870 LINE",
"485 812 LINE"
);
}
);
width = 660;
},
{
layerId = "1FB77202-83CB-408E-8929-4AFC59A3446D";
paths = (
{
closed = 1;
nodes = (
"407 108 OFFCURVE",
"466 213 OFFCURVE",
"466 460 OFFCURVE",
"406 572 OFFCURVE",
"246 572 OFFCURVE",
"186 460 OFFCURVE",
"186 213 OFFCURVE",
"245 108 OFFCURVE"
);
},
{
closed = 1;
nodes = (
"171 -12 OFFCURVE",
"44 157 OFFCURVE",
"44 517 OFFCURVE",
"171 692 OFFCURVE",
"481 692 OFFCURVE",
"608 517 OFFCURVE",
"608 157 OFFCURVE",
"481 -12 OFFCURVE"
);
},
{
closed = 1;
nodes = (
"149 782 LINE",
"149 880 LINE",
"496 880 LINE",
"496 782 LINE"
);
}
);
width = 652;
}
);
unicode = 014C;
},
{
glyphname = Oslash;
lastChange = "2017-03-20 20:50:13 +0000";
layers = (
{
layerId = "8FFE84BD-9390-4D75-BABD-68166BF44E93";
paths = (
{
closed = 1;
nodes = (
"331 -10 QCURVE SMOOTH",
"260 -10 OFFCURVE",
"206 9 QCURVE",
"149 -114 LINE",
"102 -93 LINE",
"161 33 LINE",
"106 73 OFFCURVE",
"60 224 OFFCURVE",
"60 344 QCURVE SMOOTH",
"60 527 OFFCURVE",
"178 705 OFFCURVE",
"331 705 QCURVE SMOOTH",
"410 705 OFFCURVE",
"464 681 QCURVE",
"518 796 LINE",
"565 777 LINE",
"507 654 LINE",
"603 577 OFFCURVE",
"603 344 QCURVE SMOOTH",
"603 156 OFFCURVE",
"486 -10 OFFCURVE"
);
},
{
closed = 1;
nodes = (
"124 422 OFFCURVE",
"124 246 OFFCURVE",
"151 124 OFFCURVE",
"187 90 QCURVE",
"439 627 LINE",
"395 649 OFFCURVE",
"268 649 OFFCURVE",
"186 610 OFFCURVE",
"141 528 OFFCURVE"
);
},
{
closed = 1;
nodes = (
"331 46 QCURVE SMOOTH",
"455 46 OFFCURVE",
"539 182 OFFCURVE",
"539 528 OFFCURVE",
"480 595 QCURVE",
"231 62 LINE",
"270 46 OFFCURVE"
);
}
);
width = 662;
},
{
layerId = "0596A6ED-150F-4F1F-BF1E-4449A7B9DE21";
paths = (
{
closed = 1;
nodes = (
"330 -10 QCURVE SMOOTH",
"261 -10 OFFCURVE",
"210 7 QCURVE",
"153 -116 LINE",
"96 -90 LINE",
"155 36 LINE",
"102 76 OFFCURVE",
"57 226 OFFCURVE",
"57 343 QCURVE SMOOTH",
"57 525 OFFCURVE",
"177 702 OFFCURVE",
"330 702 QCURVE SMOOTH",
"405 702 OFFCURVE",
"456 681 QCURVE",
"512 799 LINE",
"570 775 LINE",
"511 648 LINE",
"604 570 OFFCURVE",
"604 343 QCURVE SMOOTH",
"604 156 OFFCURVE",
"486 -10 OFFCURVE"
);
},
{
closed = 1;
nodes = (
"136 495 OFFCURVE",
"136 166 OFFCURVE",
"188 108 QCURVE",
"426 615 LINE",
"388 634 OFFCURVE",
"330 634 QCURVE SMOOTH",
"217 634 OFFCURVE"
);
},
{
closed = 1;
nodes = (
"330 58 QCURVE SMOOTH",
"445 58 OFFCURVE",
"524 188 OFFCURVE",
"524 510 OFFCURVE",
"476 574 QCURVE",
"241 72 LINE",
"275 58 OFFCURVE"
);
}
);
width = 660;
},
{
layerId = "1FB77202-83CB-408E-8929-4AFC59A3446D";
paths = (
{
closed = 1;
nodes = (
"326 -12 QCURVE SMOOTH",
"277 -12 OFFCURVE",
"230 -2 QCURVE",
"172 -127 LINE",
"74 -78 LINE",
"132 46 LINE",
"44 124 OFFCURVE",
"44 336 QCURVE SMOOTH",
"44 517 OFFCURVE",
"171 692 OFFCURVE",
"326 692 QCURVE SMOOTH",
"384 692 OFFCURVE",
"427 680 QCURVE",
"488 810 LINE",
"588 767 LINE",
"523 627 LINE",
"608 545 OFFCURVE",
"608 336 QCURVE SMOOTH",
"608 157 OFFCURVE",
"481 -12 OFFCURVE"
);
},
{
closed = 1;
nodes = (
"186 460 OFFCURVE",
"186 243 OFFCURVE",
"201 194 QCURVE",
"374 565 LINE",
"350 572 OFFCURVE",
"326 572 QCURVE SMOOTH",
"246 572 OFFCURVE"
);
},
{
closed = 1;
nodes = (
"326 108 QCURVE SMOOTH",
"407 108 OFFCURVE",
"466 213 OFFCURVE",
"466 425 OFFCURVE",
"452 475 QCURVE",
"283 112 LINE",
"300 108 OFFCURVE"
);
}
);
width = 652;
}
);
unicode = 00D8;
},
{
glyphname = Oslashacute;
lastChange = "2017-03-20 20:50:13 +0000";
layers = (
{
layerId = "8FFE84BD-9390-4D75-BABD-68166BF44E93";
paths = (
{
closed = 1;
nodes = (
"332 -10 QCURVE SMOOTH",
"261 -10 OFFCURVE",
"207 9 QCURVE",
"150 -114 LINE",
"103 -93 LINE",
"162 33 LINE",
"107 73 OFFCURVE",
"61 224 OFFCURVE",
"61 344 QCURVE SMOOTH",
"61 527 OFFCURVE",
"179 705 OFFCURVE",
"332 705 QCURVE SMOOTH",
"411 705 OFFCURVE",
"465 681 QCURVE",
"519 796 LINE",
"566 777 LINE",
"508 654 LINE",
"604 577 OFFCURVE",
"604 344 QCURVE SMOOTH",
"604 156 OFFCURVE",
"487 -10 OFFCURVE"
);
},
{
closed = 1;
nodes = (
"125 422 OFFCURVE",
"125 246 OFFCURVE",
"152 124 OFFCURVE",
"188 90 QCURVE",
"440 627 LINE",
"396 649 OFFCURVE",
"269 649 OFFCURVE",
"187 610 OFFCURVE",
"142 528 OFFCURVE"
);
},
{
closed = 1;
nodes = (
"332 46 QCURVE SMOOTH",
"456 46 OFFCURVE",
"540 182 OFFCURVE",
"540 528 OFFCURVE",
"481 595 QCURVE",
"232 62 LINE",
"271 46 OFFCURVE"
);
},
{
closed = 1;
nodes = (
"219 829 LINE",
"426 928 LINE",
"448 874 LINE",
"239 786 LINE"
);
}
);
width = 664;
},
{
layerId = "0596A6ED-150F-4F1F-BF1E-4449A7B9DE21";
paths = (
{
closed = 1;
nodes = (
"331 -10 QCURVE SMOOTH",
"262 -10 OFFCURVE",
"211 7 QCURVE",
"154 -116 LINE",
"97 -90 LINE",
"156 36 LINE",
"103 76 OFFCURVE",
"58 226 OFFCURVE",
"58 343 QCURVE SMOOTH",
"58 525 OFFCURVE",
"178 702 OFFCURVE",
"331 702 QCURVE SMOOTH",
"406 702 OFFCURVE",
"457 681 QCURVE",
"513 799 LINE",
"571 775 LINE",
"512 648 LINE",
"605 570 OFFCURVE",
"605 343 QCURVE SMOOTH",
"605 156 OFFCURVE",
"487 -10 OFFCURVE"
);
},
{
closed = 1;
nodes = (
"137 495 OFFCURVE",
"137 166 OFFCURVE",
"189 108 QCURVE",
"427 615 LINE",
"389 634 OFFCURVE",
"331 634 QCURVE SMOOTH",
"218 634 OFFCURVE"
);
},
{
closed = 1;
nodes = (
"331 58 QCURVE SMOOTH",
"446 58 OFFCURVE",
"525 188 OFFCURVE",
"525 510 OFFCURVE",
"477 574 QCURVE",
"242 72 LINE",
"276 58 OFFCURVE"
);
},
{
closed = 1;
nodes = (
"209 831 LINE",
"425 931 LINE",
"451 865 LINE",
"232 778 LINE"
);
}
);
width = 662;
},
{
layerId = "1FB77202-83CB-408E-8929-4AFC59A3446D";
paths = (
{
closed = 1;
nodes = (
"327 -12 QCURVE SMOOTH",
"278 -12 OFFCURVE",
"231 -2 QCURVE",
"173 -127 LINE",
"75 -78 LINE",
"133 46 LINE",
"45 124 OFFCURVE",
"45 336 QCURVE SMOOTH",
"45 517 OFFCURVE",
"172 692 OFFCURVE",
"327 692 QCURVE SMOOTH",
"384 692 OFFCURVE",
"428 680 QCURVE",
"489 810 LINE",
"589 767 LINE",
"524 627 LINE",
"609 545 OFFCURVE",
"609 336 QCURVE SMOOTH",
"609 157 OFFCURVE",
"482 -12 OFFCURVE"
);
},
{
closed = 1;
nodes = (
"187 460 OFFCURVE",
"187 243 OFFCURVE",
"202 194 QCURVE",
"375 565 LINE",
"350 572 OFFCURVE",
"327 572 QCURVE SMOOTH",
"247 572 OFFCURVE"
);
},
{
closed = 1;
nodes = (
"327 108 QCURVE SMOOTH",
"408 108 OFFCURVE",
"467 213 OFFCURVE",
"467 425 OFFCURVE",
"453 475 QCURVE",
"284 112 LINE",
"301 108 OFFCURVE"
);
},
{
closed = 1;
nodes = (
"170 839 LINE",
"422 945 LINE",
"463 825 LINE",
"203 746 LINE"
);
}
);
width = 654;
}
);
unicode = 01FE;
},
{
glyphname = Otilde;
lastChange = "2017-03-20 20:50:13 +0000";
layers = (
{
layerId = "8FFE84BD-9390-4D75-BABD-68166BF44E93";
paths = (
{
closed = 1;
nodes = (
"208 46 OFFCURVE",
"455 46 OFFCURVE",
"539 182 OFFCURVE",
"539 501 OFFCURVE",
"451 649 OFFCURVE",
"331 649 QCURVE SMOOTH",
"207 649 OFFCURVE",
"164 569 QCURVE SMOOTH",
"141 528 OFFCURVE",
"124 422 OFFCURVE",
"124 344 QCURVE SMOOTH",
"124 185 OFFCURVE"
);
},
{
closed = 1;
nodes = (
"486 -10 OFFCURVE",
"177 -10 OFFCURVE",
"60 160 OFFCURVE",
"60 527 OFFCURVE",
"178 705 OFFCURVE",
"484 705 OFFCURVE",
"603 528 OFFCURVE",
"603 156 OFFCURVE"
);
},
{
closed = 1;
nodes = (
"408 814 QCURVE SMOOTH",
"388 814 OFFCURVE",
"265 871 OFFCURVE",
"252 871 QCURVE SMOOTH",
"230 871 OFFCURVE",
"192 834 QCURVE",
"180 821 LINE",
"165 867 LINE",
"212 923 OFFCURVE",
"250 923 QCURVE SMOOTH",
"276 923 OFFCURVE",
"398 868 OFFCURVE",
"409 868 QCURVE SMOOTH",
"428 868 OFFCURVE",
"464 902 QCURVE",
"476 914 LINE",
"491 869 LINE",
"445 814 OFFCURVE"
);
}
);
width = 662;
},
{
layerId = "0596A6ED-150F-4F1F-BF1E-4449A7B9DE21";
paths = (
{
closed = 1;
nodes = (
"216 58 OFFCURVE",
"445 58 OFFCURVE",
"524 188 OFFCURVE",
"524 494 OFFCURVE",
"442 634 OFFCURVE",
"217 634 OFFCURVE",
"136 495 OFFCURVE",
"136 191 OFFCURVE"
);
},
{
closed = 1;
nodes = (
"486 -10 OFFCURVE",
"175 -10 OFFCURVE",
"57 160 OFFCURVE",
"57 525 OFFCURVE",
"177 702 OFFCURVE",
"483 702 OFFCURVE",
"604 526 OFFCURVE",
"604 156 OFFCURVE"
);
},
{
closed = 1;
nodes = (
"408 803 QCURVE SMOOTH",
"387 803 OFFCURVE",
"263 857 OFFCURVE",
"250 857 QCURVE SMOOTH",
"228 857 OFFCURVE",
"189 821 QCURVE SMOOTH",
"176 809 LINE",
"159 865 LINE",
"178 887 OFFCURVE",
"230 923 OFFCURVE",
"276 923 OFFCURVE",
"398 869 OFFCURVE",
"408 869 QCURVE SMOOTH",
"428 869 OFFCURVE",
"466 904 QCURVE SMOOTH",
"478 915 LINE",
"496 859 LINE",
"449 803 OFFCURVE"
);
}
);
width = 660;
},
{
layerId = "1FB77202-83CB-408E-8929-4AFC59A3446D";
paths = (
{
closed = 1;
nodes = (
"407 108 OFFCURVE",
"466 213 OFFCURVE",
"466 460 OFFCURVE",
"406 572 OFFCURVE",
"246 572 OFFCURVE",
"186 460 OFFCURVE",
"186 213 OFFCURVE",
"245 108 OFFCURVE"
);
},
{
closed = 1;
nodes = (
"171 -12 OFFCURVE",
"44 157 OFFCURVE",
"44 517 OFFCURVE",
"171 692 OFFCURVE",
"481 692 OFFCURVE",
"608 517 OFFCURVE",
"608 157 OFFCURVE",
"481 -12 OFFCURVE"
);
},
{
closed = 1;
nodes = (
"383 758 OFFCURVE",
"256 804 OFFCURVE",
"243 804 QCURVE SMOOTH",
"218 804 OFFCURVE",
"176 772 QCURVE",
"162 762 LINE",
"133 858 LINE",
"153 882 OFFCURVE",
"216 922 OFFCURVE",
"275 922 OFFCURVE",
"397 876 OFFCURVE",
"408 876 QCURVE SMOOTH",
"431 876 OFFCURVE",
"474 908 QCURVE",
"489 918 LINE",
"518 821 LINE",
"497 797 OFFCURVE",
"435 758 OFFCURVE"
);
}
);
width = 652;
}
);
unicode = 00D5;
},
{
glyphname = OE;
lastChange = "2017-03-20 20:50:13 +0000";
layers = (
{
layerId = "8FFE84BD-9390-4D75-BABD-68166BF44E93";
paths = (
{
closed = 1;
nodes = (
"882 -1 LINE",
"474 -1 LINE",
"382 -10 OFFCURVE",
"326 -10 QCURVE SMOOTH",
"173 -10 OFFCURVE",
"60 159 OFFCURVE",
"60 532 OFFCURVE",
"176 707 OFFCURVE",
"326 707 QCURVE SMOOTH",
"411 707 OFFCURVE",
"473 697 QCURVE",
"882 697 LINE",
"882 637 LINE",
"534 637 LINE",
"534 387 LINE",
"822 387 LINE",
"822 327 LINE",
"534 327 LINE",
"534 60 LINE",
"882 60 LINE"
);
},
{
closed = 1;
nodes = (
"267 50 OFFCURVE",
"380 50 OFFCURVE",
"473 58 QCURVE",
"473 637 LINE",
"345 648 OFFCURVE",
"331 648 QCURVE SMOOTH",
"210 648 OFFCURVE",
"124 507 OFFCURVE",
"124 346 QCURVE SMOOTH",
"124 266 OFFCURVE",
"140 163 OFFCURVE",
"185 85 OFFCURVE"
);
}
);
width = 930;
},
{
layerId = "0596A6ED-150F-4F1F-BF1E-4449A7B9DE21";
paths = (
{
closed = 1;
nodes = (
"878 -1 LINE",
"465 -1 LINE",
"373 -10 OFFCURVE",
"322 -10 QCURVE SMOOTH",
"169 -10 OFFCURVE",
"57 159 OFFCURVE",
"57 534 OFFCURVE",
"173 706 OFFCURVE",
"322 706 QCURVE SMOOTH",
"401 706 OFFCURVE",
"463 696 QCURVE",
"878 696 LINE",
"878 622 LINE",
"539 622 LINE",
"539 393 LINE",
"818 393 LINE",
"818 319 LINE",
"539 319 LINE",
"539 74 LINE",
"878 74 LINE"
);
},
{
closed = 1;
nodes = (
"332 65 QCURVE SMOOTH",
"384 65 OFFCURVE",
"463 72 QCURVE",
"463 622 LINE",
"358 631 OFFCURVE",
"330 631 QCURVE SMOOTH",
"217 631 OFFCURVE",
"137 501 OFFCURVE",
"137 192 OFFCURVE",
"215 65 OFFCURVE"
);
}
);
width = 925;
},
{
layerId = "1FB77202-83CB-408E-8929-4AFC59A3446D";
paths = (
{
closed = 1;
nodes = (
"861 0 LINE",
"425 0 LINE",
"349 -12 OFFCURVE",
"306 -12 QCURVE SMOOTH",
"155 -12 OFFCURVE",
"46 155 OFFCURVE",
"46 541 OFFCURVE",
"163 702 OFFCURVE",
"306 702 QCURVE SMOOTH",
"349 702 OFFCURVE",
"423 690 QCURVE",
"861 690 LINE",
"861 558 LINE",
"559 558 LINE",
"559 415 LINE",
"801 415 LINE",
"801 284 LINE",
"559 284 LINE",
"559 132 LINE",
"861 132 LINE"
);
},
{
closed = 1;
nodes = (
"330 124 QCURVE SMOOTH",
"355 124 OFFCURVE",
"423 130 QCURVE",
"423 560 LINE",
"353 566 OFFCURVE",
"271 566 OFFCURVE",
"214 531 OFFCURVE",
"188 436 OFFCURVE",
"188 214 OFFCURVE",
"243 124 OFFCURVE"
);
}
);
width = 902;
}
);
unicode = 0152;
},
{
glyphname = P;
lastChange = "2017-03-20 20:50:13 +0000";
layers = (
{
layerId = "8FFE84BD-9390-4D75-BABD-68166BF44E93";
paths = (
{
closed = 1;
nodes = (
"341 242 QCURVE SMOOTH",
"149 242 LINE",
"149 0 LINE",
"87 0 LINE",
"87 695 LINE",
"341 695 LINE SMOOTH",
"452 695 OFFCURVE",
"557 587 OFFCURVE",
"557 475 QCURVE SMOOTH",
"557 242 OFFCURVE"
);
},
{
closed = 1;
nodes = (
"149 297 LINE",
"341 297 LINE SMOOTH",
"493 297 OFFCURVE",
"493 475 QCURVE SMOOTH",
"493 560 OFFCURVE",
"421 640 OFFCURVE",
"341 640 QCURVE SMOOTH",
"149 640 LINE"
);
}
);
width = 593;
},
{
layerId = "0596A6ED-150F-4F1F-BF1E-4449A7B9DE21";
paths = (
{
closed = 1;
nodes = (
"338 233 QCURVE SMOOTH",
"162 233 LINE",
"162 0 LINE",
"85 0 LINE",
"85 692 LINE",
"338 692 LINE SMOOTH",
"451 692 OFFCURVE",
"559 582 OFFCURVE",
"559 469 QCURVE SMOOTH",
"559 233 OFFCURVE"
);
},
{
closed = 1;
nodes = (
"162 301 LINE",
"337 301 LINE SMOOTH",
"480 301 OFFCURVE",
"480 469 QCURVE SMOOTH",
"480 549 OFFCURVE",
"412 624 OFFCURVE",
"337 624 QCURVE SMOOTH",
"162 624 LINE"
);
}
);
width = 593;
},
{
layerId = "1FB77202-83CB-408E-8929-4AFC59A3446D";
paths = (
{
closed = 1;
nodes = (
"324 198 QCURVE SMOOTH",
"212 198 LINE",
"212 0 LINE",
"74 0 LINE",
"74 680 LINE",
"324 680 LINE SMOOTH",
"566 680 OFFCURVE",
"566 444 QCURVE SMOOTH",
"566 325 OFFCURVE",
"443 198 OFFCURVE"
);
},
{
closed = 1;
nodes = (
"212 316 LINE",
"323 316 LINE SMOOTH",
"426 316 OFFCURVE",
"426 444 QCURVE SMOOTH",
"426 507 OFFCURVE",
"376 562 OFFCURVE",
"323 562 QCURVE SMOOTH",
"212 562 LINE"
);
}
);
width = 589;
}
);
unicode = 0050;
},
{
glyphname = Thorn;
lastChange = "2017-03-20 20:50:13 +0000";
layers = (
{
layerId = "8FFE84BD-9390-4D75-BABD-68166BF44E93";
paths = (
{
closed = 1;
nodes = (
"341 185 LINE SMOOTH",
"494 185 OFFCURVE",
"494 363 QCURVE SMOOTH",
"494 446 OFFCURVE",
"421 523 OFFCURVE",
"341 523 QCURVE SMOOTH",
"149 523 LINE",
"149 185 LINE"
);
},
{
closed = 1;
nodes = (
"341 126 QCURVE SMOOTH",
"149 126 LINE",
"149 0 LINE",
"87 0 LINE",
"87 697 LINE",
"149 697 LINE",
"149 581 LINE",
"341 581 LINE SMOOTH",
"452 581 OFFCURVE",
"557 475 OFFCURVE",
"557 249 OFFCURVE",
"450 126 OFFCURVE"
);
}
);
width = 600;
},
{
layerId = "0596A6ED-150F-4F1F-BF1E-4449A7B9DE21";
paths = (
{
closed = 1;
nodes = (
"337 195 LINE SMOOTH",
"481 195 OFFCURVE",
"481 361 QCURVE SMOOTH",
"481 439 OFFCURVE",
"412 510 OFFCURVE",
"337 510 QCURVE SMOOTH",
"162 510 LINE",
"162 195 LINE"
);
},
{
closed = 1;
nodes = (
"338 121 QCURVE SMOOTH",
"162 121 LINE",
"162 0 LINE",
"85 0 LINE",
"85 696 LINE",
"162 696 LINE",
"162 584 LINE",
"338 584 LINE SMOOTH",
"451 584 OFFCURVE",
"560 474 OFFCURVE",
"560 245 OFFCURVE",
"449 121 OFFCURVE"
);
}
);
width = 599;
},
{
layerId = "1FB77202-83CB-408E-8929-4AFC59A3446D";
paths = (
{
closed = 1;
nodes = (
"323 233 LINE SMOOTH",
"374 233 OFFCURVE",
"428 296 OFFCURVE",
"428 353 QCURVE SMOOTH",
"428 460 OFFCURVE",
"323 460 QCURVE SMOOTH",
"212 460 LINE",
"212 233 LINE"
);
},
{
closed = 1;
nodes = (
"324 99 QCURVE SMOOTH",
"212 99 LINE",
"212 0 LINE",
"74 0 LINE",
"74 690 LINE",
"212 690 LINE",
"212 592 LINE",
"324 592 LINE SMOOTH",
"568 592 OFFCURVE",
"568 353 QCURVE SMOOTH",
"568 232 OFFCURVE",
"443 99 OFFCURVE"
);
}
);
width = 596;
}
);
unicode = 00DE;
},
{
glyphname = Q;
lastChange = "2017-03-20 20:50:13 +0000";
layers = (
{
layerId = "8FFE84BD-9390-4D75-BABD-68166BF44E93";
paths = (
{
closed = 1;
nodes = (
"331 -10 QCURVE SMOOTH",
"177 -10 OFFCURVE",
"60 160 OFFCURVE",
"60 527 OFFCURVE",
"178 705 OFFCURVE",
"484 705 OFFCURVE",
"603 528 OFFCURVE",
"603 344 QCURVE SMOOTH",
"603 213 OFFCURVE",
"550 59 OFFCURVE",
"486 23 QCURVE",
"571 -115 LINE",
"512 -143 LINE",
"425 1 LINE",
"386 -10 OFFCURVE"
);
},
{
closed = 1;
nodes = (
"208 46 OFFCURVE",
"455 46 OFFCURVE",
"539 181 OFFCURVE",
"539 501 OFFCURVE",
"451 649 OFFCURVE",
"331 649 QCURVE SMOOTH",
"207 649 OFFCURVE",
"164 569 QCURVE SMOOTH",
"141 528 OFFCURVE",
"124 422 OFFCURVE",
"124 344 QCURVE SMOOTH",
"124 185 OFFCURVE"
);
}
);
width = 662;
},
{
layerId = "0596A6ED-150F-4F1F-BF1E-4449A7B9DE21";
paths = (
{
closed = 1;
nodes = (
"330 -10 QCURVE SMOOTH",
"175 -10 OFFCURVE",
"57 160 OFFCURVE",
"57 525 OFFCURVE",
"177 702 OFFCURVE",
"483 702 OFFCURVE",
"604 526 OFFCURVE",
"604 343 QCURVE SMOOTH",
"604 216 OFFCURVE",
"552 63 OFFCURVE",
"489 26 QCURVE",
"574 -111 LINE",
"502 -145 LINE",
"414 -1 LINE",
"381 -10 OFFCURVE"
);
},
{
closed = 1;
nodes = (
"216 58 OFFCURVE",
"445 58 OFFCURVE",
"524 187 OFFCURVE",
"524 494 OFFCURVE",
"442 634 OFFCURVE",
"217 634 OFFCURVE",
"136 495 OFFCURVE",
"136 191 OFFCURVE"
);
}
);
width = 660;
},
{
layerId = "1FB77202-83CB-408E-8929-4AFC59A3446D";
paths = (
{
closed = 1;
nodes = (
"326 -12 QCURVE SMOOTH",
"170 -12 OFFCURVE",
"44 156 OFFCURVE",
"44 517 OFFCURVE",
"171 692 OFFCURVE",
"481 692 OFFCURVE",
"608 517 OFFCURVE",
"608 336 QCURVE SMOOTH",
"608 114 OFFCURVE",
"503 37 QCURVE",
"586 -97 LINE",
"460 -156 LINE",
"370 -9 LINE",
"360 -12 OFFCURVE"
);
},
{
closed = 1;
nodes = (
"407 108 OFFCURVE",
"466 212 OFFCURVE",
"466 460 OFFCURVE",
"406 572 OFFCURVE",
"246 572 OFFCURVE",
"186 460 OFFCURVE",
"186 212 OFFCURVE",
"245 108 OFFCURVE"
);
}
);
width = 652;
}
);
unicode = 0051;
},
{
glyphname = R;
lastChange = "2017-03-20 20:50:13 +0000";
layers = (
{
layerId = "8FFE84BD-9390-4D75-BABD-68166BF44E93";
paths = (
{
closed = 1;
nodes = (
"149 274 LINE",
"149 0 LINE",
"87 0 LINE",
"87 695 LINE",
"342 695 LINE SMOOTH",
"451 695 OFFCURVE",
"558 596 OFFCURVE",
"558 489 QCURVE SMOOTH",
"558 322 OFFCURVE",
"424 286 QCURVE",
"567 0 LINE",
"498 0 LINE",
"361 274 LINE"
);
},
{
closed = 1;
nodes = (
"494 488 QCURVE SMOOTH",
"494 566 OFFCURVE",
"420 640 OFFCURVE",
"342 640 QCURVE SMOOTH",
"149 640 LINE",
"149 329 LINE",
"342 329 LINE SMOOTH",
"494 329 OFFCURVE"
);
}
);
width = 615;
},
{
layerId = "0596A6ED-150F-4F1F-BF1E-4449A7B9DE21";
paths = (
{
closed = 1;
nodes = (
"162 265 LINE",
"162 0 LINE",
"85 0 LINE",
"85 692 LINE",
"341 692 LINE SMOOTH",
"451 692 OFFCURVE",
"562 590 OFFCURVE",
"562 482 QCURVE SMOOTH",
"562 322 OFFCURVE",
"435 281 QCURVE",
"568 0 LINE",
"483 0 LINE",
"358 265 LINE"
);
},
{
closed = 1;
nodes = (
"342 333 LINE SMOOTH",
"483 333 OFFCURVE",
"483 624 OFFCURVE",
"341 624 QCURVE SMOOTH",
"162 624 LINE",
"162 333 LINE"
);
}
);
width = 616;
},
{
layerId = "1FB77202-83CB-408E-8929-4AFC59A3446D";
paths = (
{
closed = 1;
nodes = (
"212 228 LINE",
"212 0 LINE",
"74 0 LINE",
"74 680 LINE",
"338 680 LINE SMOOTH",
"578 680 OFFCURVE",
"578 456 QCURVE SMOOTH",
"578 323 OFFCURVE",
"478 260 QCURVE",
"575 0 LINE",
"424 0 LINE",
"345 228 LINE"
);
},
{
closed = 1;
nodes = (
"437 406 OFFCURVE",
"437 504 OFFCURVE",
"386 562 OFFCURVE",
"338 562 QCURVE SMOOTH",
"212 562 LINE",
"212 346 LINE",
"340 346 LINE SMOOTH",
"389 346 OFFCURVE"
);
}
);
width = 620;
}
);
unicode = 0052;
},
{
glyphname = Racute;
lastChange = "2017-03-20 20:50:13 +0000";
layers = (
{
layerId = "8FFE84BD-9390-4D75-BABD-68166BF44E93";
paths = (
{
closed = 1;
nodes = (
"149 274 LINE",
"149 0 LINE",
"87 0 LINE",
"87 695 LINE",
"342 695 LINE SMOOTH",
"451 695 OFFCURVE",
"558 596 OFFCURVE",
"558 489 QCURVE SMOOTH",
"558 322 OFFCURVE",
"424 286 QCURVE",
"567 0 LINE",
"498 0 LINE",
"361 274 LINE"
);
},
{
closed = 1;
nodes = (
"494 488 QCURVE SMOOTH",
"494 566 OFFCURVE",
"420 640 OFFCURVE",
"342 640 QCURVE SMOOTH",
"149 640 LINE",
"149 329 LINE",
"342 329 LINE SMOOTH",
"494 329 OFFCURVE"
);
},
{
closed = 1;
nodes = (
"191 829 LINE",
"398 928 LINE",
"420 874 LINE",
"211 786 LINE"
);
}
);
width = 615;
},
{
layerId = "0596A6ED-150F-4F1F-BF1E-4449A7B9DE21";
paths = (
{
closed = 1;
nodes = (
"162 265 LINE",
"162 0 LINE",
"85 0 LINE",
"85 692 LINE",
"341 692 LINE SMOOTH",
"451 692 OFFCURVE",
"562 590 OFFCURVE",
"562 482 QCURVE SMOOTH",
"562 322 OFFCURVE",
"435 281 QCURVE",
"568 0 LINE",
"483 0 LINE",
"358 265 LINE"
);
},
{
closed = 1;
nodes = (
"341 624 QCURVE SMOOTH",
"162 624 LINE",
"162 333 LINE",
"342 333 LINE SMOOTH",
"483 333 OFFCURVE",
"483 624 OFFCURVE"
);
},
{
closed = 1;
nodes = (
"187 831 LINE",
"403 931 LINE",
"429 865 LINE",
"210 778 LINE"
);
}
);
width = 616;
},
{
layerId = "1FB77202-83CB-408E-8929-4AFC59A3446D";
paths = (
{
closed = 1;
nodes = (
"212 228 LINE",
"212 0 LINE",
"74 0 LINE",
"74 680 LINE",
"338 680 LINE SMOOTH",
"578 680 OFFCURVE",
"578 456 QCURVE SMOOTH",
"578 323 OFFCURVE",
"478 260 QCURVE",
"575 0 LINE",
"424 0 LINE",
"345 228 LINE"
);
},
{
closed = 1;
nodes = (
"386 562 OFFCURVE",
"338 562 QCURVE SMOOTH",
"212 562 LINE",
"212 346 LINE",
"340 346 LINE SMOOTH",
"389 346 OFFCURVE",
"437 406 OFFCURVE",
"437 504 OFFCURVE"
);
},
{
closed = 1;
nodes = (
"170 839 LINE",
"422 945 LINE",
"463 825 LINE",
"203 746 LINE"
);
}
);
width = 620;
}
);
unicode = 0154;
},
{
glyphname = Rcaron;
lastChange = "2017-03-20 20:50:13 +0000";
layers = (
{
layerId = "8FFE84BD-9390-4D75-BABD-68166BF44E93";
paths = (
{
closed = 1;
nodes = (
"149 274 LINE",
"149 0 LINE",
"87 0 LINE",
"87 695 LINE",
"342 695 LINE SMOOTH",
"451 695 OFFCURVE",
"558 596 OFFCURVE",
"558 489 QCURVE SMOOTH",
"558 322 OFFCURVE",
"424 286 QCURVE",
"567 0 LINE",
"498 0 LINE",
"361 274 LINE"
);
},
{
closed = 1;
nodes = (
"494 488 QCURVE SMOOTH",
"494 566 OFFCURVE",
"420 640 OFFCURVE",
"342 640 QCURVE SMOOTH",
"149 640 LINE",
"149 329 LINE",
"342 329 LINE SMOOTH",
"494 329 OFFCURVE"
);
},
{
closed = 1;
nodes = (
"274 798 LINE",
"140 929 LINE",
"209 929 LINE",
"300 843 LINE",
"390 929 LINE",
"460 929 LINE",
"326 798 LINE"
);
}
);
width = 615;
},
{
layerId = "0596A6ED-150F-4F1F-BF1E-4449A7B9DE21";
paths = (
{
closed = 1;
nodes = (
"162 265 LINE",
"162 0 LINE",
"85 0 LINE",
"85 692 LINE",
"341 692 LINE SMOOTH",
"451 692 OFFCURVE",
"562 590 OFFCURVE",
"562 482 QCURVE SMOOTH",
"562 322 OFFCURVE",
"435 281 QCURVE",
"568 0 LINE",
"483 0 LINE",
"358 265 LINE"
);
},
{
closed = 1;
nodes = (
"342 333 LINE SMOOTH",
"483 333 OFFCURVE",
"483 624 OFFCURVE",
"341 624 QCURVE SMOOTH",
"162 624 LINE",
"162 333 LINE"
);
},
{
closed = 1;
nodes = (
"268 791 LINE",
"134 926 LINE",
"218 926 LINE",
"301 846 LINE",
"383 926 LINE",
"467 926 LINE",
"333 791 LINE"
);
}
);
width = 616;
},
{
layerId = "1FB77202-83CB-408E-8929-4AFC59A3446D";
paths = (
{
closed = 1;
nodes = (
"212 228 LINE",
"212 0 LINE",
"74 0 LINE",
"74 680 LINE",
"338 680 LINE SMOOTH",
"578 680 OFFCURVE",
"578 456 QCURVE SMOOTH",
"578 323 OFFCURVE",
"478 260 QCURVE",
"575 0 LINE",
"424 0 LINE",
"345 228 LINE"
);
},
{
closed = 1;
nodes = (
"437 406 OFFCURVE",
"437 504 OFFCURVE",
"386 562 OFFCURVE",
"338 562 QCURVE SMOOTH",
"212 562 LINE",
"212 346 LINE",
"340 346 LINE SMOOTH",
"389 346 OFFCURVE"
);
},
{
closed = 1;
nodes = (
"241 765 LINE",
"107 914 LINE",
"249 914 LINE",
"301 858 LINE",
"350 914 LINE",
"492 914 LINE",
"358 765 LINE"
);
}
);
width = 620;
}
);
unicode = 0158;
},
{
glyphname = Rcommaaccent;
lastChange = "2017-03-20 20:50:13 +0000";
layers = (
{
layerId = "8FFE84BD-9390-4D75-BABD-68166BF44E93";
paths = (
{
closed = 1;
nodes = (
"254 -278 LINE",
"293 -78 LINE",
"353 -78 LINE",
"305 -278 LINE"
);
},
{
closed = 1;
nodes = (
"149 274 LINE",
"149 0 LINE",
"87 0 LINE",
"87 695 LINE",
"342 695 LINE SMOOTH",
"451 695 OFFCURVE",
"558 596 OFFCURVE",
"558 489 QCURVE SMOOTH",
"558 322 OFFCURVE",
"424 286 QCURVE",
"567 0 LINE",
"498 0 LINE",
"361 274 LINE"
);
},
{
closed = 1;
nodes = (
"494 488 QCURVE SMOOTH",
"494 566 OFFCURVE",
"420 640 OFFCURVE",
"342 640 QCURVE SMOOTH",
"149 640 LINE",
"149 329 LINE",
"342 329 LINE SMOOTH",
"494 329 OFFCURVE"
);
}
);
width = 615;
},
{
layerId = "0596A6ED-150F-4F1F-BF1E-4449A7B9DE21";
paths = (
{
closed = 1;
nodes = (
"245 -285 LINE",
"286 -78 LINE",
"360 -78 LINE",
"310 -285 LINE"
);
},
{
closed = 1;
nodes = (
"162 265 LINE",
"162 0 LINE",
"85 0 LINE",
"85 692 LINE",
"341 692 LINE SMOOTH",
"451 692 OFFCURVE",
"562 590 OFFCURVE",
"562 482 QCURVE SMOOTH",
"562 322 OFFCURVE",
"435 281 QCURVE",
"568 0 LINE",
"483 0 LINE",
"358 265 LINE"
);
},
{
closed = 1;
nodes = (
"342 333 LINE SMOOTH",
"483 333 OFFCURVE",
"483 624 OFFCURVE",
"341 624 QCURVE SMOOTH",
"162 624 LINE",
"162 333 LINE"
);
}
);
width = 616;
},
{
layerId = "1FB77202-83CB-408E-8929-4AFC59A3446D";
paths = (
{
closed = 1;
nodes = (
"211 -311 LINE",
"257 -77 LINE",
"387 -77 LINE",
"332 -311 LINE"
);
},
{
closed = 1;
nodes = (
"212 228 LINE",
"212 0 LINE",
"74 0 LINE",
"74 680 LINE",
"338 680 LINE SMOOTH",
"578 680 OFFCURVE",
"578 456 QCURVE SMOOTH",
"578 323 OFFCURVE",
"478 260 QCURVE",
"575 0 LINE",
"424 0 LINE",
"345 228 LINE"
);
},
{
closed = 1;
nodes = (
"437 406 OFFCURVE",
"437 504 OFFCURVE",
"386 562 OFFCURVE",
"338 562 QCURVE SMOOTH",
"212 562 LINE",
"212 346 LINE",
"340 346 LINE SMOOTH",
"389 346 OFFCURVE"
);
}
);
width = 620;
}
);
unicode = 0156;
},
{
glyphname = S;
lastChange = "2017-03-20 20:50:13 +0000";
layers = (
{
layerId = "8FFE84BD-9390-4D75-BABD-68166BF44E93";
paths = (
{
closed = 1;
nodes = (
"275 651 QCURVE SMOOTH",
"114 651 OFFCURVE",
"114 528 QCURVE SMOOTH",
"114 456 OFFCURVE",
"187 406 OFFCURVE",
"400 364 OFFCURVE",
"491 290 OFFCURVE",
"491 203 QCURVE SMOOTH",
"491 91 OFFCURVE",
"380 -8 OFFCURVE",
"273 -8 QCURVE SMOOTH",
"195 -8 OFFCURVE",
"92 6 QCURVE SMOOTH",
"56 11 LINE",
"63 64 LINE",
"200 47 OFFCURVE",
"350 47 OFFCURVE",
"428 120 OFFCURVE",
"428 261 OFFCURVE",
"359 312 OFFCURVE",
"208 340 OFFCURVE",
"138 363 OFFCURVE",
"77 406 OFFCURVE",
"51 473 OFFCURVE",
"51 524 QCURVE SMOOTH",
"51 706 OFFCURVE",
"271 706 QCURVE SMOOTH",
"337 706 OFFCURVE",
"443 692 QCURVE",
"476 687 LINE",
"471 634 LINE",
"333 651 OFFCURVE"
);
}
);
width = 541;
},
{
layerId = "0596A6ED-150F-4F1F-BF1E-4449A7B9DE21";
paths = (
{
closed = 1;
nodes = (
"276 635 QCURVE SMOOTH",
"126 635 OFFCURVE",
"126 522 QCURVE SMOOTH",
"126 459 OFFCURVE",
"195 412 OFFCURVE",
"406 365 OFFCURVE",
"494 290 OFFCURVE",
"494 204 QCURVE SMOOTH",
"494 -9 OFFCURVE",
"273 -9 QCURVE SMOOTH",
"200 -9 OFFCURVE",
"90 8 QCURVE",
"54 13 LINE",
"62 77 LINE",
"198 59 OFFCURVE",
"269 59 QCURVE SMOOTH",
"417 59 OFFCURVE",
"417 198 QCURVE SMOOTH",
"417 254 OFFCURVE",
"352 303 OFFCURVE",
"263 320 QCURVE",
"146 345 OFFCURVE",
"48 424 OFFCURVE",
"48 517 QCURVE SMOOTH",
"48 703 OFFCURVE",
"271 703 QCURVE SMOOTH",
"344 703 OFFCURVE",
"446 688 QCURVE SMOOTH",
"480 683 LINE",
"473 618 LINE",
"334 635 OFFCURVE"
);
}
);
width = 542;
},
{
layerId = "1FB77202-83CB-408E-8929-4AFC59A3446D";
paths = (
{
closed = 1;
nodes = (
"283 572 QCURVE SMOOTH",
"174 572 OFFCURVE",
"174 500 QCURVE SMOOTH",
"174 468 OFFCURVE",
"228 434 OFFCURVE",
"427 370 OFFCURVE",
"507 289 OFFCURVE",
"507 205 QCURVE SMOOTH",
"507 98 OFFCURVE",
"377 -12 OFFCURVE",
"272 -12 QCURVE SMOOTH",
"194 -12 OFFCURVE",
"81 12 QCURVE",
"45 19 LINE",
"59 126 LINE",
"193 108 OFFCURVE",
"264 108 QCURVE SMOOTH",
"370 108 OFFCURVE",
"370 196 QCURVE SMOOTH",
"370 228 OFFCURVE",
"321 264 OFFCURVE",
"248 285 QCURVE SMOOTH",
"132 318 OFFCURVE",
"37 409 OFFCURVE",
"37 490 QCURVE SMOOTH",
"37 592 OFFCURVE",
"161 692 OFFCURVE",
"269 692 QCURVE SMOOTH",
"343 692 OFFCURVE",
"457 672 QCURVE",
"493 665 LINE",
"482 556 LINE",
"341 572 OFFCURVE"
);
}
);
width = 544;
}
);
unicode = 0053;
},
{
glyphname = Sacute;
lastChange = "2017-03-20 20:50:13 +0000";
layers = (
{
layerId = "8FFE84BD-9390-4D75-BABD-68166BF44E93";
paths = (
{
closed = 1;
nodes = (
"275 651 QCURVE SMOOTH",
"114 651 OFFCURVE",
"114 528 QCURVE SMOOTH",
"114 456 OFFCURVE",
"187 406 OFFCURVE",
"400 364 OFFCURVE",
"491 290 OFFCURVE",
"491 203 QCURVE SMOOTH",
"491 91 OFFCURVE",
"380 -8 OFFCURVE",
"273 -8 QCURVE SMOOTH",
"195 -8 OFFCURVE",
"92 6 QCURVE SMOOTH",
"56 11 LINE",
"63 64 LINE",
"200 47 OFFCURVE",
"350 47 OFFCURVE",
"428 120 OFFCURVE",
"428 261 OFFCURVE",
"359 312 OFFCURVE",
"208 340 OFFCURVE",
"138 363 OFFCURVE",
"77 406 OFFCURVE",
"51 473 OFFCURVE",
"51 524 QCURVE SMOOTH",
"51 706 OFFCURVE",
"271 706 QCURVE SMOOTH",
"337 706 OFFCURVE",
"443 692 QCURVE",
"476 687 LINE",
"471 634 LINE",
"333 651 OFFCURVE"
);
},
{
closed = 1;
nodes = (
"168 829 LINE",
"375 928 LINE",
"397 874 LINE",
"188 786 LINE"
);
}
);
width = 541;
},
{
layerId = "0596A6ED-150F-4F1F-BF1E-4449A7B9DE21";
paths = (
{
closed = 1;
nodes = (
"276 635 QCURVE SMOOTH",
"126 635 OFFCURVE",
"126 522 QCURVE SMOOTH",
"126 459 OFFCURVE",
"195 412 OFFCURVE",
"406 365 OFFCURVE",
"494 290 OFFCURVE",
"494 204 QCURVE SMOOTH",
"494 -9 OFFCURVE",
"273 -9 QCURVE SMOOTH",
"200 -9 OFFCURVE",
"90 8 QCURVE",
"54 13 LINE",
"62 77 LINE",
"198 59 OFFCURVE",
"269 59 QCURVE SMOOTH",
"417 59 OFFCURVE",
"417 198 QCURVE SMOOTH",
"417 254 OFFCURVE",
"352 303 OFFCURVE",
"263 320 QCURVE",
"146 345 OFFCURVE",
"48 424 OFFCURVE",
"48 517 QCURVE SMOOTH",
"48 703 OFFCURVE",
"271 703 QCURVE SMOOTH",
"344 703 OFFCURVE",
"446 688 QCURVE SMOOTH",
"480 683 LINE",
"473 618 LINE",
"334 635 OFFCURVE"
);
},
{
closed = 1;
nodes = (
"163 831 LINE",
"379 931 LINE",
"405 865 LINE",
"186 778 LINE"
);
}
);
width = 542;
},
{
layerId = "1FB77202-83CB-408E-8929-4AFC59A3446D";
paths = (
{
closed = 1;
nodes = (
"283 572 QCURVE SMOOTH",
"174 572 OFFCURVE",
"174 500 QCURVE SMOOTH",
"174 468 OFFCURVE",
"228 434 OFFCURVE",
"427 370 OFFCURVE",
"507 289 OFFCURVE",
"507 205 QCURVE SMOOTH",
"507 98 OFFCURVE",
"377 -12 OFFCURVE",
"272 -12 QCURVE SMOOTH",
"194 -12 OFFCURVE",
"81 12 QCURVE",
"45 19 LINE",
"59 126 LINE",
"193 108 OFFCURVE",
"264 108 QCURVE SMOOTH",
"370 108 OFFCURVE",
"370 196 QCURVE SMOOTH",
"370 228 OFFCURVE",
"321 264 OFFCURVE",
"248 285 QCURVE SMOOTH",
"132 318 OFFCURVE",
"37 409 OFFCURVE",
"37 490 QCURVE SMOOTH",
"37 592 OFFCURVE",
"161 692 OFFCURVE",
"269 692 QCURVE SMOOTH",
"343 692 OFFCURVE",
"457 672 QCURVE",
"493 665 LINE",
"482 556 LINE",
"341 572 OFFCURVE"
);
},
{
closed = 1;
nodes = (
"144 839 LINE",
"396 945 LINE",
"437 825 LINE",
"177 746 LINE"
);
}
);
width = 544;
}
);
unicode = 015A;
},
{
glyphname = Scaron;
lastChange = "2017-03-20 20:50:13 +0000";
layers = (
{
layerId = "8FFE84BD-9390-4D75-BABD-68166BF44E93";
paths = (
{
closed = 1;
nodes = (
"275 651 QCURVE SMOOTH",
"114 651 OFFCURVE",
"114 528 QCURVE SMOOTH",
"114 456 OFFCURVE",
"187 406 OFFCURVE",
"400 364 OFFCURVE",
"491 290 OFFCURVE",
"491 203 QCURVE SMOOTH",
"491 91 OFFCURVE",
"380 -8 OFFCURVE",
"273 -8 QCURVE SMOOTH",
"195 -8 OFFCURVE",
"92 6 QCURVE SMOOTH",
"56 11 LINE",
"63 64 LINE",
"200 47 OFFCURVE",
"350 47 OFFCURVE",
"428 120 OFFCURVE",
"428 261 OFFCURVE",
"359 312 OFFCURVE",
"208 340 OFFCURVE",
"138 363 OFFCURVE",
"77 406 OFFCURVE",
"51 473 OFFCURVE",
"51 524 QCURVE SMOOTH",
"51 706 OFFCURVE",
"271 706 QCURVE SMOOTH",
"337 706 OFFCURVE",
"443 692 QCURVE",
"476 687 LINE",
"471 634 LINE",
"333 651 OFFCURVE"
);
},
{
closed = 1;
nodes = (
"253 798 LINE",
"119 929 LINE",
"188 929 LINE",
"279 843 LINE",
"369 929 LINE",
"439 929 LINE",
"305 798 LINE"
);
}
);
width = 541;
},
{
layerId = "0596A6ED-150F-4F1F-BF1E-4449A7B9DE21";
paths = (
{
closed = 1;
nodes = (
"276 635 QCURVE SMOOTH",
"126 635 OFFCURVE",
"126 522 QCURVE SMOOTH",
"126 459 OFFCURVE",
"195 412 OFFCURVE",
"406 365 OFFCURVE",
"494 290 OFFCURVE",
"494 204 QCURVE SMOOTH",
"494 -9 OFFCURVE",
"273 -9 QCURVE SMOOTH",
"200 -9 OFFCURVE",
"90 8 QCURVE",
"54 13 LINE",
"62 77 LINE",
"198 59 OFFCURVE",
"269 59 QCURVE SMOOTH",
"417 59 OFFCURVE",
"417 198 QCURVE SMOOTH",
"417 254 OFFCURVE",
"352 303 OFFCURVE",
"263 320 QCURVE",
"146 345 OFFCURVE",
"48 424 OFFCURVE",
"48 517 QCURVE SMOOTH",
"48 703 OFFCURVE",
"271 703 QCURVE SMOOTH",
"344 703 OFFCURVE",
"446 688 QCURVE SMOOTH",
"480 683 LINE",
"473 618 LINE",
"334 635 OFFCURVE"
);
},
{
closed = 1;
nodes = (
"250 791 LINE",
"116 926 LINE",
"200 926 LINE",
"283 846 LINE",
"365 926 LINE",
"449 926 LINE",
"315 791 LINE"
);
}
);
width = 542;
},
{
layerId = "1FB77202-83CB-408E-8929-4AFC59A3446D";
paths = (
{
closed = 1;
nodes = (
"283 572 QCURVE SMOOTH",
"174 572 OFFCURVE",
"174 500 QCURVE SMOOTH",
"174 468 OFFCURVE",
"228 434 OFFCURVE",
"427 370 OFFCURVE",
"507 289 OFFCURVE",
"507 205 QCURVE SMOOTH",
"507 98 OFFCURVE",
"377 -12 OFFCURVE",
"272 -12 QCURVE SMOOTH",
"194 -12 OFFCURVE",
"81 12 QCURVE",
"45 19 LINE",
"59 126 LINE",
"193 108 OFFCURVE",
"264 108 QCURVE SMOOTH",
"370 108 OFFCURVE",
"370 196 QCURVE SMOOTH",
"370 228 OFFCURVE",
"321 264 OFFCURVE",
"248 285 QCURVE SMOOTH",
"132 318 OFFCURVE",
"37 409 OFFCURVE",
"37 490 QCURVE SMOOTH",
"37 592 OFFCURVE",
"161 692 OFFCURVE",
"269 692 QCURVE SMOOTH",
"343 692 OFFCURVE",
"457 672 QCURVE",
"493 665 LINE",
"482 556 LINE",
"341 572 OFFCURVE"
);
},
{
closed = 1;
nodes = (
"235 765 LINE",
"101 914 LINE",
"243 914 LINE",
"295 858 LINE",
"344 914 LINE",
"486 914 LINE",
"352 765 LINE"
);
}
);
width = 544;
}
);
unicode = 0160;
},
{
glyphname = Scedilla;
lastChange = "2017-03-20 20:50:13 +0000";
layers = (
{
layerId = "8FFE84BD-9390-4D75-BABD-68166BF44E93";
paths = (
{
closed = 1;
nodes = (
"404 -127 QCURVE SMOOTH",
"404 -211 OFFCURVE",
"315 -211 QCURVE",
"231 -205 LINE",
"233 -165 LINE",
"274 -168 OFFCURVE",
"304 -168 QCURVE SMOOTH",
"349 -168 OFFCURVE",
"349 -127 QCURVE SMOOTH",
"349 -90 OFFCURVE",
"304 -90 QCURVE SMOOTH",
"257 -90 LINE",
"257 -8 LINE",
"177 -6 OFFCURVE",
"88 6 QCURVE",
"56 11 LINE",
"63 64 LINE",
"200 47 OFFCURVE",
"350 47 OFFCURVE",
"428 120 OFFCURVE",
"428 261 OFFCURVE",
"359 312 OFFCURVE",
"208 340 OFFCURVE",
"138 363 OFFCURVE",
"77 406 OFFCURVE",
"51 473 OFFCURVE",
"51 524 QCURVE SMOOTH",
"51 706 OFFCURVE",
"271 706 QCURVE SMOOTH",
"337 706 OFFCURVE",
"443 692 QCURVE",
"476 687 LINE",
"471 634 LINE",
"333 651 OFFCURVE",
"275 651 QCURVE SMOOTH",
"114 651 OFFCURVE",
"114 528 QCURVE SMOOTH",
"114 456 OFFCURVE",
"187 406 OFFCURVE",
"400 364 OFFCURVE",
"491 290 OFFCURVE",
"491 194 QCURVE SMOOTH",
"491 3 OFFCURVE",
"295 -7 QCURVE",
"295 -52 LINE",
"353 -52 OFFCURVE",
"404 -83 OFFCURVE"
);
}
);
width = 541;
},
{
layerId = "0596A6ED-150F-4F1F-BF1E-4449A7B9DE21";
paths = (
{
closed = 1;
nodes = (
"410 -127 QCURVE SMOOTH",
"410 -217 OFFCURVE",
"317 -217 QCURVE SMOOTH",
"271 -217 OFFCURVE",
"242 -212 QCURVE SMOOTH",
"231 -210 LINE",
"234 -162 LINE",
"273 -165 OFFCURVE",
"300 -165 QCURVE SMOOTH",
"344 -165 OFFCURVE",
"344 -127 QCURVE SMOOTH",
"344 -93 OFFCURVE",
"300 -93 QCURVE SMOOTH",
"258 -93 LINE",
"258 -9 LINE",
"184 -7 OFFCURVE",
"86 8 QCURVE SMOOTH",
"54 13 LINE",
"62 77 LINE",
"198 59 OFFCURVE",
"269 59 QCURVE SMOOTH",
"417 59 OFFCURVE",
"417 198 QCURVE SMOOTH",
"417 254 OFFCURVE",
"352 303 OFFCURVE",
"263 320 QCURVE",
"146 345 OFFCURVE",
"48 424 OFFCURVE",
"48 517 QCURVE SMOOTH",
"48 703 OFFCURVE",
"271 703 QCURVE SMOOTH",
"344 703 OFFCURVE",
"446 688 QCURVE SMOOTH",
"480 683 LINE",
"473 618 LINE",
"334 635 OFFCURVE",
"276 635 QCURVE SMOOTH",
"126 635 OFFCURVE",
"126 522 QCURVE SMOOTH",
"126 459 OFFCURVE",
"195 412 OFFCURVE",
"406 365 OFFCURVE",
"494 290 OFFCURVE",
"494 204 QCURVE SMOOTH",
"494 5 OFFCURVE",
"299 -8 QCURVE",
"299 -49 LINE",
"358 -49 OFFCURVE",
"410 -81 OFFCURVE"
);
}
);
width = 542;
},
{
layerId = "1FB77202-83CB-408E-8929-4AFC59A3446D";
paths = (
{
closed = 1;
nodes = (
"434 -74 OFFCURVE",
"434 -184 OFFCURVE",
"376 -241 OFFCURVE",
"323 -241 QCURVE SMOOTH",
"279 -241 OFFCURVE",
"244 -233 QCURVE SMOOTH",
"230 -230 LINE",
"234 -152 LINE",
"265 -153 OFFCURVE",
"282 -153 QCURVE SMOOTH",
"320 -153 OFFCURVE",
"320 -127 QCURVE SMOOTH",
"320 -105 OFFCURVE",
"282 -105 QCURVE SMOOTH",
"258 -105 LINE",
"258 -12 LINE",
"182 -10 OFFCURVE",
"78 12 QCURVE SMOOTH",
"45 19 LINE",
"59 126 LINE",
"193 108 OFFCURVE",
"264 108 QCURVE SMOOTH",
"370 108 OFFCURVE",
"370 196 QCURVE SMOOTH",
"370 228 OFFCURVE",
"321 264 OFFCURVE",
"248 285 QCURVE SMOOTH",
"132 318 OFFCURVE",
"37 409 OFFCURVE",
"37 490 QCURVE SMOOTH",
"37 592 OFFCURVE",
"161 692 OFFCURVE",
"269 692 QCURVE SMOOTH",
"343 692 OFFCURVE",
"457 672 QCURVE",
"493 665 LINE",
"482 556 LINE",
"341 572 OFFCURVE",
"283 572 QCURVE SMOOTH",
"174 572 OFFCURVE",
"174 500 QCURVE SMOOTH",
"174 468 OFFCURVE",
"228 434 OFFCURVE",
"427 370 OFFCURVE",
"507 289 OFFCURVE",
"507 109 OFFCURVE",
"400 -1 OFFCURVE",
"311 -10 QCURVE",
"311 -37 LINE",
"375 -38 OFFCURVE"
);
}
);
width = 544;
}
);
unicode = 015E;
},
{
glyphname = Scircumflex;
lastChange = "2017-03-20 20:50:13 +0000";
layers = (
{
layerId = "8FFE84BD-9390-4D75-BABD-68166BF44E93";
paths = (
{
closed = 1;
nodes = (
"275 651 QCURVE SMOOTH",
"114 651 OFFCURVE",
"114 528 QCURVE SMOOTH",
"114 456 OFFCURVE",
"187 406 OFFCURVE",
"400 364 OFFCURVE",
"491 290 OFFCURVE",
"491 203 QCURVE SMOOTH",
"491 91 OFFCURVE",
"380 -8 OFFCURVE",
"273 -8 QCURVE SMOOTH",
"195 -8 OFFCURVE",
"92 6 QCURVE SMOOTH",
"56 11 LINE",
"63 64 LINE",
"200 47 OFFCURVE",
"350 47 OFFCURVE",
"428 120 OFFCURVE",
"428 261 OFFCURVE",
"359 312 OFFCURVE",
"208 340 OFFCURVE",
"138 363 OFFCURVE",
"77 406 OFFCURVE",
"51 473 OFFCURVE",
"51 524 QCURVE SMOOTH",
"51 706 OFFCURVE",
"271 706 QCURVE SMOOTH",
"337 706 OFFCURVE",
"443 692 QCURVE",
"476 687 LINE",
"471 634 LINE",
"333 651 OFFCURVE"
);
},
{
closed = 1;
nodes = (
"113 794 LINE",
"247 925 LINE",
"299 925 LINE",
"433 794 LINE",
"364 794 LINE",
"274 880 LINE",
"183 794 LINE"
);
}
);
width = 541;
},
{
layerId = "0596A6ED-150F-4F1F-BF1E-4449A7B9DE21";
paths = (
{
closed = 1;
nodes = (
"276 635 QCURVE SMOOTH",
"126 635 OFFCURVE",
"126 522 QCURVE SMOOTH",
"126 459 OFFCURVE",
"195 412 OFFCURVE",
"406 365 OFFCURVE",
"494 290 OFFCURVE",
"494 204 QCURVE SMOOTH",
"494 -9 OFFCURVE",
"273 -9 QCURVE SMOOTH",
"200 -9 OFFCURVE",
"90 8 QCURVE",
"54 13 LINE",
"62 77 LINE",
"198 59 OFFCURVE",
"269 59 QCURVE SMOOTH",
"417 59 OFFCURVE",
"417 198 QCURVE SMOOTH",
"417 254 OFFCURVE",
"352 303 OFFCURVE",
"263 320 QCURVE",
"146 345 OFFCURVE",
"48 424 OFFCURVE",
"48 517 QCURVE SMOOTH",
"48 703 OFFCURVE",
"271 703 QCURVE SMOOTH",
"344 703 OFFCURVE",
"446 688 QCURVE SMOOTH",
"480 683 LINE",
"473 618 LINE",
"334 635 OFFCURVE"
);
},
{
closed = 1;
nodes = (
"108 788 LINE",
"242 923 LINE",
"307 923 LINE",
"441 788 LINE",
"357 788 LINE",
"275 868 LINE",
"192 788 LINE"
);
}
);
width = 542;
},
{
layerId = "1FB77202-83CB-408E-8929-4AFC59A3446D";
paths = (
{
closed = 1;
nodes = (
"283 572 QCURVE SMOOTH",
"174 572 OFFCURVE",
"174 500 QCURVE SMOOTH",
"174 468 OFFCURVE",
"228 434 OFFCURVE",
"427 370 OFFCURVE",
"507 289 OFFCURVE",
"507 205 QCURVE SMOOTH",
"507 98 OFFCURVE",
"377 -12 OFFCURVE",
"272 -12 QCURVE SMOOTH",
"194 -12 OFFCURVE",
"81 12 QCURVE",
"45 19 LINE",
"59 126 LINE",
"193 108 OFFCURVE",
"264 108 QCURVE SMOOTH",
"370 108 OFFCURVE",
"370 196 QCURVE SMOOTH",
"370 228 OFFCURVE",
"321 264 OFFCURVE",
"248 285 QCURVE SMOOTH",
"132 318 OFFCURVE",
"37 409 OFFCURVE",
"37 490 QCURVE SMOOTH",
"37 592 OFFCURVE",
"161 692 OFFCURVE",
"269 692 QCURVE SMOOTH",
"343 692 OFFCURVE",
"457 672 QCURVE",
"493 665 LINE",
"482 556 LINE",
"341 572 OFFCURVE"
);
},
{
closed = 1;
nodes = (
"84 765 LINE",
"218 914 LINE",
"335 914 LINE",
"469 765 LINE",
"327 765 LINE",
"278 821 LINE",
"226 765 LINE"
);
}
);
width = 544;
}
);
unicode = 015C;
},
{
glyphname = Scommaaccent;
lastChange = "2017-03-20 20:50:13 +0000";
layers = (
{
layerId = "8FFE84BD-9390-4D75-BABD-68166BF44E93";
paths = (
{
closed = 1;
nodes = (
"258 -78 LINE",
"318 -78 LINE",
"270 -278 LINE",
"218 -278 LINE"
);
},
{
closed = 1;
nodes = (
"275 651 QCURVE SMOOTH",
"114 651 OFFCURVE",
"114 528 QCURVE SMOOTH",
"114 456 OFFCURVE",
"187 406 OFFCURVE",
"400 364 OFFCURVE",
"491 290 OFFCURVE",
"491 203 QCURVE SMOOTH",
"491 91 OFFCURVE",
"380 -8 OFFCURVE",
"273 -8 QCURVE SMOOTH",
"195 -8 OFFCURVE",
"92 6 QCURVE SMOOTH",
"56 11 LINE",
"63 64 LINE",
"200 47 OFFCURVE",
"350 47 OFFCURVE",
"428 120 OFFCURVE",
"428 261 OFFCURVE",
"359 312 OFFCURVE",
"208 340 OFFCURVE",
"138 363 OFFCURVE",
"77 406 OFFCURVE",
"51 473 OFFCURVE",
"51 524 QCURVE SMOOTH",
"51 706 OFFCURVE",
"271 706 QCURVE SMOOTH",
"337 706 OFFCURVE",
"443 692 QCURVE",
"476 687 LINE",
"471 634 LINE",
"333 651 OFFCURVE"
);
}
);
width = 541;
},
{
layerId = "0596A6ED-150F-4F1F-BF1E-4449A7B9DE21";
paths = (
{
closed = 1;
nodes = (
"249 -78 LINE",
"323 -78 LINE",
"274 -285 LINE",
"209 -285 LINE"
);
},
{
closed = 1;
nodes = (
"276 635 QCURVE SMOOTH",
"126 635 OFFCURVE",
"126 522 QCURVE SMOOTH",
"126 459 OFFCURVE",
"195 412 OFFCURVE",
"406 365 OFFCURVE",
"494 290 OFFCURVE",
"494 204 QCURVE SMOOTH",
"494 -9 OFFCURVE",
"273 -9 QCURVE SMOOTH",
"200 -9 OFFCURVE",
"90 8 QCURVE",
"54 13 LINE",
"62 77 LINE",
"198 59 OFFCURVE",
"269 59 QCURVE SMOOTH",
"417 59 OFFCURVE",
"417 198 QCURVE SMOOTH",
"417 254 OFFCURVE",
"352 303 OFFCURVE",
"263 320 QCURVE",
"146 345 OFFCURVE",
"48 424 OFFCURVE",
"48 517 QCURVE SMOOTH",
"48 703 OFFCURVE",
"271 703 QCURVE SMOOTH",
"344 703 OFFCURVE",
"446 688 QCURVE SMOOTH",
"480 683 LINE",
"473 618 LINE",
"334 635 OFFCURVE"
);
}
);
width = 542;
},
{
layerId = "1FB77202-83CB-408E-8929-4AFC59A3446D";
paths = (
{
closed = 1;
nodes = (
"215 -77 LINE",
"345 -77 LINE",
"290 -311 LINE",
"169 -311 LINE"
);
},
{
closed = 1;
nodes = (
"283 572 QCURVE SMOOTH",
"174 572 OFFCURVE",
"174 500 QCURVE SMOOTH",
"174 468 OFFCURVE",
"228 434 OFFCURVE",
"427 370 OFFCURVE",
"507 289 OFFCURVE",
"507 205 QCURVE SMOOTH",
"507 98 OFFCURVE",
"377 -12 OFFCURVE",
"272 -12 QCURVE SMOOTH",
"194 -12 OFFCURVE",
"81 12 QCURVE",
"45 19 LINE",
"59 126 LINE",
"193 108 OFFCURVE",
"264 108 QCURVE SMOOTH",
"370 108 OFFCURVE",
"370 196 QCURVE SMOOTH",
"370 228 OFFCURVE",
"321 264 OFFCURVE",
"248 285 QCURVE SMOOTH",
"132 318 OFFCURVE",
"37 409 OFFCURVE",
"37 490 QCURVE SMOOTH",
"37 592 OFFCURVE",
"161 692 OFFCURVE",
"269 692 QCURVE SMOOTH",
"343 692 OFFCURVE",
"457 672 QCURVE",
"493 665 LINE",
"482 556 LINE",
"341 572 OFFCURVE"
);
}
);
width = 544;
}
);
unicode = 0218;
},
{
glyphname = T;
lastChange = "2017-03-20 20:50:13 +0000";
layers = (
{
layerId = "8FFE84BD-9390-4D75-BABD-68166BF44E93";
paths = (
{
closed = 1;
nodes = (
"13 639 LINE",
"13 695 LINE",
"513 695 LINE",
"513 639 LINE",
"295 639 LINE",
"295 0 LINE",
"233 0 LINE",
"233 639 LINE"
);
}
);
width = 526;
},
{
layerId = "0596A6ED-150F-4F1F-BF1E-4449A7B9DE21";
paths = (
{
closed = 1;
nodes = (
"13 623 LINE",
"13 692 LINE",
"513 692 LINE",
"513 623 LINE",
"302 623 LINE",
"302 0 LINE",
"226 0 LINE",
"226 623 LINE"
);
}
);
width = 526;
},
{
layerId = "1FB77202-83CB-408E-8929-4AFC59A3446D";
paths = (
{
closed = 1;
nodes = (
"13 558 LINE",
"13 680 LINE",
"513 680 LINE",
"513 558 LINE",
"333 558 LINE",
"333 0 LINE",
"195 0 LINE",
"195 558 LINE"
);
}
);
width = 526;
}
);
unicode = 0054;
},
{
glyphname = Tbar;
lastChange = "2017-03-20 20:50:13 +0000";
layers = (
{
layerId = "8FFE84BD-9390-4D75-BABD-68166BF44E93";
paths = (
{
closed = 1;
nodes = (
"15 639 LINE",
"15 695 LINE",
"515 695 LINE",
"515 639 LINE",
"297 639 LINE",
"297 365 LINE",
"467 365 LINE",
"467 312 LINE",
"297 312 LINE",
"297 0 LINE",
"235 0 LINE",
"235 312 LINE",
"65 312 LINE",
"65 365 LINE",
"235 365 LINE",
"235 639 LINE"
);
}
);
width = 529;
},
{
layerId = "0596A6ED-150F-4F1F-BF1E-4449A7B9DE21";
paths = (
{
closed = 1;
nodes = (
"15 623 LINE",
"15 692 LINE",
"515 692 LINE",
"515 623 LINE",
"304 623 LINE",
"304 366 LINE",
"468 366 LINE",
"468 300 LINE",
"304 300 LINE",
"304 0 LINE",
"228 0 LINE",
"228 300 LINE",
"65 300 LINE",
"65 366 LINE",
"228 366 LINE",
"228 623 LINE"
);
}
);
width = 529;
},
{
layerId = "1FB77202-83CB-408E-8929-4AFC59A3446D";
paths = (
{
closed = 1;
nodes = (
"14 558 LINE",
"14 680 LINE",
"514 680 LINE",
"514 558 LINE",
"334 558 LINE",
"334 369 LINE",
"473 369 LINE",
"473 253 LINE",
"334 253 LINE",
"334 0 LINE",
"196 0 LINE",
"196 253 LINE",
"64 253 LINE",
"64 369 LINE",
"196 369 LINE",
"196 558 LINE"
);
}
);
width = 528;
}
);
unicode = 0166;
},
{
glyphname = Tcaron;
lastChange = "2017-03-20 20:50:13 +0000";
layers = (
{
layerId = "8FFE84BD-9390-4D75-BABD-68166BF44E93";
paths = (
{
closed = 1;
nodes = (
"13 639 LINE",
"13 695 LINE",
"513 695 LINE",
"513 639 LINE",
"295 639 LINE",
"295 0 LINE",
"233 0 LINE",
"233 639 LINE"
);
},
{
closed = 1;
nodes = (
"238 798 LINE",
"104 929 LINE",
"173 929 LINE",
"264 843 LINE",
"354 929 LINE",
"424 929 LINE",
"290 798 LINE"
);
}
);
width = 526;
},
{
layerId = "0596A6ED-150F-4F1F-BF1E-4449A7B9DE21";
paths = (
{
closed = 1;
nodes = (
"13 623 LINE",
"13 692 LINE",
"513 692 LINE",
"513 623 LINE",
"302 623 LINE",
"302 0 LINE",
"226 0 LINE",
"226 623 LINE"
);
},
{
closed = 1;
nodes = (
"231 791 LINE",
"97 926 LINE",
"181 926 LINE",
"264 846 LINE",
"346 926 LINE",
"430 926 LINE",
"296 791 LINE"
);
}
);
width = 526;
},
{
layerId = "1FB77202-83CB-408E-8929-4AFC59A3446D";
paths = (
{
closed = 1;
nodes = (
"13 558 LINE",
"13 680 LINE",
"513 680 LINE",
"513 558 LINE",
"333 558 LINE",
"333 0 LINE",
"195 0 LINE",
"195 558 LINE"
);
},
{
closed = 1;
nodes = (
"206 765 LINE",
"72 914 LINE",
"214 914 LINE",
"266 858 LINE",
"315 914 LINE",
"457 914 LINE",
"323 765 LINE"
);
}
);
width = 526;
}
);
unicode = 0164;
},
{
glyphname = Tcommaaccent;
lastChange = "2017-03-20 20:50:13 +0000";
layers = (
{
layerId = "8FFE84BD-9390-4D75-BABD-68166BF44E93";
paths = (
{
closed = 1;
nodes = (
"252 -78 LINE",
"312 -78 LINE",
"264 -278 LINE",
"213 -278 LINE"
);
},
{
closed = 1;
nodes = (
"13 639 LINE",
"13 695 LINE",
"513 695 LINE",
"513 639 LINE",
"295 639 LINE",
"295 0 LINE",
"233 0 LINE",
"233 639 LINE"
);
}
);
width = 526;
},
{
layerId = "0596A6ED-150F-4F1F-BF1E-4449A7B9DE21";
paths = (
{
closed = 1;
nodes = (
"246 -78 LINE",
"321 -78 LINE",
"271 -285 LINE",
"206 -285 LINE"
);
},
{
closed = 1;
nodes = (
"13 623 LINE",
"13 692 LINE",
"513 692 LINE",
"513 623 LINE",
"302 623 LINE",
"302 0 LINE",
"226 0 LINE",
"226 623 LINE"
);
}
);
width = 526;
},
{
layerId = "1FB77202-83CB-408E-8929-4AFC59A3446D";
paths = (
{
closed = 1;
nodes = (
"223 -77 LINE",
"353 -77 LINE",
"298 -311 LINE",
"177 -311 LINE"
);
},
{
closed = 1;
nodes = (
"13 558 LINE",
"13 680 LINE",
"513 680 LINE",
"513 558 LINE",
"333 558 LINE",
"333 0 LINE",
"195 0 LINE",
"195 558 LINE"
);
}
);
width = 526;
}
);
unicode = 021A;
},
{
glyphname = U;
lastChange = "2017-03-20 20:50:13 +0000";
layers = (
{
layerId = "8FFE84BD-9390-4D75-BABD-68166BF44E93";
paths = (
{
closed = 1;
nodes = (
"144 204 LINE SMOOTH",
"144 46 OFFCURVE",
"317 46 QCURVE SMOOTH",
"407 46 OFFCURVE",
"497 120 OFFCURVE",
"497 204 QCURVE SMOOTH",
"497 695 LINE",
"559 695 LINE",
"559 204 LINE SMOOTH",
"559 91 OFFCURVE",
"437 -10 OFFCURVE",
"202 -10 OFFCURVE",
"83 91 OFFCURVE",
"83 204 QCURVE SMOOTH",
"83 695 LINE",
"144 695 LINE"
);
}
);
width = 642;
},
{
layerId = "0596A6ED-150F-4F1F-BF1E-4449A7B9DE21";
paths = (
{
closed = 1;
nodes = (
"157 208 LINE SMOOTH",
"157 58 OFFCURVE",
"319 58 QCURVE SMOOTH",
"403 58 OFFCURVE",
"488 129 OFFCURVE",
"488 208 QCURVE SMOOTH",
"488 692 LINE",
"564 692 LINE",
"564 210 LINE SMOOTH",
"564 94 OFFCURVE",
"441 -10 OFFCURVE",
"201 -10 OFFCURVE",
"80 94 OFFCURVE",
"80 210 QCURVE SMOOTH",
"80 692 LINE",
"157 692 LINE"
);
}
);
width = 644;
},
{
layerId = "1FB77202-83CB-408E-8929-4AFC59A3446D";
paths = (
{
closed = 1;
nodes = (
"206 227 LINE SMOOTH",
"206 108 OFFCURVE",
"448 108 OFFCURVE",
"448 227 QCURVE SMOOTH",
"448 680 LINE",
"586 680 LINE",
"586 230 LINE SMOOTH",
"586 105 OFFCURVE",
"457 -12 OFFCURVE",
"197 -12 OFFCURVE",
"68 105 OFFCURVE",
"68 230 QCURVE SMOOTH",
"68 680 LINE",
"206 680 LINE"
);
}
);
width = 654;
}
);
unicode = 0055;
},
{
glyphname = Uacute;
lastChange = "2017-03-20 20:50:13 +0000";
layers = (
{
layerId = "8FFE84BD-9390-4D75-BABD-68166BF44E93";
paths = (
{
closed = 1;
nodes = (
"144 204 LINE SMOOTH",
"144 46 OFFCURVE",
"317 46 QCURVE SMOOTH",
"407 46 OFFCURVE",
"497 120 OFFCURVE",
"497 204 QCURVE SMOOTH",
"497 695 LINE",
"559 695 LINE",
"559 204 LINE SMOOTH",
"559 91 OFFCURVE",
"437 -10 OFFCURVE",
"202 -10 OFFCURVE",
"83 91 OFFCURVE",
"83 204 QCURVE SMOOTH",
"83 695 LINE",
"144 695 LINE"
);
},
{
closed = 1;
nodes = (
"205 829 LINE",
"412 928 LINE",
"434 874 LINE",
"225 786 LINE"
);
}
);
width = 642;
},
{
layerId = "0596A6ED-150F-4F1F-BF1E-4449A7B9DE21";
paths = (
{
closed = 1;
nodes = (
"157 208 LINE SMOOTH",
"157 58 OFFCURVE",
"319 58 QCURVE SMOOTH",
"403 58 OFFCURVE",
"488 129 OFFCURVE",
"488 208 QCURVE SMOOTH",
"488 692 LINE",
"564 692 LINE",
"564 210 LINE SMOOTH",
"564 94 OFFCURVE",
"441 -10 OFFCURVE",
"201 -10 OFFCURVE",
"80 94 OFFCURVE",
"80 210 QCURVE SMOOTH",
"80 692 LINE",
"157 692 LINE"
);
},
{
closed = 1;
nodes = (
"199 831 LINE",
"415 931 LINE",
"441 865 LINE",
"222 778 LINE"
);
}
);
width = 644;
},
{
layerId = "1FB77202-83CB-408E-8929-4AFC59A3446D";
paths = (
{
closed = 1;
nodes = (
"206 227 LINE SMOOTH",
"206 108 OFFCURVE",
"448 108 OFFCURVE",
"448 227 QCURVE SMOOTH",
"448 680 LINE",
"586 680 LINE",
"586 230 LINE SMOOTH",
"586 105 OFFCURVE",
"457 -12 OFFCURVE",
"197 -12 OFFCURVE",
"68 105 OFFCURVE",
"68 230 QCURVE SMOOTH",
"68 680 LINE",
"206 680 LINE"
);
},
{
closed = 1;
nodes = (
"175 839 LINE",
"427 945 LINE",
"468 825 LINE",
"208 746 LINE"
);
}
);
width = 654;
}
);
unicode = 00DA;
},
{
glyphname = Ubreve;
lastChange = "2017-03-20 20:50:13 +0000";
layers = (
{
layerId = "8FFE84BD-9390-4D75-BABD-68166BF44E93";
paths = (
{
closed = 1;
nodes = (
"144 204 LINE SMOOTH",
"144 46 OFFCURVE",
"317 46 QCURVE SMOOTH",
"407 46 OFFCURVE",
"497 120 OFFCURVE",
"497 204 QCURVE SMOOTH",
"497 695 LINE",
"559 695 LINE",
"559 204 LINE SMOOTH",
"559 91 OFFCURVE",
"437 -10 OFFCURVE",
"202 -10 OFFCURVE",
"83 91 OFFCURVE",
"83 204 QCURVE SMOOTH",
"83 695 LINE",
"144 695 LINE"
);
},
{
closed = 1;
nodes = (
"361 841 OFFCURVE",
"415 884 OFFCURVE",
"416 920 QCURVE",
"472 920 LINE",
"471 863 OFFCURVE",
"387 793 OFFCURVE",
"257 793 OFFCURVE",
"174 863 OFFCURVE",
"172 920 QCURVE",
"229 920 LINE",
"230 884 OFFCURVE",
"283 841 OFFCURVE"
);
}
);
width = 642;
},
{
layerId = "0596A6ED-150F-4F1F-BF1E-4449A7B9DE21";
paths = (
{
closed = 1;
nodes = (
"157 208 LINE SMOOTH",
"157 58 OFFCURVE",
"319 58 QCURVE SMOOTH",
"403 58 OFFCURVE",
"488 129 OFFCURVE",
"488 208 QCURVE SMOOTH",
"488 692 LINE",
"564 692 LINE",
"564 210 LINE SMOOTH",
"564 94 OFFCURVE",
"441 -10 OFFCURVE",
"201 -10 OFFCURVE",
"80 94 OFFCURVE",
"80 210 QCURVE SMOOTH",
"80 692 LINE",
"157 692 LINE"
);
},
{
closed = 1;
nodes = (
"288 843 OFFCURVE",
"361 843 OFFCURVE",
"411 885 OFFCURVE",
"412 918 QCURVE",
"482 918 LINE",
"479 859 OFFCURVE",
"393 787 OFFCURVE",
"255 787 OFFCURVE",
"170 859 OFFCURVE",
"167 918 QCURVE",
"236 918 LINE",
"237 885 OFFCURVE"
);
}
);
width = 644;
},
{
layerId = "1FB77202-83CB-408E-8929-4AFC59A3446D";
paths = (
{
closed = 1;
nodes = (
"206 227 LINE SMOOTH",
"206 108 OFFCURVE",
"448 108 OFFCURVE",
"448 227 QCURVE SMOOTH",
"448 680 LINE",
"586 680 LINE",
"586 230 LINE SMOOTH",
"586 105 OFFCURVE",
"457 -12 OFFCURVE",
"197 -12 OFFCURVE",
"68 105 OFFCURVE",
"68 230 QCURVE SMOOTH",
"68 680 LINE",
"206 680 LINE"
);
},
{
closed = 1;
nodes = (
"304 853 OFFCURVE",
"359 853 OFFCURVE",
"394 885 OFFCURVE",
"397 910 QCURVE",
"518 910 LINE",
"510 842 OFFCURVE",
"417 759 OFFCURVE",
"245 759 OFFCURVE",
"153 842 OFFCURVE",
"145 910 QCURVE",
"266 910 LINE",
"270 885 OFFCURVE"
);
}
);
width = 654;
}
);
unicode = 016C;
},
{
glyphname = Ucircumflex;
lastChange = "2017-03-20 20:50:13 +0000";
layers = (
{
layerId = "8FFE84BD-9390-4D75-BABD-68166BF44E93";
paths = (
{
closed = 1;
nodes = (
"144 204 LINE SMOOTH",
"144 46 OFFCURVE",
"317 46 QCURVE SMOOTH",
"407 46 OFFCURVE",
"497 120 OFFCURVE",
"497 204 QCURVE SMOOTH",
"497 695 LINE",
"559 695 LINE",
"559 204 LINE SMOOTH",
"559 91 OFFCURVE",
"437 -10 OFFCURVE",
"202 -10 OFFCURVE",
"83 91 OFFCURVE",
"83 204 QCURVE SMOOTH",
"83 695 LINE",
"144 695 LINE"
);
},
{
closed = 1;
nodes = (
"160 798 LINE",
"294 929 LINE",
"346 929 LINE",
"480 798 LINE",
"411 798 LINE",
"321 884 LINE",
"230 798 LINE"
);
}
);
width = 642;
},
{
layerId = "0596A6ED-150F-4F1F-BF1E-4449A7B9DE21";
paths = (
{
closed = 1;
nodes = (
"157 208 LINE SMOOTH",
"157 58 OFFCURVE",
"319 58 QCURVE SMOOTH",
"403 58 OFFCURVE",
"488 129 OFFCURVE",
"488 208 QCURVE SMOOTH",
"488 692 LINE",
"564 692 LINE",
"564 210 LINE SMOOTH",
"564 94 OFFCURVE",
"441 -10 OFFCURVE",
"201 -10 OFFCURVE",
"80 94 OFFCURVE",
"80 210 QCURVE SMOOTH",
"80 692 LINE",
"157 692 LINE"
);
},
{
closed = 1;
nodes = (
"155 791 LINE",
"289 926 LINE",
"354 926 LINE",
"488 791 LINE",
"404 791 LINE",
"322 871 LINE",
"239 791 LINE"
);
}
);
width = 644;
},
{
layerId = "1FB77202-83CB-408E-8929-4AFC59A3446D";
paths = (
{
closed = 1;
nodes = (
"206 227 LINE SMOOTH",
"206 108 OFFCURVE",
"448 108 OFFCURVE",
"448 227 QCURVE SMOOTH",
"448 680 LINE",
"586 680 LINE",
"586 230 LINE SMOOTH",
"586 105 OFFCURVE",
"457 -12 OFFCURVE",
"197 -12 OFFCURVE",
"68 105 OFFCURVE",
"68 230 QCURVE SMOOTH",
"68 680 LINE",
"206 680 LINE"
);
},
{
closed = 1;
nodes = (
"135 765 LINE",
"269 914 LINE",
"386 914 LINE",
"520 765 LINE",
"378 765 LINE",
"329 821 LINE",
"277 765 LINE"
);
}
);
width = 654;
}
);
unicode = 00DB;
},
{
glyphname = Udieresis;
lastChange = "2017-03-20 20:50:13 +0000";
layers = (
{
layerId = "8FFE84BD-9390-4D75-BABD-68166BF44E93";
paths = (
{
closed = 1;
nodes = (
"144 204 LINE SMOOTH",
"144 46 OFFCURVE",
"317 46 QCURVE SMOOTH",
"407 46 OFFCURVE",
"497 120 OFFCURVE",
"497 204 QCURVE SMOOTH",
"497 695 LINE",
"559 695 LINE",
"559 204 LINE SMOOTH",
"559 91 OFFCURVE",
"437 -10 OFFCURVE",
"202 -10 OFFCURVE",
"83 91 OFFCURVE",
"83 204 QCURVE SMOOTH",
"83 695 LINE",
"144 695 LINE"
);
},
{
closed = 1;
nodes = (
"191 819 LINE",
"191 899 LINE",
"250 899 LINE",
"250 819 LINE"
);
},
{
closed = 1;
nodes = (
"392 819 LINE",
"392 899 LINE",
"450 899 LINE",
"450 819 LINE"
);
}
);
width = 642;
},
{
layerId = "0596A6ED-150F-4F1F-BF1E-4449A7B9DE21";
paths = (
{
closed = 1;
nodes = (
"157 208 LINE SMOOTH",
"157 58 OFFCURVE",
"319 58 QCURVE SMOOTH",
"403 58 OFFCURVE",
"488 129 OFFCURVE",
"488 208 QCURVE SMOOTH",
"488 692 LINE",
"564 692 LINE",
"564 210 LINE SMOOTH",
"564 94 OFFCURVE",
"441 -10 OFFCURVE",
"201 -10 OFFCURVE",
"80 94 OFFCURVE",
"80 210 QCURVE SMOOTH",
"80 692 LINE",
"157 692 LINE"
);
},
{
closed = 1;
nodes = (
"184 808 LINE",
"184 898 LINE",
"257 898 LINE",
"257 808 LINE"
);
},
{
closed = 1;
nodes = (
"388 808 LINE",
"388 898 LINE",
"460 898 LINE",
"460 808 LINE"
);
}
);
width = 644;
},
{
layerId = "1FB77202-83CB-408E-8929-4AFC59A3446D";
paths = (
{
closed = 1;
nodes = (
"206 227 LINE SMOOTH",
"206 108 OFFCURVE",
"448 108 OFFCURVE",
"448 227 QCURVE SMOOTH",
"448 680 LINE",
"586 680 LINE",
"586 230 LINE SMOOTH",
"586 105 OFFCURVE",
"457 -12 OFFCURVE",
"197 -12 OFFCURVE",
"68 105 OFFCURVE",
"68 230 QCURVE SMOOTH",
"68 680 LINE",
"206 680 LINE"
);
},
{
closed = 1;
nodes = (
"156 764 LINE",
"156 896 LINE",
"284 896 LINE",
"284 764 LINE"
);
},
{
closed = 1;
nodes = (
"370 764 LINE",
"370 896 LINE",
"498 896 LINE",
"498 764 LINE"
);
}
);
width = 654;
}
);
unicode = 00DC;
},
{
glyphname = Ugrave;
lastChange = "2017-03-20 20:50:13 +0000";
layers = (
{
layerId = "8FFE84BD-9390-4D75-BABD-68166BF44E93";
paths = (
{
closed = 1;
nodes = (
"144 204 LINE SMOOTH",
"144 46 OFFCURVE",
"317 46 QCURVE SMOOTH",
"407 46 OFFCURVE",
"497 120 OFFCURVE",
"497 204 QCURVE SMOOTH",
"497 695 LINE",
"559 695 LINE",
"559 204 LINE SMOOTH",
"559 91 OFFCURVE",
"437 -10 OFFCURVE",
"202 -10 OFFCURVE",
"83 91 OFFCURVE",
"83 204 QCURVE SMOOTH",
"83 695 LINE",
"144 695 LINE"
);
},
{
closed = 1;
nodes = (
"223 928 LINE",
"430 829 LINE",
"410 786 LINE",
"201 874 LINE"
);
}
);
width = 642;
},
{
layerId = "0596A6ED-150F-4F1F-BF1E-4449A7B9DE21";
paths = (
{
closed = 1;
nodes = (
"157 208 LINE SMOOTH",
"157 58 OFFCURVE",
"319 58 QCURVE SMOOTH",
"403 58 OFFCURVE",
"488 129 OFFCURVE",
"488 208 QCURVE SMOOTH",
"488 692 LINE",
"564 692 LINE",
"564 210 LINE SMOOTH",
"564 94 OFFCURVE",
"441 -10 OFFCURVE",
"201 -10 OFFCURVE",
"80 94 OFFCURVE",
"80 210 QCURVE SMOOTH",
"80 692 LINE",
"157 692 LINE"
);
},
{
closed = 1;
nodes = (
"222 931 LINE",
"438 831 LINE",
"415 778 LINE",
"196 865 LINE"
);
}
);
width = 644;
},
{
layerId = "1FB77202-83CB-408E-8929-4AFC59A3446D";
paths = (
{
closed = 1;
nodes = (
"206 227 LINE SMOOTH",
"206 108 OFFCURVE",
"448 108 OFFCURVE",
"448 227 QCURVE SMOOTH",
"448 680 LINE",
"586 680 LINE",
"586 230 LINE SMOOTH",
"586 105 OFFCURVE",
"457 -12 OFFCURVE",
"197 -12 OFFCURVE",
"68 105 OFFCURVE",
"68 230 QCURVE SMOOTH",
"68 680 LINE",
"206 680 LINE"
);
},
{
closed = 1;
nodes = (
"216 945 LINE",
"468 839 LINE",
"435 746 LINE",
"175 825 LINE"
);
}
);
width = 654;
}
);
unicode = 00D9;
},
{
glyphname = Uhungarumlaut;
lastChange = "2017-03-20 20:50:13 +0000";
layers = (
{
layerId = "8FFE84BD-9390-4D75-BABD-68166BF44E93";
paths = (
{
closed = 1;
nodes = (
"144 204 LINE SMOOTH",
"144 46 OFFCURVE",
"317 46 QCURVE SMOOTH",
"407 46 OFFCURVE",
"497 120 OFFCURVE",
"497 204 QCURVE SMOOTH",
"497 695 LINE",
"559 695 LINE",
"559 204 LINE SMOOTH",
"559 91 OFFCURVE",
"437 -10 OFFCURVE",
"202 -10 OFFCURVE",
"83 91 OFFCURVE",
"83 204 QCURVE SMOOTH",
"83 695 LINE",
"144 695 LINE"
);
},
{
closed = 1;
nodes = (
"350 787 LINE",
"510 901 LINE",
"551 869 LINE",
"387 755 LINE"
);
},
{
closed = 1;
nodes = (
"155 787 LINE",
"316 902 LINE",
"355 869 LINE",
"193 756 LINE"
);
}
);
width = 642;
},
{
layerId = "0596A6ED-150F-4F1F-BF1E-4449A7B9DE21";
paths = (
{
closed = 1;
nodes = (
"157 208 LINE SMOOTH",
"157 58 OFFCURVE",
"319 58 QCURVE SMOOTH",
"403 58 OFFCURVE",
"488 129 OFFCURVE",
"488 208 QCURVE SMOOTH",
"488 692 LINE",
"564 692 LINE",
"564 210 LINE SMOOTH",
"564 94 OFFCURVE",
"441 -10 OFFCURVE",
"201 -10 OFFCURVE",
"80 94 OFFCURVE",
"80 210 QCURVE SMOOTH",
"80 692 LINE",
"157 692 LINE"
);
},
{
closed = 1;
nodes = (
"352 785 LINE",
"494 916 LINE",
"549 881 LINE",
"403 752 LINE"
);
},
{
closed = 1;
nodes = (
"155 785 LINE",
"297 917 LINE",
"351 882 LINE",
"206 753 LINE"
);
}
);
width = 644;
},
{
layerId = "1FB77202-83CB-408E-8929-4AFC59A3446D";
paths = (
{
closed = 1;
nodes = (
"206 227 LINE SMOOTH",
"206 108 OFFCURVE",
"448 108 OFFCURVE",
"448 227 QCURVE SMOOTH",
"448 680 LINE",
"586 680 LINE",
"586 230 LINE SMOOTH",
"586 105 OFFCURVE",
"457 -12 OFFCURVE",
"197 -12 OFFCURVE",
"68 105 OFFCURVE",
"68 230 QCURVE SMOOTH",
"68 680 LINE",
"206 680 LINE"
);
},
{
closed = 1;
nodes = (
"361 775 LINE",
"428 972 LINE",
"544 930 LINE",
"466 739 LINE"
);
},
{
closed = 1;
nodes = (
"153 776 LINE",
"220 973 LINE",
"336 931 LINE",
"258 740 LINE"
);
}
);
width = 654;
}
);
unicode = 0170;
},
{
glyphname = Umacron;
lastChange = "2017-03-20 20:50:13 +0000";
layers = (
{
layerId = "8FFE84BD-9390-4D75-BABD-68166BF44E93";
paths = (
{
closed = 1;
nodes = (
"144 204 LINE SMOOTH",
"144 46 OFFCURVE",
"317 46 QCURVE SMOOTH",
"407 46 OFFCURVE",
"497 120 OFFCURVE",
"497 204 QCURVE SMOOTH",
"497 695 LINE",
"559 695 LINE",
"559 204 LINE SMOOTH",
"559 91 OFFCURVE",
"437 -10 OFFCURVE",
"202 -10 OFFCURVE",
"83 91 OFFCURVE",
"83 204 QCURVE SMOOTH",
"83 695 LINE",
"144 695 LINE"
);
},
{
closed = 1;
nodes = (
"171 819 LINE",
"171 868 LINE",
"473 868 LINE",
"473 819 LINE"
);
}
);
width = 642;
},
{
layerId = "0596A6ED-150F-4F1F-BF1E-4449A7B9DE21";
paths = (
{
closed = 1;
nodes = (
"157 208 LINE SMOOTH",
"157 58 OFFCURVE",
"319 58 QCURVE SMOOTH",
"403 58 OFFCURVE",
"488 129 OFFCURVE",
"488 208 QCURVE SMOOTH",
"488 692 LINE",
"564 692 LINE",
"564 210 LINE SMOOTH",
"564 94 OFFCURVE",
"441 -10 OFFCURVE",
"201 -10 OFFCURVE",
"80 94 OFFCURVE",
"80 210 QCURVE SMOOTH",
"80 692 LINE",
"157 692 LINE"
);
},
{
closed = 1;
nodes = (
"168 812 LINE",
"168 870 LINE",
"479 870 LINE",
"479 812 LINE"
);
}
);
width = 644;
},
{
layerId = "1FB77202-83CB-408E-8929-4AFC59A3446D";
paths = (
{
closed = 1;
nodes = (
"206 227 LINE SMOOTH",
"206 108 OFFCURVE",
"448 108 OFFCURVE",
"448 227 QCURVE SMOOTH",
"448 680 LINE",
"586 680 LINE",
"586 230 LINE SMOOTH",
"586 105 OFFCURVE",
"457 -12 OFFCURVE",
"197 -12 OFFCURVE",
"68 105 OFFCURVE",
"68 230 QCURVE SMOOTH",
"68 680 LINE",
"206 680 LINE"
);
},
{
closed = 1;
nodes = (
"157 782 LINE",
"157 880 LINE",
"504 880 LINE",
"504 782 LINE"
);
}
);
width = 654;
}
);
unicode = 016A;
},
{
glyphname = Uogonek;
lastChange = "2017-03-20 20:50:13 +0000";
layers = (
{
layerId = "8FFE84BD-9390-4D75-BABD-68166BF44E93";
paths = (
{
closed = 1;
nodes = (
"143 204 LINE SMOOTH",
"143 46 OFFCURVE",
"316 46 QCURVE SMOOTH",
"406 46 OFFCURVE",
"496 120 OFFCURVE",
"496 204 QCURVE SMOOTH",
"496 695 LINE",
"558 695 LINE",
"558 204 LINE SMOOTH",
"558 34 OFFCURVE",
"412 0 QCURVE",
"380 -32 OFFCURVE",
"338 -93 OFFCURVE",
"338 -127 OFFCURVE",
"362 -153 OFFCURVE",
"381 -153 QCURVE",
"433 -147 LINE",
"439 -195 LINE",
"398 -204 OFFCURVE",
"328 -204 OFFCURVE",
"279 -158 OFFCURVE",
"279 -76 OFFCURVE",
"343 -9 QCURVE",
"334 -10 OFFCURVE",
"316 -10 QCURVE SMOOTH",
"201 -10 OFFCURVE",
"82 91 OFFCURVE",
"82 204 QCURVE SMOOTH",
"82 695 LINE",
"143 695 LINE"
);
}
);
width = 642;
},
{
layerId = "0596A6ED-150F-4F1F-BF1E-4449A7B9DE21";
paths = (
{
closed = 1;
nodes = (
"157 208 LINE SMOOTH",
"157 58 OFFCURVE",
"319 58 QCURVE SMOOTH",
"403 58 OFFCURVE",
"488 129 OFFCURVE",
"488 208 QCURVE SMOOTH",
"488 692 LINE",
"564 692 LINE",
"564 210 LINE SMOOTH",
"564 34 OFFCURVE",
"413 0 QCURVE",
"404 -9 LINE",
"344 -73 OFFCURVE",
"344 -102 QCURVE SMOOTH",
"344 -121 OFFCURVE",
"367 -145 OFFCURVE",
"385 -145 QCURVE",
"435 -139 LINE",
"442 -197 LINE",
"397 -206 OFFCURVE",
"323 -206 OFFCURVE",
"271 -159 OFFCURVE",
"271 -73 OFFCURVE",
"334 -10 QCURVE",
"319 -10 LINE SMOOTH",
"201 -10 OFFCURVE",
"80 94 OFFCURVE",
"80 210 QCURVE SMOOTH",
"80 692 LINE",
"157 692 LINE"
);
}
);
width = 645;
},
{
layerId = "1FB77202-83CB-408E-8929-4AFC59A3446D";
paths = (
{
closed = 1;
nodes = (
"207 227 LINE SMOOTH",
"207 108 OFFCURVE",
"449 108 OFFCURVE",
"449 227 QCURVE SMOOTH",
"449 680 LINE",
"587 680 LINE",
"587 230 LINE SMOOTH",
"587 33 OFFCURVE",
"420 -3 QCURVE",
"367 -48 OFFCURVE",
"367 -114 OFFCURVE",
"399 -114 QCURVE",
"441 -110 LINE",
"453 -205 LINE",
"394 -216 OFFCURVE",
"303 -216 OFFCURVE",
"242 -164 OFFCURVE",
"242 -120 QCURVE SMOOTH",
"242 -60 OFFCURVE",
"295 -11 QCURVE",
"182 -4 OFFCURVE",
"69 112 OFFCURVE",
"69 230 QCURVE SMOOTH",
"69 680 LINE",
"207 680 LINE"
);
}
);
width = 656;
}
);
unicode = 0172;
},
{
glyphname = Uring;
lastChange = "2017-03-20 20:50:13 +0000";
layers = (
{
layerId = "8FFE84BD-9390-4D75-BABD-68166BF44E93";
paths = (
{
closed = 1;
nodes = (
"144 204 LINE SMOOTH",
"144 46 OFFCURVE",
"317 46 QCURVE SMOOTH",
"407 46 OFFCURVE",
"497 120 OFFCURVE",
"497 204 QCURVE SMOOTH",
"497 695 LINE",
"559 695 LINE",
"559 204 LINE SMOOTH",
"559 91 OFFCURVE",
"437 -10 OFFCURVE",
"202 -10 OFFCURVE",
"83 91 OFFCURVE",
"83 204 QCURVE SMOOTH",
"83 695 LINE",
"144 695 LINE"
);
},
{
closed = 1;
nodes = (
"432 893 OFFCURVE",
"432 800 OFFCURVE",
"371 746 OFFCURVE",
"273 746 OFFCURVE",
"212 800 OFFCURVE",
"212 893 OFFCURVE",
"273 947 OFFCURVE",
"371 947 OFFCURVE"
);
},
{
closed = 1;
nodes = (
"259 820 OFFCURVE",
"292 790 OFFCURVE",
"352 790 OFFCURVE",
"385 820 OFFCURVE",
"385 874 OFFCURVE",
"352 903 OFFCURVE",
"292 903 OFFCURVE",
"259 874 OFFCURVE"
);
}
);
width = 642;
},
{
layerId = "0596A6ED-150F-4F1F-BF1E-4449A7B9DE21";
paths = (
{
closed = 1;
nodes = (
"157 208 LINE SMOOTH",
"157 58 OFFCURVE",
"319 58 QCURVE SMOOTH",
"403 58 OFFCURVE",
"488 129 OFFCURVE",
"488 208 QCURVE SMOOTH",
"488 692 LINE",
"564 692 LINE",
"564 210 LINE SMOOTH",
"564 94 OFFCURVE",
"441 -10 OFFCURVE",
"201 -10 OFFCURVE",
"80 94 OFFCURVE",
"80 210 QCURVE SMOOTH",
"80 692 LINE",
"157 692 LINE"
);
},
{
closed = 1;
nodes = (
"442 895 OFFCURVE",
"442 796 OFFCURVE",
"376 740 OFFCURVE",
"271 740 OFFCURVE",
"205 796 OFFCURVE",
"205 895 OFFCURVE",
"272 951 OFFCURVE",
"376 951 OFFCURVE"
);
},
{
closed = 1;
nodes = (
"262 846 QCURVE SMOOTH",
"262 821 OFFCURVE",
"295 792 OFFCURVE",
"353 792 OFFCURVE",
"386 821 OFFCURVE",
"386 871 OFFCURVE",
"353 899 OFFCURVE",
"324 899 QCURVE SMOOTH",
"262 899 OFFCURVE"
);
}
);
width = 644;
},
{
layerId = "1FB77202-83CB-408E-8929-4AFC59A3446D";
paths = (
{
closed = 1;
nodes = (
"206 227 LINE SMOOTH",
"206 108 OFFCURVE",
"448 108 OFFCURVE",
"448 227 QCURVE SMOOTH",
"448 680 LINE",
"586 680 LINE",
"586 230 LINE SMOOTH",
"586 105 OFFCURVE",
"457 -12 OFFCURVE",
"197 -12 OFFCURVE",
"68 105 OFFCURVE",
"68 230 QCURVE SMOOTH",
"68 680 LINE",
"206 680 LINE"
);
},
{
closed = 1;
nodes = (
"481 780 OFFCURVE",
"395 713 OFFCURVE",
"267 713 OFFCURVE",
"181 780 OFFCURVE",
"181 898 OFFCURVE",
"267 965 OFFCURVE",
"395 965 OFFCURVE",
"481 898 OFFCURVE"
);
},
{
closed = 1;
nodes = (
"272 820 OFFCURVE",
"304 798 OFFCURVE",
"358 798 OFFCURVE",
"390 820 OFFCURVE",
"390 858 OFFCURVE",
"358 880 OFFCURVE",
"304 880 OFFCURVE",
"272 858 OFFCURVE"
);
}
);
width = 654;
}
);
unicode = 016E;
},
{
glyphname = Utilde;
lastChange = "2017-03-20 20:50:13 +0000";
layers = (
{
layerId = "8FFE84BD-9390-4D75-BABD-68166BF44E93";
paths = (
{
closed = 1;
nodes = (
"144 204 LINE SMOOTH",
"144 46 OFFCURVE",
"317 46 QCURVE SMOOTH",
"407 46 OFFCURVE",
"497 120 OFFCURVE",
"497 204 QCURVE SMOOTH",
"497 695 LINE",
"559 695 LINE",
"559 204 LINE SMOOTH",
"559 91 OFFCURVE",
"437 -10 OFFCURVE",
"202 -10 OFFCURVE",
"83 91 OFFCURVE",
"83 204 QCURVE SMOOTH",
"83 695 LINE",
"144 695 LINE"
);
},
{
closed = 1;
nodes = (
"401 814 QCURVE SMOOTH",
"381 814 OFFCURVE",
"258 871 OFFCURVE",
"246 871 QCURVE SMOOTH",
"223 871 OFFCURVE",
"186 834 QCURVE SMOOTH",
"173 821 LINE",
"158 867 LINE",
"205 923 OFFCURVE",
"243 923 QCURVE SMOOTH",
"268 923 OFFCURVE",
"390 868 OFFCURVE",
"402 868 QCURVE SMOOTH",
"421 868 OFFCURVE",
"457 902 QCURVE",
"469 914 LINE",
"484 869 LINE",
"438 814 OFFCURVE"
);
}
);
width = 642;
},
{
layerId = "0596A6ED-150F-4F1F-BF1E-4449A7B9DE21";
paths = (
{
closed = 1;
nodes = (
"157 208 LINE SMOOTH",
"157 58 OFFCURVE",
"319 58 QCURVE SMOOTH",
"403 58 OFFCURVE",
"488 129 OFFCURVE",
"488 208 QCURVE SMOOTH",
"488 692 LINE",
"564 692 LINE",
"564 210 LINE SMOOTH",
"564 94 OFFCURVE",
"441 -10 OFFCURVE",
"201 -10 OFFCURVE",
"80 94 OFFCURVE",
"80 210 QCURVE SMOOTH",
"80 692 LINE",
"157 692 LINE"
);
},
{
closed = 1;
nodes = (
"402 803 QCURVE SMOOTH",
"381 803 OFFCURVE",
"257 857 OFFCURVE",
"244 857 QCURVE SMOOTH",
"222 857 OFFCURVE",
"183 821 QCURVE SMOOTH",
"170 809 LINE",
"153 865 LINE",
"172 887 OFFCURVE",
"224 923 OFFCURVE",
"270 923 OFFCURVE",
"392 869 OFFCURVE",
"402 869 QCURVE SMOOTH",
"422 869 OFFCURVE",
"460 904 QCURVE SMOOTH",
"472 915 LINE",
"490 859 LINE",
"443 803 OFFCURVE"
);
}
);
width = 644;
},
{
layerId = "1FB77202-83CB-408E-8929-4AFC59A3446D";
paths = (
{
closed = 1;
nodes = (
"206 227 LINE SMOOTH",
"206 108 OFFCURVE",
"448 108 OFFCURVE",
"448 227 QCURVE SMOOTH",
"448 680 LINE",
"586 680 LINE",
"586 230 LINE SMOOTH",
"586 105 OFFCURVE",
"457 -12 OFFCURVE",
"197 -12 OFFCURVE",
"68 105 OFFCURVE",
"68 230 QCURVE SMOOTH",
"68 680 LINE",
"206 680 LINE"
);
},
{
closed = 1;
nodes = (
"378 758 OFFCURVE",
"251 804 OFFCURVE",
"238 804 QCURVE SMOOTH",
"213 804 OFFCURVE",
"171 772 QCURVE",
"157 762 LINE",
"128 858 LINE",
"148 882 OFFCURVE",
"211 922 OFFCURVE",
"270 922 OFFCURVE",
"392 876 OFFCURVE",
"403 876 QCURVE SMOOTH",
"426 876 OFFCURVE",
"470 908 QCURVE SMOOTH",
"484 918 LINE",
"513 821 LINE",
"492 797 OFFCURVE",
"430 758 OFFCURVE"
);
}
);
width = 654;
}
);
unicode = 0168;
},
{
glyphname = V;
lastChange = "2017-03-20 20:50:13 +0000";
layers = (
{
layerId = "8FFE84BD-9390-4D75-BABD-68166BF44E93";
paths = (
{
closed = 1;
nodes = (
"487 695 LINE",
"550 695 LINE",
"364 0 LINE",
"213 0 LINE",
"26 695 LINE",
"90 695 LINE",
"259 55 LINE",
"318 55 LINE"
);
}
);
width = 577;
},
{
layerId = "0596A6ED-150F-4F1F-BF1E-4449A7B9DE21";
paths = (
{
closed = 1;
nodes = (
"478 692 LINE",
"558 692 LINE",
"377 0 LINE",
"205 0 LINE",
"24 692 LINE",
"104 692 LINE",
"263 68 LINE",
"319 68 LINE"
);
}
);
width = 582;
},
{
layerId = "1FB77202-83CB-408E-8929-4AFC59A3446D";
paths = (
{
closed = 1;
nodes = (
"442 680 LINE",
"587 680 LINE",
"429 0 LINE",
"174 0 LINE",
"16 680 LINE",
"161 680 LINE",
"279 120 LINE",
"324 120 LINE"
);
}
);
width = 603;
}
);
unicode = 0056;
},
{
glyphname = W;
lastChange = "2017-03-20 20:50:13 +0000";
layers = (
{
layerId = "8FFE84BD-9390-4D75-BABD-68166BF44E93";
paths = (
{
closed = 1;
nodes = (
"33 695 LINE",
"96 695 LINE",
"222 55 LINE",
"255 55 LINE",
"401 687 LINE",
"474 687 LINE",
"619 55 LINE",
"652 55 LINE",
"778 695 LINE",
"841 695 LINE",
"698 0 LINE",
"574 0 LINE",
"437 610 LINE",
"300 0 LINE",
"176 0 LINE"
);
}
);
width = 874;
},
{
layerId = "0596A6ED-150F-4F1F-BF1E-4449A7B9DE21";
paths = (
{
closed = 1;
nodes = (
"30 692 LINE",
"110 692 LINE",
"228 68 LINE",
"257 68 LINE",
"398 686 LINE",
"488 686 LINE",
"629 68 LINE",
"658 68 LINE",
"776 692 LINE",
"855 692 LINE",
"715 0 LINE",
"574 0 LINE",
"443 591 LINE",
"312 0 LINE",
"171 0 LINE"
);
}
);
width = 886;
},
{
layerId = "1FB77202-83CB-408E-8929-4AFC59A3446D";
paths = (
{
closed = 1;
nodes = (
"19 680 LINE",
"164 680 LINE",
"248 118 LINE",
"263 118 LINE",
"385 680 LINE",
"545 680 LINE",
"667 118 LINE",
"682 118 LINE",
"766 680 LINE",
"911 680 LINE",
"781 0 LINE",
"572 0 LINE",
"465 517 LINE",
"358 0 LINE",
"149 0 LINE"
);
}
);
width = 930;
}
);
unicode = 0057;
},
{
glyphname = Wacute;
lastChange = "2017-03-20 20:50:13 +0000";
layers = (
{
layerId = "8FFE84BD-9390-4D75-BABD-68166BF44E93";
paths = (
{
closed = 1;
nodes = (
"33 695 LINE",
"96 695 LINE",
"222 55 LINE",
"255 55 LINE",
"401 687 LINE",
"474 687 LINE",
"619 55 LINE",
"652 55 LINE",
"778 695 LINE",
"841 695 LINE",
"698 0 LINE",
"574 0 LINE",
"437 610 LINE",
"300 0 LINE",
"176 0 LINE"
);
},
{
closed = 1;
nodes = (
"332 829 LINE",
"539 928 LINE",
"561 874 LINE",
"352 786 LINE"
);
}
);
width = 874;
},
{
layerId = "0596A6ED-150F-4F1F-BF1E-4449A7B9DE21";
paths = (
{
closed = 1;
nodes = (
"30 692 LINE",
"110 692 LINE",
"228 68 LINE",
"257 68 LINE",
"398 686 LINE",
"488 686 LINE",
"629 68 LINE",
"658 68 LINE",
"776 692 LINE",
"855 692 LINE",
"715 0 LINE",
"574 0 LINE",
"443 591 LINE",
"312 0 LINE",
"171 0 LINE"
);
},
{
closed = 1;
nodes = (
"332 831 LINE",
"548 931 LINE",
"574 865 LINE",
"355 778 LINE"
);
}
);
width = 886;
},
{
layerId = "1FB77202-83CB-408E-8929-4AFC59A3446D";
paths = (
{
closed = 1;
nodes = (
"19 680 LINE",
"164 680 LINE",
"248 118 LINE",
"263 118 LINE",
"385 680 LINE",
"545 680 LINE",
"667 118 LINE",
"682 118 LINE",
"766 680 LINE",
"911 680 LINE",
"781 0 LINE",
"572 0 LINE",
"465 517 LINE",
"358 0 LINE",
"149 0 LINE"
);
},
{
closed = 1;
nodes = (
"329 839 LINE",
"581 945 LINE",
"622 825 LINE",
"362 746 LINE"
);
}
);
width = 930;
}
);
unicode = 1E82;
},
{
glyphname = Wcircumflex;
lastChange = "2017-03-20 20:50:13 +0000";
layers = (
{
layerId = "8FFE84BD-9390-4D75-BABD-68166BF44E93";
paths = (
{
closed = 1;
nodes = (
"33 695 LINE",
"96 695 LINE",
"222 55 LINE",
"255 55 LINE",
"401 687 LINE",
"474 687 LINE",
"619 55 LINE",
"652 55 LINE",
"778 695 LINE",
"841 695 LINE",
"698 0 LINE",
"574 0 LINE",
"437 610 LINE",
"300 0 LINE",
"176 0 LINE"
);
},
{
closed = 1;
nodes = (
"277 794 LINE",
"411 925 LINE",
"463 925 LINE",
"597 794 LINE",
"528 794 LINE",
"438 880 LINE",
"347 794 LINE"
);
}
);
width = 874;
},
{
layerId = "0596A6ED-150F-4F1F-BF1E-4449A7B9DE21";
paths = (
{
closed = 1;
nodes = (
"30 692 LINE",
"110 692 LINE",
"228 68 LINE",
"257 68 LINE",
"398 686 LINE",
"488 686 LINE",
"629 68 LINE",
"658 68 LINE",
"776 692 LINE",
"855 692 LINE",
"715 0 LINE",
"574 0 LINE",
"443 591 LINE",
"312 0 LINE",
"171 0 LINE"
);
},
{
closed = 1;
nodes = (
"277 788 LINE",
"411 923 LINE",
"476 923 LINE",
"610 788 LINE",
"526 788 LINE",
"444 868 LINE",
"361 788 LINE"
);
}
);
width = 886;
},
{
layerId = "1FB77202-83CB-408E-8929-4AFC59A3446D";
paths = (
{
closed = 1;
nodes = (
"19 680 LINE",
"164 680 LINE",
"248 118 LINE",
"263 118 LINE",
"385 680 LINE",
"545 680 LINE",
"667 118 LINE",
"682 118 LINE",
"766 680 LINE",
"911 680 LINE",
"781 0 LINE",
"572 0 LINE",
"465 517 LINE",
"358 0 LINE",
"149 0 LINE"
);
},
{
closed = 1;
nodes = (
"273 765 LINE",
"407 914 LINE",
"524 914 LINE",
"658 765 LINE",
"516 765 LINE",
"467 821 LINE",
"415 765 LINE"
);
}
);
width = 930;
}
);
unicode = 0174;
},
{
glyphname = Wdieresis;
lastChange = "2017-03-20 20:50:13 +0000";
layers = (
{
layerId = "8FFE84BD-9390-4D75-BABD-68166BF44E93";
paths = (
{
closed = 1;
nodes = (
"33 695 LINE",
"96 695 LINE",
"222 55 LINE",
"255 55 LINE",
"401 687 LINE",
"474 687 LINE",
"619 55 LINE",
"652 55 LINE",
"778 695 LINE",
"841 695 LINE",
"698 0 LINE",
"574 0 LINE",
"437 610 LINE",
"300 0 LINE",
"176 0 LINE"
);
},
{
closed = 1;
nodes = (
"307 819 LINE",
"307 899 LINE",
"366 899 LINE",
"366 819 LINE"
);
},
{
closed = 1;
nodes = (
"508 819 LINE",
"508 899 LINE",
"566 899 LINE",
"566 819 LINE"
);
}
);
width = 874;
},
{
layerId = "0596A6ED-150F-4F1F-BF1E-4449A7B9DE21";
paths = (
{
closed = 1;
nodes = (
"30 692 LINE",
"110 692 LINE",
"228 68 LINE",
"257 68 LINE",
"398 686 LINE",
"488 686 LINE",
"629 68 LINE",
"658 68 LINE",
"776 692 LINE",
"855 692 LINE",
"715 0 LINE",
"574 0 LINE",
"443 591 LINE",
"312 0 LINE",
"171 0 LINE"
);
},
{
closed = 1;
nodes = (
"304 808 LINE",
"304 898 LINE",
"377 898 LINE",
"377 808 LINE"
);
},
{
closed = 1;
nodes = (
"508 808 LINE",
"508 898 LINE",
"580 898 LINE",
"580 808 LINE"
);
}
);
width = 886;
},
{
layerId = "1FB77202-83CB-408E-8929-4AFC59A3446D";
paths = (
{
closed = 1;
nodes = (
"19 680 LINE",
"164 680 LINE",
"248 118 LINE",
"263 118 LINE",
"385 680 LINE",
"545 680 LINE",
"667 118 LINE",
"682 118 LINE",
"766 680 LINE",
"911 680 LINE",
"781 0 LINE",
"572 0 LINE",
"465 517 LINE",
"358 0 LINE",
"149 0 LINE"
);
},
{
closed = 1;
nodes = (
"292 764 LINE",
"292 896 LINE",
"420 896 LINE",
"420 764 LINE"
);
},
{
closed = 1;
nodes = (
"506 764 LINE",
"506 896 LINE",
"634 896 LINE",
"634 764 LINE"
);
}
);
width = 930;
}
);
unicode = 1E84;
},
{
glyphname = Wgrave;
lastChange = "2017-03-20 20:50:13 +0000";
layers = (
{
layerId = "8FFE84BD-9390-4D75-BABD-68166BF44E93";
paths = (
{
closed = 1;
nodes = (
"33 695 LINE",
"96 695 LINE",
"222 55 LINE",
"255 55 LINE",
"401 687 LINE",
"474 687 LINE",
"619 55 LINE",
"652 55 LINE",
"778 695 LINE",
"841 695 LINE",
"698 0 LINE",
"574 0 LINE",
"437 610 LINE",
"300 0 LINE",
"176 0 LINE"
);
},
{
closed = 1;
nodes = (
"339 928 LINE",
"546 829 LINE",
"526 786 LINE",
"317 874 LINE"
);
}
);
width = 874;
},
{
layerId = "0596A6ED-150F-4F1F-BF1E-4449A7B9DE21";
paths = (
{
closed = 1;
nodes = (
"30 692 LINE",
"110 692 LINE",
"228 68 LINE",
"257 68 LINE",
"398 686 LINE",
"488 686 LINE",
"629 68 LINE",
"658 68 LINE",
"776 692 LINE",
"855 692 LINE",
"715 0 LINE",
"574 0 LINE",
"443 591 LINE",
"312 0 LINE",
"171 0 LINE"
);
},
{
closed = 1;
nodes = (
"346 931 LINE",
"562 831 LINE",
"539 778 LINE",
"320 865 LINE"
);
}
);
width = 886;
},
{
layerId = "1FB77202-83CB-408E-8929-4AFC59A3446D";
paths = (
{
closed = 1;
nodes = (
"19 680 LINE",
"164 680 LINE",
"248 118 LINE",
"263 118 LINE",
"385 680 LINE",
"545 680 LINE",
"667 118 LINE",
"682 118 LINE",
"766 680 LINE",
"911 680 LINE",
"781 0 LINE",
"572 0 LINE",
"465 517 LINE",
"358 0 LINE",
"149 0 LINE"
);
},
{
closed = 1;
nodes = (
"368 945 LINE",
"620 839 LINE",
"587 746 LINE",
"327 825 LINE"
);
}
);
width = 930;
}
);
unicode = 1E80;
},
{
glyphname = X;
lastChange = "2017-03-20 20:50:13 +0000";
layers = (
{
layerId = "8FFE84BD-9390-4D75-BABD-68166BF44E93";
paths = (
{
closed = 1;
nodes = (
"91 695 LINE",
"279 388 LINE",
"466 695 LINE",
"534 695 LINE",
"318 343 LINE",
"534 0 LINE",
"464 0 LINE",
"278 300 LINE",
"89 0 LINE",
"21 0 LINE",
"239 342 LINE",
"21 695 LINE"
);
}
);
width = 555;
},
{
layerId = "0596A6ED-150F-4F1F-BF1E-4449A7B9DE21";
paths = (
{
closed = 1;
nodes = (
"106 692 LINE",
"281 396 LINE",
"457 692 LINE",
"540 692 LINE",
"327 341 LINE",
"540 0 LINE",
"453 0 LINE",
"279 287 LINE",
"102 0 LINE",
"19 0 LINE",
"233 339 LINE",
"19 692 LINE"
);
}
);
width = 558;
},
{
layerId = "1FB77202-83CB-408E-8929-4AFC59A3446D";
paths = (
{
closed = 1;
nodes = (
"162 680 LINE",
"288 430 LINE",
"417 680 LINE",
"560 680 LINE",
"364 333 LINE",
"560 0 LINE",
"407 0 LINE",
"281 235 LINE",
"152 0 LINE",
"9 0 LINE",
"205 326 LINE",
"9 680 LINE"
);
}
);
width = 569;
}
);
unicode = 0058;
},
{
glyphname = Y;
lastChange = "2017-03-20 20:50:13 +0000";
layers = (
{
layerId = "8FFE84BD-9390-4D75-BABD-68166BF44E93";
paths = (
{
closed = 1;
nodes = (
"298 0 LINE",
"236 0 LINE",
"236 294 LINE",
"13 695 LINE",
"82 695 LINE",
"267 358 LINE",
"451 695 LINE",
"521 695 LINE",
"298 294 LINE"
);
}
);
width = 534;
},
{
layerId = "0596A6ED-150F-4F1F-BF1E-4449A7B9DE21";
paths = (
{
closed = 1;
nodes = (
"308 0 LINE",
"231 0 LINE",
"231 291 LINE",
"10 692 LINE",
"97 692 LINE",
"269 368 LINE",
"441 692 LINE",
"528 692 LINE",
"308 291 LINE"
);
}
);
width = 538;
},
{
layerId = "1FB77202-83CB-408E-8929-4AFC59A3446D";
paths = (
{
closed = 1;
nodes = (
"348 0 LINE",
"210 0 LINE",
"210 275 LINE",
"0 680 LINE",
"153 680 LINE",
"278 409 LINE",
"403 680 LINE",
"556 680 LINE",
"348 275 LINE"
);
}
);
width = 557;
}
);
unicode = 0059;
},
{
glyphname = Yacute;
lastChange = "2017-03-20 20:50:13 +0000";
layers = (
{
layerId = "8FFE84BD-9390-4D75-BABD-68166BF44E93";
paths = (
{
closed = 1;
nodes = (
"298 0 LINE",
"236 0 LINE",
"236 294 LINE",
"13 695 LINE",
"82 695 LINE",
"267 358 LINE",
"451 695 LINE",
"521 695 LINE",
"298 294 LINE"
);
},
{
closed = 1;
nodes = (
"175 829 LINE",
"382 928 LINE",
"404 874 LINE",
"195 786 LINE"
);
}
);
width = 534;
},
{
layerId = "0596A6ED-150F-4F1F-BF1E-4449A7B9DE21";
paths = (
{
closed = 1;
nodes = (
"308 0 LINE",
"231 0 LINE",
"231 291 LINE",
"10 692 LINE",
"97 692 LINE",
"269 368 LINE",
"441 692 LINE",
"528 692 LINE",
"308 291 LINE"
);
},
{
closed = 1;
nodes = (
"167 831 LINE",
"383 931 LINE",
"409 865 LINE",
"190 778 LINE"
);
}
);
width = 538;
},
{
layerId = "1FB77202-83CB-408E-8929-4AFC59A3446D";
paths = (
{
closed = 1;
nodes = (
"348 0 LINE",
"210 0 LINE",
"210 275 LINE",
"0 680 LINE",
"153 680 LINE",
"278 409 LINE",
"403 680 LINE",
"556 680 LINE",
"348 275 LINE"
);
},
{
closed = 1;
nodes = (
"133 839 LINE",
"385 945 LINE",
"426 825 LINE",
"166 746 LINE"
);
}
);
width = 557;
}
);
unicode = 00DD;
},
{
glyphname = Ycircumflex;
lastChange = "2017-03-20 20:50:13 +0000";
layers = (
{
layerId = "8FFE84BD-9390-4D75-BABD-68166BF44E93";
paths = (
{
closed = 1;
nodes = (
"298 0 LINE",
"236 0 LINE",
"236 294 LINE",
"13 695 LINE",
"82 695 LINE",
"267 358 LINE",
"451 695 LINE",
"521 695 LINE",
"298 294 LINE"
);
},
{
closed = 1;
nodes = (
"107 798 LINE",
"241 929 LINE",
"293 929 LINE",
"427 798 LINE",
"358 798 LINE",
"268 884 LINE",
"177 798 LINE"
);
}
);
width = 534;
},
{
layerId = "0596A6ED-150F-4F1F-BF1E-4449A7B9DE21";
paths = (
{
closed = 1;
nodes = (
"308 0 LINE",
"231 0 LINE",
"231 291 LINE",
"10 692 LINE",
"97 692 LINE",
"269 368 LINE",
"441 692 LINE",
"528 692 LINE",
"308 291 LINE"
);
},
{
closed = 1;
nodes = (
"104 791 LINE",
"238 926 LINE",
"303 926 LINE",
"437 791 LINE",
"353 791 LINE",
"271 871 LINE",
"188 791 LINE"
);
}
);
width = 538;
},
{
layerId = "1FB77202-83CB-408E-8929-4AFC59A3446D";
paths = (
{
closed = 1;
nodes = (
"348 0 LINE",
"210 0 LINE",
"210 275 LINE",
"0 680 LINE",
"153 680 LINE",
"278 409 LINE",
"403 680 LINE",
"556 680 LINE",
"348 275 LINE"
);
},
{
closed = 1;
nodes = (
"88 765 LINE",
"222 914 LINE",
"339 914 LINE",
"473 765 LINE",
"331 765 LINE",
"282 821 LINE",
"230 765 LINE"
);
}
);
width = 557;
}
);
unicode = 0176;
},
{
glyphname = Ydieresis;
lastChange = "2017-03-20 20:50:13 +0000";
layers = (
{
layerId = "8FFE84BD-9390-4D75-BABD-68166BF44E93";
paths = (
{
closed = 1;
nodes = (
"298 0 LINE",
"236 0 LINE",
"236 294 LINE",
"13 695 LINE",
"82 695 LINE",
"267 358 LINE",
"451 695 LINE",
"521 695 LINE",
"298 294 LINE"
);
},
{
closed = 1;
nodes = (
"136 819 LINE",
"136 899 LINE",
"195 899 LINE",
"195 819 LINE"
);
},
{
closed = 1;
nodes = (
"337 819 LINE",
"337 899 LINE",
"395 899 LINE",
"395 819 LINE"
);
}
);
width = 534;
},
{
layerId = "0596A6ED-150F-4F1F-BF1E-4449A7B9DE21";
paths = (
{
closed = 1;
nodes = (
"308 0 LINE",
"231 0 LINE",
"231 291 LINE",
"10 692 LINE",
"97 692 LINE",
"269 368 LINE",
"441 692 LINE",
"528 692 LINE",
"308 291 LINE"
);
},
{
closed = 1;
nodes = (
"130 808 LINE",
"130 898 LINE",
"203 898 LINE",
"203 808 LINE"
);
},
{
closed = 1;
nodes = (
"334 808 LINE",
"334 898 LINE",
"406 898 LINE",
"406 808 LINE"
);
}
);
width = 538;
},
{
layerId = "1FB77202-83CB-408E-8929-4AFC59A3446D";
paths = (
{
closed = 1;
nodes = (
"348 0 LINE",
"210 0 LINE",
"210 275 LINE",
"0 680 LINE",
"153 680 LINE",
"278 409 LINE",
"403 680 LINE",
"556 680 LINE",
"348 275 LINE"
);
},
{
closed = 1;
nodes = (
"105 764 LINE",
"105 896 LINE",
"233 896 LINE",
"233 764 LINE"
);
},
{
closed = 1;
nodes = (
"319 764 LINE",
"319 896 LINE",
"447 896 LINE",
"447 764 LINE"
);
}
);
width = 557;
}
);
unicode = 0178;
},
{
glyphname = Ygrave;
lastChange = "2017-03-20 20:50:13 +0000";
layers = (
{
layerId = "8FFE84BD-9390-4D75-BABD-68166BF44E93";
paths = (
{
closed = 1;
nodes = (
"298 0 LINE",
"236 0 LINE",
"236 294 LINE",
"13 695 LINE",
"82 695 LINE",
"267 358 LINE",
"451 695 LINE",
"521 695 LINE",
"298 294 LINE"
);
},
{
closed = 1;
nodes = (
"161 928 LINE",
"368 829 LINE",
"348 786 LINE",
"139 874 LINE"
);
}
);
width = 534;
},
{
layerId = "0596A6ED-150F-4F1F-BF1E-4449A7B9DE21";
paths = (
{
closed = 1;
nodes = (
"308 0 LINE",
"231 0 LINE",
"231 291 LINE",
"10 692 LINE",
"97 692 LINE",
"269 368 LINE",
"441 692 LINE",
"528 692 LINE",
"308 291 LINE"
);
},
{
closed = 1;
nodes = (
"166 931 LINE",
"382 831 LINE",
"359 778 LINE",
"140 865 LINE"
);
}
);
width = 538;
},
{
layerId = "1FB77202-83CB-408E-8929-4AFC59A3446D";
paths = (
{
closed = 1;
nodes = (
"348 0 LINE",
"210 0 LINE",
"210 275 LINE",
"0 680 LINE",
"153 680 LINE",
"278 409 LINE",
"403 680 LINE",
"556 680 LINE",
"348 275 LINE"
);
},
{
closed = 1;
nodes = (
"182 945 LINE",
"434 839 LINE",
"401 746 LINE",
"141 825 LINE"
);
}
);
width = 557;
}
);
unicode = 1EF2;
},
{
glyphname = Z;
lastChange = "2017-03-20 20:50:13 +0000";
layers = (
{
layerId = "8FFE84BD-9390-4D75-BABD-68166BF44E93";
paths = (
{
closed = 1;
nodes = (
"43 639 LINE",
"43 695 LINE",
"493 695 LINE",
"493 612 LINE",
"112 76 LINE",
"112 55 LINE",
"493 55 LINE",
"493 -1 LINE",
"43 -1 LINE",
"43 81 LINE",
"424 617 LINE",
"424 639 LINE"
);
}
);
width = 537;
},
{
layerId = "0596A6ED-150F-4F1F-BF1E-4449A7B9DE21";
paths = (
{
closed = 1;
nodes = (
"43 624 LINE",
"43 692 LINE",
"493 692 LINE",
"493 602 LINE",
"131 88 LINE",
"131 68 LINE",
"493 68 LINE",
"493 -1 LINE",
"43 -1 LINE",
"43 88 LINE",
"404 602 LINE",
"404 624 LINE"
);
}
);
width = 536;
},
{
layerId = "1FB77202-83CB-408E-8929-4AFC59A3446D";
paths = (
{
closed = 1;
nodes = (
"41 560 LINE",
"41 680 LINE",
"491 680 LINE",
"491 560 LINE",
"207 138 LINE",
"207 120 LINE",
"491 120 LINE",
"491 0 LINE",
"41 0 LINE",
"41 119 LINE",
"325 542 LINE",
"325 560 LINE"
);
}
);
width = 532;
}
);
unicode = 005A;
},
{
glyphname = Zacute;
lastChange = "2017-03-20 20:50:13 +0000";
layers = (
{
layerId = "8FFE84BD-9390-4D75-BABD-68166BF44E93";
paths = (
{
closed = 1;
nodes = (
"43 639 LINE",
"43 695 LINE",
"493 695 LINE",
"493 612 LINE",
"112 76 LINE",
"112 55 LINE",
"493 55 LINE",
"493 -1 LINE",
"43 -1 LINE",
"43 81 LINE",
"424 617 LINE",
"424 639 LINE"
);
},
{
closed = 1;
nodes = (
"161 829 LINE",
"368 928 LINE",
"390 874 LINE",
"181 786 LINE"
);
}
);
width = 537;
},
{
layerId = "0596A6ED-150F-4F1F-BF1E-4449A7B9DE21";
paths = (
{
closed = 1;
nodes = (
"43 624 LINE",
"43 692 LINE",
"493 692 LINE",
"493 602 LINE",
"131 88 LINE",
"131 68 LINE",
"493 68 LINE",
"493 -1 LINE",
"43 -1 LINE",
"43 88 LINE",
"404 602 LINE",
"404 624 LINE"
);
},
{
closed = 1;
nodes = (
"153 831 LINE",
"369 931 LINE",
"395 865 LINE",
"176 778 LINE"
);
}
);
width = 536;
},
{
layerId = "1FB77202-83CB-408E-8929-4AFC59A3446D";
paths = (
{
closed = 1;
nodes = (
"41 560 LINE",
"41 680 LINE",
"491 680 LINE",
"491 560 LINE",
"207 138 LINE",
"207 120 LINE",
"491 120 LINE",
"491 0 LINE",
"41 0 LINE",
"41 119 LINE",
"325 542 LINE",
"325 560 LINE"
);
},
{
closed = 1;
nodes = (
"121 839 LINE",
"373 945 LINE",
"414 825 LINE",
"154 746 LINE"
);
}
);
width = 532;
}
);
unicode = 0179;
},
{
glyphname = Zcaron;
lastChange = "2017-03-20 20:50:13 +0000";
layers = (
{
layerId = "8FFE84BD-9390-4D75-BABD-68166BF44E93";
paths = (
{
closed = 1;
nodes = (
"43 639 LINE",
"43 695 LINE",
"493 695 LINE",
"493 612 LINE",
"112 76 LINE",
"112 55 LINE",
"493 55 LINE",
"493 -1 LINE",
"43 -1 LINE",
"43 81 LINE",
"424 617 LINE",
"424 639 LINE"
);
},
{
closed = 1;
nodes = (
"252 798 LINE",
"118 929 LINE",
"187 929 LINE",
"278 843 LINE",
"368 929 LINE",
"438 929 LINE",
"304 798 LINE"
);
}
);
width = 537;
},
{
layerId = "0596A6ED-150F-4F1F-BF1E-4449A7B9DE21";
paths = (
{
closed = 1;
nodes = (
"43 624 LINE",
"43 692 LINE",
"493 692 LINE",
"493 602 LINE",
"131 88 LINE",
"131 68 LINE",
"493 68 LINE",
"493 -1 LINE",
"43 -1 LINE",
"43 88 LINE",
"404 602 LINE",
"404 624 LINE"
);
},
{
closed = 1;
nodes = (
"243 791 LINE",
"109 926 LINE",
"193 926 LINE",
"276 846 LINE",
"358 926 LINE",
"442 926 LINE",
"308 791 LINE"
);
}
);
width = 536;
},
{
layerId = "1FB77202-83CB-408E-8929-4AFC59A3446D";
paths = (
{
closed = 1;
nodes = (
"41 560 LINE",
"41 680 LINE",
"491 680 LINE",
"491 560 LINE",
"207 138 LINE",
"207 120 LINE",
"491 120 LINE",
"491 0 LINE",
"41 0 LINE",
"41 119 LINE",
"325 542 LINE",
"325 560 LINE"
);
},
{
closed = 1;
nodes = (
"210 765 LINE",
"76 914 LINE",
"218 914 LINE",
"270 858 LINE",
"319 914 LINE",
"461 914 LINE",
"327 765 LINE"
);
}
);
width = 532;
}
);
unicode = 017D;
},
{
glyphname = Zdotaccent;
lastChange = "2017-03-20 20:50:13 +0000";
layers = (
{
layerId = "8FFE84BD-9390-4D75-BABD-68166BF44E93";
paths = (
{
closed = 1;
nodes = (
"43 639 LINE",
"43 695 LINE",
"493 695 LINE",
"493 612 LINE",
"112 76 LINE",
"112 55 LINE",
"493 55 LINE",
"493 -1 LINE",
"43 -1 LINE",
"43 81 LINE",
"424 617 LINE",
"424 639 LINE"
);
},
{
closed = 1;
nodes = (
"238 809 LINE",
"238 884 LINE",
"298 884 LINE",
"298 809 LINE"
);
}
);
width = 537;
},
{
layerId = "0596A6ED-150F-4F1F-BF1E-4449A7B9DE21";
paths = (
{
closed = 1;
nodes = (
"43 624 LINE",
"43 692 LINE",
"493 692 LINE",
"493 602 LINE",
"131 88 LINE",
"131 68 LINE",
"493 68 LINE",
"493 -1 LINE",
"43 -1 LINE",
"43 88 LINE",
"404 602 LINE",
"404 624 LINE"
);
},
{
closed = 1;
nodes = (
"230 801 LINE",
"230 888 LINE",
"304 888 LINE",
"304 801 LINE"
);
}
);
width = 536;
},
{
layerId = "1FB77202-83CB-408E-8929-4AFC59A3446D";
paths = (
{
closed = 1;
nodes = (
"41 560 LINE",
"41 680 LINE",
"491 680 LINE",
"491 560 LINE",
"207 138 LINE",
"207 120 LINE",
"491 120 LINE",
"491 0 LINE",
"41 0 LINE",
"41 119 LINE",
"325 542 LINE",
"325 560 LINE"
);
},
{
closed = 1;
nodes = (
"199 767 LINE",
"199 902 LINE",
"333 902 LINE",
"333 767 LINE"
);
}
);
width = 532;
}
);
unicode = 017B;
},
{
glyphname = uni1EB0;
lastChange = "2017-03-20 20:50:13 +0000";
layers = (
{
layerId = "8FFE84BD-9390-4D75-BABD-68166BF44E93";
paths = (
{
closed = 1;
nodes = (
"25 0 LINE",
"225 697 LINE",
"370 697 LINE",
"567 1 LINE",
"505 1 LINE",
"447 190 LINE",
"143 190 LINE",
"87 0 LINE"
);
},
{
closed = 1;
nodes = (
"270 640 LINE",
"158 249 LINE",
"433 249 LINE",
"322 640 LINE"
);
},
{
closed = 1;
nodes = (
"333 808 OFFCURVE",
"387 851 OFFCURVE",
"388 887 QCURVE",
"444 887 LINE",
"443 830 OFFCURVE",
"359 760 OFFCURVE",
"229 760 OFFCURVE",
"146 830 OFFCURVE",
"144 887 QCURVE",
"201 887 LINE",
"202 851 OFFCURVE",
"255 808 OFFCURVE"
);
},
{
closed = 1;
nodes = (
"146 1075 LINE",
"353 978 LINE",
"334 936 LINE",
"124 1023 LINE"
);
}
);
width = 592;
},
{
layerId = "0596A6ED-150F-4F1F-BF1E-4449A7B9DE21";
paths = (
{
closed = 1;
nodes = (
"24 0 LINE",
"214 696 LINE",
"382 696 LINE",
"570 1 LINE",
"493 1 LINE",
"441 175 LINE",
"151 175 LINE",
"100 0 LINE"
);
},
{
closed = 1;
nodes = (
"272 625 LINE",
"169 249 LINE",
"424 249 LINE",
"322 625 LINE"
);
},
{
closed = 1;
nodes = (
"260 809 OFFCURVE",
"333 809 OFFCURVE",
"383 851 OFFCURVE",
"384 884 QCURVE",
"454 884 LINE",
"451 825 OFFCURVE",
"365 753 OFFCURVE",
"227 753 OFFCURVE",
"142 825 OFFCURVE",
"139 884 QCURVE",
"208 884 LINE",
"209 851 OFFCURVE"
);
},
{
closed = 1;
nodes = (
"146 1082 LINE",
"362 984 LINE",
"341 933 LINE",
"120 1018 LINE"
);
}
);
width = 594;
},
{
layerId = "1FB77202-83CB-408E-8929-4AFC59A3446D";
paths = (
{
closed = 1;
nodes = (
"17 0 LINE",
"170 690 LINE",
"432 690 LINE",
"582 0 LINE",
"444 0 LINE",
"413 116 LINE",
"181 116 LINE",
"155 0 LINE"
);
},
{
closed = 1;
nodes = (
"277 563 LINE",
"210 249 LINE",
"387 249 LINE",
"322 563 LINE"
);
},
{
closed = 1;
nodes = (
"277 813 OFFCURVE",
"332 813 OFFCURVE",
"367 845 OFFCURVE",
"370 870 QCURVE",
"491 870 LINE",
"483 802 OFFCURVE",
"390 719 OFFCURVE",
"218 719 OFFCURVE",
"126 802 OFFCURVE",
"118 870 QCURVE",
"239 870 LINE",
"243 845 OFFCURVE"
);
},
{
closed = 1;
nodes = (
"143 1114 LINE",
"395 1012 LINE",
"365 925 LINE",
"103 999 LINE"
);
}
);
width = 600;
}
);
unicode = 1EB0;
},
{
glyphname = uni1EF8;
lastChange = "2017-03-20 20:50:13 +0000";
layers = (
{
layerId = "8FFE84BD-9390-4D75-BABD-68166BF44E93";
paths = (
{
closed = 1;
nodes = (
"296 0 LINE",
"234 0 LINE",
"234 299 LINE",
"11 697 LINE",
"80 697 LINE",
"265 368 LINE",
"447 697 LINE",
"517 697 LINE",
"296 299 LINE"
);
},
{
closed = 1;
nodes = (
"333 817 QCURVE SMOOTH",
"312 817 OFFCURVE",
"206 866 OFFCURVE",
"194 866 QCURVE SMOOTH",
"170 866 OFFCURVE",
"132 836 QCURVE",
"119 825 LINE",
"104 865 LINE",
"154 915 OFFCURVE",
"192 915 QCURVE SMOOTH",
"213 915 OFFCURVE",
"320 867 OFFCURVE",
"332 867 QCURVE SMOOTH",
"353 867 OFFCURVE",
"388 896 QCURVE SMOOTH",
"400 906 LINE",
"414 864 LINE",
"369 817 OFFCURVE"
);
}
);
width = 528;
},
{
layerId = "0596A6ED-150F-4F1F-BF1E-4449A7B9DE21";
paths = (
{
closed = 1;
nodes = (
"305 0 LINE",
"228 0 LINE",
"228 299 LINE",
"8 696 LINE",
"94 696 LINE",
"266 384 LINE",
"436 696 LINE",
"523 696 LINE",
"305 298 LINE"
);
},
{
closed = 1;
nodes = (
"333 808 QCURVE SMOOTH",
"312 808 OFFCURVE",
"209 855 OFFCURVE",
"196 855 QCURVE SMOOTH",
"173 855 OFFCURVE",
"134 825 QCURVE SMOOTH",
"121 815 LINE",
"103 863 LINE",
"153 915 OFFCURVE",
"194 915 QCURVE SMOOTH",
"215 915 OFFCURVE",
"319 869 OFFCURVE",
"330 869 QCURVE SMOOTH",
"352 869 OFFCURVE",
"390 898 QCURVE SMOOTH",
"402 907 LINE",
"419 859 LINE",
"373 808 OFFCURVE"
);
}
);
width = 531;
},
{
layerId = "1FB77202-83CB-408E-8929-4AFC59A3446D";
paths = (
{
closed = 1;
nodes = (
"341 0 LINE",
"203 0 LINE",
"203 295 LINE",
"-5 690 LINE",
"148 690 LINE",
"271 449 LINE",
"393 690 LINE",
"546 690 LINE",
"341 294 LINE"
);
},
{
closed = 1;
nodes = (
"356 776 OFFCURVE",
"311 776 OFFCURVE",
"219 812 OFFCURVE",
"206 812 QCURVE SMOOTH",
"181 812 OFFCURVE",
"140 788 QCURVE",
"127 781 LINE",
"98 856 LINE",
"118 879 OFFCURVE",
"179 916 OFFCURVE",
"224 916 OFFCURVE",
"317 880 OFFCURVE",
"329 880 QCURVE SMOOTH",
"353 880 OFFCURVE",
"395 906 QCURVE",
"409 914 LINE",
"438 838 LINE",
"432 831 OFFCURVE",
"412 810 OFFCURVE"
);
}
);
width = 541;
}
);
unicode = 1EF8;
},
{
glyphname = a;
lastChange = "2017-03-20 20:50:13 +0000";
layers = (
{
layerId = "8FFE84BD-9390-4D75-BABD-68166BF44E93";
paths = (
{
closed = 1;
nodes = (
"419 351 QCURVE SMOOTH",
"419 83 LINE",
"423 46 OFFCURVE",
"484 39 QCURVE",
"481 -9 LINE",
"404 -9 OFFCURVE",
"368 31 QCURVE",
"274 -10 OFFCURVE",
"180 -10 QCURVE SMOOTH",
"113 -10 OFFCURVE",
"43 67 OFFCURVE",
"43 210 OFFCURVE",
"114 279 OFFCURVE",
"190 287 QCURVE SMOOTH",
"360 304 LINE",
"360 351 LINE SMOOTH",
"360 407 OFFCURVE",
"311 456 OFFCURVE",
"270 456 QCURVE SMOOTH",
"206 456 OFFCURVE",
"104 444 QCURVE",
"73 441 LINE",
"70 489 LINE",
"180 510 OFFCURVE",
"345 510 OFFCURVE",
"419 432 OFFCURVE"
);
},
{
closed = 1;
nodes = (
"105 142 QCURVE SMOOTH",
"105 41 OFFCURVE",
"188 41 QCURVE SMOOTH",
"224 41 OFFCURVE",
"310 58 OFFCURVE",
"335 67 QCURVE SMOOTH",
"360 76 LINE",
"360 257 LINE",
"197 240 LINE",
"148 236 OFFCURVE",
"105 188 OFFCURVE"
);
}
);
width = 499;
},
{
layerId = "0596A6ED-150F-4F1F-BF1E-4449A7B9DE21";
paths = (
{
closed = 1;
nodes = (
"425 349 QCURVE SMOOTH",
"425 93 LINE",
"428 56 OFFCURVE",
"483 49 QCURVE",
"480 -10 LINE",
"401 -10 OFFCURVE",
"361 30 QCURVE",
"271 -10 OFFCURVE",
"181 -10 QCURVE SMOOTH",
"112 -10 OFFCURVE",
"40 68 OFFCURVE",
"40 214 OFFCURVE",
"114 283 OFFCURVE",
"193 291 QCURVE SMOOTH",
"350 306 LINE",
"350 349 LINE SMOOTH",
"350 400 OFFCURVE",
"306 444 OFFCURVE",
"268 444 QCURVE SMOOTH",
"188 444 OFFCURVE",
"102 434 QCURVE",
"71 431 LINE",
"68 488 LINE",
"178 510 OFFCURVE",
"348 510 OFFCURVE",
"425 432 OFFCURVE"
);
},
{
closed = 1;
nodes = (
"117 145 QCURVE SMOOTH",
"117 53 OFFCURVE",
"193 53 QCURVE SMOOTH",
"261 53 OFFCURVE",
"327 76 QCURVE SMOOTH",
"350 84 LINE",
"350 249 LINE",
"202 235 LINE SMOOTH",
"157 231 OFFCURVE",
"117 187 OFFCURVE"
);
}
);
width = 501;
},
{
layerId = "1FB77202-83CB-408E-8929-4AFC59A3446D";
paths = (
{
closed = 1;
nodes = (
"445 344 QCURVE SMOOTH",
"445 136 LINE",
"447 112 OFFCURVE",
"459 93 OFFCURVE",
"478 89 QCURVE",
"474 -12 LINE",
"423 -12 OFFCURVE",
"362 2 OFFCURVE",
"331 23 QCURVE",
"259 -12 OFFCURVE",
"184 -12 QCURVE SMOOTH",
"29 -12 OFFCURVE",
"29 152 QCURVE SMOOTH",
"29 232 OFFCURVE",
"115 299 OFFCURVE",
"204 305 QCURVE SMOOTH",
"311 313 LINE",
"311 344 LINE SMOOTH",
"311 375 OFFCURVE",
"283 398 OFFCURVE",
"252 398 QCURVE",
"64 390 LINE",
"60 483 LINE",
"167 512 OFFCURVE",
"360 512 OFFCURVE",
"445 432 OFFCURVE"
);
},
{
closed = 1;
nodes = (
"220 212 LINE SMOOTH",
"164 207 OFFCURVE",
"164 97 OFFCURVE",
"213 97 QCURVE SMOOTH",
"251 97 OFFCURVE",
"296 109 QCURVE SMOOTH",
"311 113 LINE",
"311 220 LINE"
);
}
);
width = 511;
}
);
unicode = 0061;
},
{
glyphname = aacute;
lastChange = "2017-03-20 20:50:13 +0000";
layers = (
{
layerId = "8FFE84BD-9390-4D75-BABD-68166BF44E93";
paths = (
{
closed = 1;
nodes = (
"419 351 QCURVE SMOOTH",
"419 83 LINE",
"423 46 OFFCURVE",
"484 39 QCURVE",
"481 -9 LINE",
"404 -9 OFFCURVE",
"368 31 QCURVE",
"274 -10 OFFCURVE",
"180 -10 QCURVE SMOOTH",
"113 -10 OFFCURVE",
"43 67 OFFCURVE",
"43 210 OFFCURVE",
"114 279 OFFCURVE",
"190 287 QCURVE SMOOTH",
"360 304 LINE",
"360 351 LINE SMOOTH",
"360 407 OFFCURVE",
"311 456 OFFCURVE",
"270 456 QCURVE SMOOTH",
"206 456 OFFCURVE",
"104 444 QCURVE",
"73 441 LINE",
"70 489 LINE",
"180 510 OFFCURVE",
"345 510 OFFCURVE",
"419 432 OFFCURVE"
);
},
{
closed = 1;
nodes = (
"105 142 QCURVE SMOOTH",
"105 41 OFFCURVE",
"188 41 QCURVE SMOOTH",
"224 41 OFFCURVE",
"310 58 OFFCURVE",
"335 67 QCURVE SMOOTH",
"360 76 LINE",
"360 257 LINE",
"197 240 LINE",
"148 236 OFFCURVE",
"105 188 OFFCURVE"
);
},
{
closed = 1;
nodes = (
"123 640 LINE",
"330 737 LINE",
"352 685 LINE",
"142 598 LINE"
);
}
);
width = 499;
},
{
layerId = "0596A6ED-150F-4F1F-BF1E-4449A7B9DE21";
paths = (
{
closed = 1;
nodes = (
"425 349 QCURVE SMOOTH",
"425 93 LINE",
"428 56 OFFCURVE",
"483 49 QCURVE",
"480 -10 LINE",
"401 -10 OFFCURVE",
"361 30 QCURVE",
"271 -10 OFFCURVE",
"181 -10 QCURVE SMOOTH",
"112 -10 OFFCURVE",
"40 68 OFFCURVE",
"40 214 OFFCURVE",
"114 283 OFFCURVE",
"193 291 QCURVE SMOOTH",
"350 306 LINE",
"350 349 LINE SMOOTH",
"350 400 OFFCURVE",
"306 444 OFFCURVE",
"268 444 QCURVE SMOOTH",
"188 444 OFFCURVE",
"102 434 QCURVE",
"71 431 LINE",
"68 488 LINE",
"178 510 OFFCURVE",
"348 510 OFFCURVE",
"425 432 OFFCURVE"
);
},
{
closed = 1;
nodes = (
"117 145 QCURVE SMOOTH",
"117 53 OFFCURVE",
"193 53 QCURVE SMOOTH",
"261 53 OFFCURVE",
"327 76 QCURVE SMOOTH",
"350 84 LINE",
"350 249 LINE",
"202 235 LINE SMOOTH",
"157 231 OFFCURVE",
"117 187 OFFCURVE"
);
},
{
closed = 1;
nodes = (
"118 642 LINE",
"334 740 LINE",
"360 676 LINE",
"139 591 LINE"
);
}
);
width = 501;
},
{
layerId = "1FB77202-83CB-408E-8929-4AFC59A3446D";
paths = (
{
closed = 1;
nodes = (
"445 344 QCURVE SMOOTH",
"445 136 LINE",
"447 112 OFFCURVE",
"459 93 OFFCURVE",
"478 89 QCURVE",
"474 -12 LINE",
"423 -12 OFFCURVE",
"362 2 OFFCURVE",
"331 23 QCURVE",
"259 -12 OFFCURVE",
"184 -12 QCURVE SMOOTH",
"29 -12 OFFCURVE",
"29 152 QCURVE SMOOTH",
"29 232 OFFCURVE",
"115 299 OFFCURVE",
"204 305 QCURVE SMOOTH",
"311 313 LINE",
"311 344 LINE SMOOTH",
"311 375 OFFCURVE",
"283 398 OFFCURVE",
"252 398 QCURVE",
"64 390 LINE",
"60 483 LINE",
"167 512 OFFCURVE",
"360 512 OFFCURVE",
"445 432 OFFCURVE"
);
},
{
closed = 1;
nodes = (
"220 212 LINE SMOOTH",
"164 207 OFFCURVE",
"164 97 OFFCURVE",
"213 97 QCURVE SMOOTH",
"251 97 OFFCURVE",
"296 109 QCURVE SMOOTH",
"311 113 LINE",
"311 220 LINE"
);
},
{
closed = 1;
nodes = (
"96 651 LINE",
"348 753 LINE",
"388 638 LINE",
"126 564 LINE"
);
}
);
width = 511;
}
);
unicode = 00E1;
},
{
glyphname = abreve;
lastChange = "2017-03-20 20:50:13 +0000";
layers = (
{
layerId = "8FFE84BD-9390-4D75-BABD-68166BF44E93";
paths = (
{
closed = 1;
nodes = (
"419 349 QCURVE SMOOTH",
"419 88 LINE",
"423 50 OFFCURVE",
"484 43 QCURVE",
"481 -9 LINE",
"402 -9 OFFCURVE",
"368 29 QCURVE",
"342 19 LINE SMOOTH",
"317 9 OFFCURVE",
"221 -10 OFFCURVE",
"176 -10 QCURVE SMOOTH",
"113 -10 OFFCURVE",
"43 68 OFFCURVE",
"43 210 OFFCURVE",
"114 280 OFFCURVE",
"190 287 QCURVE SMOOTH",
"190 287 OFFCURVE",
"360 304 QCURVE",
"360 349 LINE SMOOTH",
"360 452 OFFCURVE",
"264 452 QCURVE SMOOTH",
"191 452 OFFCURVE",
"74 437 QCURVE",
"70 490 LINE",
"102 495 LINE SMOOTH",
"190 509 OFFCURVE",
"266 509 QCURVE SMOOTH",
"344 509 OFFCURVE",
"419 431 OFFCURVE"
);
},
{
closed = 1;
nodes = (
"183 43 QCURVE SMOOTH",
"268 43 OFFCURVE",
"360 77 QCURVE",
"360 254 LINE",
"197 239 LINE SMOOTH",
"105 231 OFFCURVE",
"105 142 QCURVE SMOOTH",
"105 94 OFFCURVE",
"146 43 OFFCURVE"
);
},
{
closed = 1;
nodes = (
"294 646 OFFCURVE",
"342 692 OFFCURVE",
"343 729 QCURVE",
"404 729 LINE",
"402 668 OFFCURVE",
"321 592 OFFCURVE",
"183 592 OFFCURVE",
"102 668 OFFCURVE",
"100 729 QCURVE",
"161 729 LINE",
"162 692 OFFCURVE",
"210 646 OFFCURVE"
);
}
);
width = 501;
},
{
layerId = "0596A6ED-150F-4F1F-BF1E-4449A7B9DE21";
paths = (
{
closed = 1;
nodes = (
"425 347 QCURVE SMOOTH",
"425 101 LINE",
"426 62 OFFCURVE",
"482 55 QCURVE",
"480 -10 LINE",
"398 -10 OFFCURVE",
"361 28 QCURVE",
"336 18 LINE SMOOTH",
"311 9 OFFCURVE",
"219 -10 OFFCURVE",
"176 -10 QCURVE SMOOTH",
"111 -10 OFFCURVE",
"40 70 OFFCURVE",
"40 214 OFFCURVE",
"114 284 OFFCURVE",
"193 291 QCURVE SMOOTH",
"193 291 OFFCURVE",
"350 306 QCURVE",
"350 347 LINE SMOOTH",
"350 438 OFFCURVE",
"263 438 QCURVE SMOOTH",
"190 438 OFFCURVE",
"72 425 QCURVE",
"69 490 LINE",
"101 495 LINE SMOOTH",
"197 510 OFFCURVE",
"267 510 QCURVE SMOOTH",
"347 510 OFFCURVE",
"425 431 OFFCURVE"
);
},
{
closed = 1;
nodes = (
"188 55 QCURVE SMOOTH",
"263 55 OFFCURVE",
"350 85 QCURVE",
"350 245 LINE",
"202 233 LINE",
"117 225 OFFCURVE",
"117 145 QCURVE SMOOTH",
"117 102 OFFCURVE",
"154 55 OFFCURVE"
);
},
{
closed = 1;
nodes = (
"214 658 OFFCURVE",
"291 658 OFFCURVE",
"335 699 OFFCURVE",
"336 733 QCURVE",
"413 733 LINE",
"410 670 OFFCURVE",
"325 591 OFFCURVE",
"180 591 OFFCURVE",
"95 670 OFFCURVE",
"92 733 QCURVE",
"169 733 LINE",
"171 699 OFFCURVE"
);
}
);
width = 503;
},
{
layerId = "1FB77202-83CB-408E-8929-4AFC59A3446D";
paths = (
{
closed = 1;
nodes = (
"445 154 LINE SMOOTH",
"445 125 OFFCURVE",
"457 106 OFFCURVE",
"477 102 QCURVE",
"473 -12 LINE",
"413 -12 OFFCURVE",
"359 3 OFFCURVE",
"331 22 QCURVE",
"308 14 LINE",
"239 -12 OFFCURVE",
"178 -12 QCURVE SMOOTH",
"105 -12 OFFCURVE",
"29 75 OFFCURVE",
"29 232 OFFCURVE",
"114 300 OFFCURVE",
"203 306 QCURVE SMOOTH",
"311 313 LINE",
"311 338 LINE SMOOTH",
"311 358 OFFCURVE",
"283 383 OFFCURVE",
"261 383 QCURVE SMOOTH",
"187 383 OFFCURVE",
"67 375 QCURVE",
"63 489 LINE",
"98 494 LINE",
"205 511 OFFCURVE",
"269 511 QCURVE SMOOTH",
"357 511 OFFCURVE",
"445 432 OFFCURVE",
"445 339 QCURVE SMOOTH"
);
},
{
closed = 1;
nodes = (
"246 103 OFFCURVE",
"311 118 QCURVE",
"311 211 LINE",
"220 207 LINE SMOOTH",
"164 204 OFFCURVE",
"164 156 QCURVE SMOOTH",
"164 103 OFFCURVE"
);
},
{
closed = 1;
nodes = (
"198 748 LINE",
"205 704 OFFCURVE",
"302 704 OFFCURVE",
"308 748 QCURVE",
"447 748 LINE",
"439 673 OFFCURVE",
"342 585 OFFCURVE",
"164 585 OFFCURVE",
"67 673 OFFCURVE",
"59 748 QCURVE"
);
}
);
width = 512;
}
);
unicode = 0103;
},
{
glyphname = acircumflex;
lastChange = "2017-03-20 20:50:13 +0000";
layers = (
{
layerId = "8FFE84BD-9390-4D75-BABD-68166BF44E93";
paths = (
{
closed = 1;
nodes = (
"419 351 QCURVE SMOOTH",
"419 83 LINE",
"423 46 OFFCURVE",
"484 39 QCURVE",
"481 -9 LINE",
"404 -9 OFFCURVE",
"368 31 QCURVE",
"274 -10 OFFCURVE",
"180 -10 QCURVE SMOOTH",
"113 -10 OFFCURVE",
"43 67 OFFCURVE",
"43 210 OFFCURVE",
"114 279 OFFCURVE",
"190 287 QCURVE SMOOTH",
"360 304 LINE",
"360 351 LINE SMOOTH",
"360 407 OFFCURVE",
"311 456 OFFCURVE",
"270 456 QCURVE SMOOTH",
"206 456 OFFCURVE",
"104 444 QCURVE",
"73 441 LINE",
"70 489 LINE",
"180 510 OFFCURVE",
"345 510 OFFCURVE",
"419 432 OFFCURVE"
);
},
{
closed = 1;
nodes = (
"105 142 QCURVE SMOOTH",
"105 41 OFFCURVE",
"188 41 QCURVE SMOOTH",
"224 41 OFFCURVE",
"310 58 OFFCURVE",
"335 67 QCURVE SMOOTH",
"360 76 LINE",
"360 257 LINE",
"197 240 LINE",
"148 236 OFFCURVE",
"105 188 OFFCURVE"
);
},
{
closed = 1;
nodes = (
"98 595 LINE",
"220 732 LINE",
"262 732 LINE",
"385 595 LINE",
"322 595 LINE",
"242 687 LINE",
"161 595 LINE"
);
}
);
width = 499;
},
{
layerId = "0596A6ED-150F-4F1F-BF1E-4449A7B9DE21";
paths = (
{
closed = 1;
nodes = (
"425 349 QCURVE SMOOTH",
"425 93 LINE",
"428 56 OFFCURVE",
"483 49 QCURVE",
"480 -10 LINE",
"401 -10 OFFCURVE",
"361 30 QCURVE",
"271 -10 OFFCURVE",
"181 -10 QCURVE SMOOTH",
"112 -10 OFFCURVE",
"40 68 OFFCURVE",
"40 214 OFFCURVE",
"114 283 OFFCURVE",
"193 291 QCURVE SMOOTH",
"350 306 LINE",
"350 349 LINE SMOOTH",
"350 400 OFFCURVE",
"306 444 OFFCURVE",
"268 444 QCURVE SMOOTH",
"188 444 OFFCURVE",
"102 434 QCURVE",
"71 431 LINE",
"68 488 LINE",
"178 510 OFFCURVE",
"348 510 OFFCURVE",
"425 432 OFFCURVE"
);
},
{
closed = 1;
nodes = (
"117 145 QCURVE SMOOTH",
"117 53 OFFCURVE",
"193 53 QCURVE SMOOTH",
"261 53 OFFCURVE",
"327 76 QCURVE SMOOTH",
"350 84 LINE",
"350 249 LINE",
"202 235 LINE SMOOTH",
"157 231 OFFCURVE",
"117 187 OFFCURVE"
);
},
{
closed = 1;
nodes = (
"95 592 LINE",
"218 732 LINE",
"269 732 LINE",
"393 592 LINE",
"318 592 LINE",
"245 679 LINE",
"170 592 LINE"
);
}
);
width = 501;
},
{
layerId = "1FB77202-83CB-408E-8929-4AFC59A3446D";
paths = (
{
closed = 1;
nodes = (
"445 344 QCURVE SMOOTH",
"445 136 LINE",
"447 112 OFFCURVE",
"459 93 OFFCURVE",
"478 89 QCURVE",
"474 -12 LINE",
"423 -12 OFFCURVE",
"362 2 OFFCURVE",
"331 23 QCURVE",
"259 -12 OFFCURVE",
"184 -12 QCURVE SMOOTH",
"29 -12 OFFCURVE",
"29 152 QCURVE SMOOTH",
"29 232 OFFCURVE",
"115 299 OFFCURVE",
"204 305 QCURVE SMOOTH",
"311 313 LINE",
"311 344 LINE SMOOTH",
"311 375 OFFCURVE",
"283 398 OFFCURVE",
"252 398 QCURVE",
"64 390 LINE",
"60 483 LINE",
"167 512 OFFCURVE",
"360 512 OFFCURVE",
"445 432 OFFCURVE"
);
},
{
closed = 1;
nodes = (
"220 212 LINE SMOOTH",
"164 207 OFFCURVE",
"164 97 OFFCURVE",
"213 97 QCURVE SMOOTH",
"251 97 OFFCURVE",
"296 109 QCURVE SMOOTH",
"311 113 LINE",
"311 220 LINE"
);
},
{
closed = 1;
nodes = (
"83 580 LINE",
"209 731 LINE",
"293 731 LINE",
"421 580 LINE",
"298 580 LINE",
"252 647 LINE",
"206 580 LINE"
);
}
);
width = 511;
}
);
unicode = 00E2;
},
{
glyphname = adieresis;
lastChange = "2017-03-20 20:50:13 +0000";
layers = (
{
layerId = "8FFE84BD-9390-4D75-BABD-68166BF44E93";
paths = (
{
closed = 1;
nodes = (
"419 351 QCURVE SMOOTH",
"419 83 LINE",
"423 46 OFFCURVE",
"484 39 QCURVE",
"481 -9 LINE",
"404 -9 OFFCURVE",
"368 31 QCURVE",
"274 -10 OFFCURVE",
"180 -10 QCURVE SMOOTH",
"113 -10 OFFCURVE",
"43 67 OFFCURVE",
"43 210 OFFCURVE",
"114 279 OFFCURVE",
"190 287 QCURVE SMOOTH",
"360 304 LINE",
"360 351 LINE SMOOTH",
"360 407 OFFCURVE",
"311 456 OFFCURVE",
"270 456 QCURVE SMOOTH",
"206 456 OFFCURVE",
"104 444 QCURVE",
"73 441 LINE",
"70 489 LINE",
"180 510 OFFCURVE",
"345 510 OFFCURVE",
"419 432 OFFCURVE"
);
},
{
closed = 1;
nodes = (
"105 142 QCURVE SMOOTH",
"105 41 OFFCURVE",
"188 41 QCURVE SMOOTH",
"224 41 OFFCURVE",
"310 58 OFFCURVE",
"335 67 QCURVE SMOOTH",
"360 76 LINE",
"360 257 LINE",
"197 240 LINE",
"148 236 OFFCURVE",
"105 188 OFFCURVE"
);
},
{
closed = 1;
nodes = (
"115 627 LINE",
"115 707 LINE",
"174 707 LINE",
"174 627 LINE"
);
},
{
closed = 1;
nodes = (
"312 627 LINE",
"312 707 LINE",
"370 707 LINE",
"370 627 LINE"
);
}
);
width = 499;
},
{
layerId = "0596A6ED-150F-4F1F-BF1E-4449A7B9DE21";
paths = (
{
closed = 1;
nodes = (
"425 349 QCURVE SMOOTH",
"425 93 LINE",
"428 56 OFFCURVE",
"483 49 QCURVE",
"480 -10 LINE",
"401 -10 OFFCURVE",
"361 30 QCURVE",
"271 -10 OFFCURVE",
"181 -10 QCURVE SMOOTH",
"112 -10 OFFCURVE",
"40 68 OFFCURVE",
"40 214 OFFCURVE",
"114 283 OFFCURVE",
"193 291 QCURVE SMOOTH",
"350 306 LINE",
"350 349 LINE SMOOTH",
"350 400 OFFCURVE",
"306 444 OFFCURVE",
"268 444 QCURVE SMOOTH",
"188 444 OFFCURVE",
"102 434 QCURVE",
"71 431 LINE",
"68 488 LINE",
"178 510 OFFCURVE",
"348 510 OFFCURVE",
"425 432 OFFCURVE"
);
},
{
closed = 1;
nodes = (
"117 145 QCURVE SMOOTH",
"117 53 OFFCURVE",
"193 53 QCURVE SMOOTH",
"261 53 OFFCURVE",
"327 76 QCURVE SMOOTH",
"350 84 LINE",
"350 249 LINE",
"202 235 LINE SMOOTH",
"157 231 OFFCURVE",
"117 187 OFFCURVE"
);
},
{
closed = 1;
nodes = (
"105 621 LINE",
"105 711 LINE",
"177 711 LINE",
"177 621 LINE"
);
},
{
closed = 1;
nodes = (
"305 621 LINE",
"305 711 LINE",
"378 711 LINE",
"378 621 LINE"
);
}
);
width = 501;
},
{
layerId = "1FB77202-83CB-408E-8929-4AFC59A3446D";
paths = (
{
closed = 1;
nodes = (
"445 344 QCURVE SMOOTH",
"445 136 LINE",
"447 112 OFFCURVE",
"459 93 OFFCURVE",
"478 89 QCURVE",
"474 -12 LINE",
"423 -12 OFFCURVE",
"362 2 OFFCURVE",
"331 23 QCURVE",
"259 -12 OFFCURVE",
"184 -12 QCURVE SMOOTH",
"29 -12 OFFCURVE",
"29 152 QCURVE SMOOTH",
"29 232 OFFCURVE",
"115 299 OFFCURVE",
"204 305 QCURVE SMOOTH",
"311 313 LINE",
"311 344 LINE SMOOTH",
"311 375 OFFCURVE",
"283 398 OFFCURVE",
"252 398 QCURVE",
"64 390 LINE",
"60 483 LINE",
"167 512 OFFCURVE",
"360 512 OFFCURVE",
"445 432 OFFCURVE"
);
},
{
closed = 1;
nodes = (
"220 212 LINE SMOOTH",
"164 207 OFFCURVE",
"164 97 OFFCURVE",
"213 97 QCURVE SMOOTH",
"251 97 OFFCURVE",
"296 109 QCURVE SMOOTH",
"311 113 LINE",
"311 220 LINE"
);
},
{
closed = 1;
nodes = (
"65 596 LINE",
"65 728 LINE",
"193 728 LINE",
"193 596 LINE"
);
},
{
closed = 1;
nodes = (
"281 596 LINE",
"281 728 LINE",
"409 728 LINE",
"409 596 LINE"
);
}
);
width = 511;
}
);
unicode = 00E4;
},
{
glyphname = agrave;
lastChange = "2017-03-20 20:50:13 +0000";
layers = (
{
layerId = "8FFE84BD-9390-4D75-BABD-68166BF44E93";
paths = (
{
closed = 1;
nodes = (
"419 351 QCURVE SMOOTH",
"419 83 LINE",
"423 46 OFFCURVE",
"484 39 QCURVE",
"481 -9 LINE",
"404 -9 OFFCURVE",
"368 31 QCURVE",
"274 -10 OFFCURVE",
"180 -10 QCURVE SMOOTH",
"113 -10 OFFCURVE",
"43 67 OFFCURVE",
"43 210 OFFCURVE",
"114 279 OFFCURVE",
"190 287 QCURVE SMOOTH",
"360 304 LINE",
"360 351 LINE SMOOTH",
"360 407 OFFCURVE",
"311 456 OFFCURVE",
"270 456 QCURVE SMOOTH",
"206 456 OFFCURVE",
"104 444 QCURVE",
"73 441 LINE",
"70 489 LINE",
"180 510 OFFCURVE",
"345 510 OFFCURVE",
"419 432 OFFCURVE"
);
},
{
closed = 1;
nodes = (
"105 142 QCURVE SMOOTH",
"105 41 OFFCURVE",
"188 41 QCURVE SMOOTH",
"224 41 OFFCURVE",
"310 58 OFFCURVE",
"335 67 QCURVE SMOOTH",
"360 76 LINE",
"360 257 LINE",
"197 240 LINE",
"148 236 OFFCURVE",
"105 188 OFFCURVE"
);
},
{
closed = 1;
nodes = (
"147 737 LINE",
"354 640 LINE",
"335 598 LINE",
"125 685 LINE"
);
}
);
width = 499;
},
{
layerId = "0596A6ED-150F-4F1F-BF1E-4449A7B9DE21";
paths = (
{
closed = 1;
nodes = (
"425 349 QCURVE SMOOTH",
"425 93 LINE",
"428 56 OFFCURVE",
"483 49 QCURVE",
"480 -10 LINE",
"401 -10 OFFCURVE",
"361 30 QCURVE",
"271 -10 OFFCURVE",
"181 -10 QCURVE SMOOTH",
"112 -10 OFFCURVE",
"40 68 OFFCURVE",
"40 214 OFFCURVE",
"114 283 OFFCURVE",
"193 291 QCURVE SMOOTH",
"350 306 LINE",
"350 349 LINE SMOOTH",
"350 400 OFFCURVE",
"306 444 OFFCURVE",
"268 444 QCURVE SMOOTH",
"188 444 OFFCURVE",
"102 434 QCURVE",
"71 431 LINE",
"68 488 LINE",
"178 510 OFFCURVE",
"348 510 OFFCURVE",
"425 432 OFFCURVE"
);
},
{
closed = 1;
nodes = (
"117 145 QCURVE SMOOTH",
"117 53 OFFCURVE",
"193 53 QCURVE SMOOTH",
"261 53 OFFCURVE",
"327 76 QCURVE SMOOTH",
"350 84 LINE",
"350 249 LINE",
"202 235 LINE SMOOTH",
"157 231 OFFCURVE",
"117 187 OFFCURVE"
);
},
{
closed = 1;
nodes = (
"147 740 LINE",
"363 642 LINE",
"342 591 LINE",
"121 676 LINE"
);
}
);
width = 501;
},
{
layerId = "1FB77202-83CB-408E-8929-4AFC59A3446D";
paths = (
{
closed = 1;
nodes = (
"445 344 QCURVE SMOOTH",
"445 136 LINE",
"447 112 OFFCURVE",
"459 93 OFFCURVE",
"478 89 QCURVE",
"474 -12 LINE",
"423 -12 OFFCURVE",
"362 2 OFFCURVE",
"331 23 QCURVE",
"259 -12 OFFCURVE",
"184 -12 QCURVE SMOOTH",
"29 -12 OFFCURVE",
"29 152 QCURVE SMOOTH",
"29 232 OFFCURVE",
"115 299 OFFCURVE",
"204 305 QCURVE SMOOTH",
"311 313 LINE",
"311 344 LINE SMOOTH",
"311 375 OFFCURVE",
"283 398 OFFCURVE",
"252 398 QCURVE",
"64 390 LINE",
"60 483 LINE",
"167 512 OFFCURVE",
"360 512 OFFCURVE",
"445 432 OFFCURVE"
);
},
{
closed = 1;
nodes = (
"220 212 LINE SMOOTH",
"164 207 OFFCURVE",
"164 97 OFFCURVE",
"213 97 QCURVE SMOOTH",
"251 97 OFFCURVE",
"296 109 QCURVE SMOOTH",
"311 113 LINE",
"311 220 LINE"
);
},
{
closed = 1;
nodes = (
"143 753 LINE",
"395 651 LINE",
"365 564 LINE",
"103 638 LINE"
);
}
);
width = 511;
}
);
unicode = 00E0;
},
{
glyphname = amacron;
lastChange = "2017-03-20 20:50:13 +0000";
layers = (
{
layerId = "8FFE84BD-9390-4D75-BABD-68166BF44E93";
paths = (
{
closed = 1;
nodes = (
"419 351 QCURVE SMOOTH",
"419 83 LINE",
"423 46 OFFCURVE",
"484 39 QCURVE",
"481 -9 LINE",
"404 -9 OFFCURVE",
"368 31 QCURVE",
"274 -10 OFFCURVE",
"180 -10 QCURVE SMOOTH",
"113 -10 OFFCURVE",
"43 67 OFFCURVE",
"43 210 OFFCURVE",
"114 279 OFFCURVE",
"190 287 QCURVE SMOOTH",
"360 304 LINE",
"360 351 LINE SMOOTH",
"360 407 OFFCURVE",
"311 456 OFFCURVE",
"270 456 QCURVE SMOOTH",
"206 456 OFFCURVE",
"104 444 QCURVE",
"73 441 LINE",
"70 489 LINE",
"180 510 OFFCURVE",
"345 510 OFFCURVE",
"419 432 OFFCURVE"
);
},
{
closed = 1;
nodes = (
"105 142 QCURVE SMOOTH",
"105 41 OFFCURVE",
"188 41 QCURVE SMOOTH",
"224 41 OFFCURVE",
"310 58 OFFCURVE",
"335 67 QCURVE SMOOTH",
"360 76 LINE",
"360 257 LINE",
"197 240 LINE",
"148 236 OFFCURVE",
"105 188 OFFCURVE"
);
},
{
closed = 1;
nodes = (
"113 631 LINE",
"113 680 LINE",
"385 680 LINE",
"385 631 LINE"
);
}
);
width = 499;
},
{
layerId = "0596A6ED-150F-4F1F-BF1E-4449A7B9DE21";
paths = (
{
closed = 1;
nodes = (
"425 349 QCURVE SMOOTH",
"425 93 LINE",
"428 56 OFFCURVE",
"483 49 QCURVE",
"480 -10 LINE",
"401 -10 OFFCURVE",
"361 30 QCURVE",
"271 -10 OFFCURVE",
"181 -10 QCURVE SMOOTH",
"112 -10 OFFCURVE",
"40 68 OFFCURVE",
"40 214 OFFCURVE",
"114 283 OFFCURVE",
"193 291 QCURVE SMOOTH",
"350 306 LINE",
"350 349 LINE SMOOTH",
"350 400 OFFCURVE",
"306 444 OFFCURVE",
"268 444 QCURVE SMOOTH",
"188 444 OFFCURVE",
"102 434 QCURVE",
"71 431 LINE",
"68 488 LINE",
"178 510 OFFCURVE",
"348 510 OFFCURVE",
"425 432 OFFCURVE"
);
},
{
closed = 1;
nodes = (
"117 145 QCURVE SMOOTH",
"117 53 OFFCURVE",
"193 53 QCURVE SMOOTH",
"261 53 OFFCURVE",
"327 76 QCURVE SMOOTH",
"350 84 LINE",
"350 249 LINE",
"202 235 LINE SMOOTH",
"157 231 OFFCURVE",
"117 187 OFFCURVE"
);
},
{
closed = 1;
nodes = (
"112 624 LINE",
"112 683 LINE",
"387 683 LINE",
"387 624 LINE"
);
}
);
width = 501;
},
{
layerId = "1FB77202-83CB-408E-8929-4AFC59A3446D";
paths = (
{
closed = 1;
nodes = (
"445 344 QCURVE SMOOTH",
"445 136 LINE",
"447 112 OFFCURVE",
"459 93 OFFCURVE",
"478 89 QCURVE",
"474 -12 LINE",
"423 -12 OFFCURVE",
"362 2 OFFCURVE",
"331 23 QCURVE",
"259 -12 OFFCURVE",
"184 -12 QCURVE SMOOTH",
"29 -12 OFFCURVE",
"29 152 QCURVE SMOOTH",
"29 232 OFFCURVE",
"115 299 OFFCURVE",
"204 305 QCURVE SMOOTH",
"311 313 LINE",
"311 344 LINE SMOOTH",
"311 375 OFFCURVE",
"283 398 OFFCURVE",
"252 398 QCURVE",
"64 390 LINE",
"60 483 LINE",
"167 512 OFFCURVE",
"360 512 OFFCURVE",
"445 432 OFFCURVE"
);
},
{
closed = 1;
nodes = (
"220 212 LINE SMOOTH",
"164 207 OFFCURVE",
"164 97 OFFCURVE",
"213 97 QCURVE SMOOTH",
"251 97 OFFCURVE",
"296 109 QCURVE SMOOTH",
"311 113 LINE",
"311 220 LINE"
);
},
{
closed = 1;
nodes = (
"107 597 LINE",
"107 697 LINE",
"394 697 LINE",
"394 597 LINE"
);
}
);
width = 511;
}
);
unicode = 0101;
},
{
glyphname = aogonek;
lastChange = "2017-03-20 20:50:13 +0000";
layers = (
{
layerId = "8FFE84BD-9390-4D75-BABD-68166BF44E93";
paths = (
{
closed = 1;
nodes = (
"419 351 QCURVE SMOOTH",
"419 83 LINE",
"423 46 OFFCURVE",
"484 39 QCURVE",
"481 -9 LINE",
"468 -9 OFFCURVE",
"448 -7 QCURVE",
"382 -80 OFFCURVE",
"382 -127 OFFCURVE",
"406 -153 OFFCURVE",
"425 -153 QCURVE",
"477 -147 LINE",
"483 -195 LINE",
"442 -204 OFFCURVE",
"372 -204 OFFCURVE",
"323 -158 OFFCURVE",
"323 -119 QCURVE SMOOTH",
"323 -97 OFFCURVE",
"342 -67 QCURVE SMOOTH",
"367 -27 OFFCURVE",
"402 5 QCURVE",
"382 14 OFFCURVE",
"368 31 QCURVE",
"274 -10 OFFCURVE",
"180 -10 QCURVE SMOOTH",
"113 -10 OFFCURVE",
"43 67 OFFCURVE",
"43 210 OFFCURVE",
"114 279 OFFCURVE",
"190 287 QCURVE SMOOTH",
"360 304 LINE",
"360 351 LINE SMOOTH",
"360 407 OFFCURVE",
"311 456 OFFCURVE",
"270 456 QCURVE SMOOTH",
"206 456 OFFCURVE",
"104 444 QCURVE",
"73 441 LINE",
"70 489 LINE",
"180 510 OFFCURVE",
"345 510 OFFCURVE",
"419 432 OFFCURVE"
);
},
{
closed = 1;
nodes = (
"105 142 QCURVE SMOOTH",
"105 41 OFFCURVE",
"188 41 QCURVE SMOOTH",
"224 41 OFFCURVE",
"310 58 OFFCURVE",
"335 67 QCURVE SMOOTH",
"360 76 LINE",
"360 257 LINE",
"197 240 LINE",
"148 236 OFFCURVE",
"105 188 OFFCURVE"
);
}
);
width = 498;
},
{
layerId = "0596A6ED-150F-4F1F-BF1E-4449A7B9DE21";
paths = (
{
closed = 1;
nodes = (
"425 349 QCURVE SMOOTH",
"425 93 LINE",
"428 56 OFFCURVE",
"483 49 QCURVE",
"480 -10 LINE",
"468 -10 OFFCURVE",
"446 -8 QCURVE",
"385 -72 OFFCURVE",
"385 -102 QCURVE SMOOTH",
"385 -121 OFFCURVE",
"408 -145 OFFCURVE",
"426 -145 QCURVE",
"476 -139 LINE",
"483 -197 LINE",
"438 -206 OFFCURVE",
"364 -206 OFFCURVE",
"312 -159 OFFCURVE",
"312 -95 OFFCURVE",
"331 -65 QCURVE SMOOTH",
"358 -22 OFFCURVE",
"393 6 QCURVE",
"377 14 OFFCURVE",
"361 30 QCURVE",
"271 -10 OFFCURVE",
"181 -10 QCURVE SMOOTH",
"112 -10 OFFCURVE",
"40 68 OFFCURVE",
"40 214 OFFCURVE",
"114 283 OFFCURVE",
"193 291 QCURVE SMOOTH",
"350 306 LINE",
"350 349 LINE SMOOTH",
"350 400 OFFCURVE",
"306 444 OFFCURVE",
"268 444 QCURVE SMOOTH",
"188 444 OFFCURVE",
"102 434 QCURVE",
"71 431 LINE",
"68 488 LINE",
"178 510 OFFCURVE",
"348 510 OFFCURVE",
"425 432 OFFCURVE"
);
},
{
closed = 1;
nodes = (
"117 145 QCURVE SMOOTH",
"117 53 OFFCURVE",
"193 53 QCURVE SMOOTH",
"261 53 OFFCURVE",
"327 76 QCURVE SMOOTH",
"350 84 LINE",
"350 249 LINE",
"202 235 LINE SMOOTH",
"157 231 OFFCURVE",
"117 187 OFFCURVE"
);
}
);
width = 500;
},
{
layerId = "1FB77202-83CB-408E-8929-4AFC59A3446D";
paths = (
{
closed = 1;
nodes = (
"474 -12 LINE",
"436 -11 LINE",
"392 -52 OFFCURVE",
"392 -81 QCURVE SMOOTH",
"392 -114 OFFCURVE",
"424 -114 QCURVE",
"466 -110 LINE",
"478 -205 LINE",
"419 -216 OFFCURVE",
"328 -216 OFFCURVE",
"267 -164 OFFCURVE",
"267 -84 OFFCURVE",
"308 -19 OFFCURVE",
"328 -4 QCURVE SMOOTH",
"348 11 LINE",
"351 10 LINE",
"331 23 LINE",
"259 -12 OFFCURVE",
"184 -12 QCURVE SMOOTH",
"29 -12 OFFCURVE",
"29 152 QCURVE SMOOTH",
"29 232 OFFCURVE",
"115 299 OFFCURVE",
"204 305 QCURVE SMOOTH",
"311 313 LINE",
"311 344 LINE SMOOTH",
"311 375 OFFCURVE",
"283 398 OFFCURVE",
"252 398 QCURVE",
"64 390 LINE",
"60 483 LINE",
"167 512 OFFCURVE",
"360 512 OFFCURVE",
"445 432 OFFCURVE",
"445 344 QCURVE SMOOTH",
"445 136 LINE",
"447 112 OFFCURVE",
"459 93 OFFCURVE",
"478 89 QCURVE"
);
},
{
closed = 1;
nodes = (
"220 212 LINE SMOOTH",
"164 207 OFFCURVE",
"164 97 OFFCURVE",
"213 97 QCURVE SMOOTH",
"251 97 OFFCURVE",
"296 109 QCURVE SMOOTH",
"311 113 LINE",
"311 220 LINE"
);
}
);
width = 510;
}
);
unicode = 0105;
},
{
glyphname = aring;
lastChange = "2017-03-20 20:50:13 +0000";
layers = (
{
layerId = "8FFE84BD-9390-4D75-BABD-68166BF44E93";
paths = (
{
closed = 1;
nodes = (
"419 351 QCURVE SMOOTH",
"419 83 LINE",
"423 46 OFFCURVE",
"484 39 QCURVE",
"481 -9 LINE",
"404 -9 OFFCURVE",
"368 31 QCURVE",
"274 -10 OFFCURVE",
"180 -10 QCURVE SMOOTH",
"113 -10 OFFCURVE",
"43 67 OFFCURVE",
"43 210 OFFCURVE",
"114 279 OFFCURVE",
"190 287 QCURVE SMOOTH",
"360 304 LINE",
"360 351 LINE SMOOTH",
"360 407 OFFCURVE",
"311 456 OFFCURVE",
"270 456 QCURVE SMOOTH",
"206 456 OFFCURVE",
"104 444 QCURVE",
"73 441 LINE",
"70 489 LINE",
"180 510 OFFCURVE",
"345 510 OFFCURVE",
"419 432 OFFCURVE"
);
},
{
closed = 1;
nodes = (
"105 142 QCURVE SMOOTH",
"105 41 OFFCURVE",
"188 41 QCURVE SMOOTH",
"224 41 OFFCURVE",
"310 58 OFFCURVE",
"335 67 QCURVE SMOOTH",
"360 76 LINE",
"360 257 LINE",
"197 240 LINE",
"148 236 OFFCURVE",
"105 188 OFFCURVE"
);
},
{
closed = 1;
nodes = (
"152 604 OFFCURVE",
"152 689 OFFCURVE",
"210 747 OFFCURVE",
"295 747 OFFCURVE",
"353 689 OFFCURVE",
"353 604 OFFCURVE",
"295 546 OFFCURVE",
"210 546 OFFCURVE"
);
},
{
closed = 1;
nodes = (
"195 671 OFFCURVE",
"195 622 OFFCURVE",
"228 587 OFFCURVE",
"277 587 OFFCURVE",
"310 622 OFFCURVE",
"310 671 OFFCURVE",
"277 705 OFFCURVE",
"228 705 OFFCURVE"
);
}
);
width = 499;
},
{
layerId = "0596A6ED-150F-4F1F-BF1E-4449A7B9DE21";
paths = (
{
closed = 1;
nodes = (
"425 349 QCURVE SMOOTH",
"425 93 LINE",
"428 56 OFFCURVE",
"483 49 QCURVE",
"480 -10 LINE",
"401 -10 OFFCURVE",
"361 30 QCURVE",
"271 -10 OFFCURVE",
"181 -10 QCURVE SMOOTH",
"112 -10 OFFCURVE",
"40 68 OFFCURVE",
"40 214 OFFCURVE",
"114 283 OFFCURVE",
"193 291 QCURVE SMOOTH",
"350 306 LINE",
"350 349 LINE SMOOTH",
"350 400 OFFCURVE",
"306 444 OFFCURVE",
"268 444 QCURVE SMOOTH",
"188 444 OFFCURVE",
"102 434 QCURVE",
"71 431 LINE",
"68 488 LINE",
"178 510 OFFCURVE",
"348 510 OFFCURVE",
"425 432 OFFCURVE"
);
},
{
closed = 1;
nodes = (
"117 145 QCURVE SMOOTH",
"117 53 OFFCURVE",
"193 53 QCURVE SMOOTH",
"261 53 OFFCURVE",
"327 76 QCURVE SMOOTH",
"350 84 LINE",
"350 249 LINE",
"202 235 LINE SMOOTH",
"157 231 OFFCURVE",
"117 187 OFFCURVE"
);
},
{
closed = 1;
nodes = (
"151 689 OFFCURVE",
"211 749 OFFCURVE",
"298 749 OFFCURVE",
"358 689 OFFCURVE",
"358 601 OFFCURVE",
"299 541 OFFCURVE",
"211 541 OFFCURVE",
"151 601 OFFCURVE"
);
},
{
closed = 1;
nodes = (
"200 668 OFFCURVE",
"200 621 OFFCURVE",
"232 588 OFFCURVE",
"278 588 OFFCURVE",
"310 621 OFFCURVE",
"310 668 OFFCURVE",
"278 701 OFFCURVE",
"232 701 OFFCURVE"
);
}
);
width = 501;
},
{
layerId = "1FB77202-83CB-408E-8929-4AFC59A3446D";
paths = (
{
closed = 1;
nodes = (
"445 344 QCURVE SMOOTH",
"445 136 LINE",
"447 112 OFFCURVE",
"459 93 OFFCURVE",
"478 89 QCURVE",
"474 -12 LINE",
"423 -12 OFFCURVE",
"362 2 OFFCURVE",
"331 23 QCURVE",
"259 -12 OFFCURVE",
"184 -12 QCURVE SMOOTH",
"29 -12 OFFCURVE",
"29 152 QCURVE SMOOTH",
"29 232 OFFCURVE",
"115 299 OFFCURVE",
"204 305 QCURVE SMOOTH",
"311 313 LINE",
"311 344 LINE SMOOTH",
"311 375 OFFCURVE",
"283 398 OFFCURVE",
"252 398 QCURVE",
"64 390 LINE",
"60 483 LINE",
"167 512 OFFCURVE",
"360 512 OFFCURVE",
"445 432 OFFCURVE"
);
},
{
closed = 1;
nodes = (
"220 212 LINE SMOOTH",
"164 207 OFFCURVE",
"164 97 OFFCURVE",
"213 97 QCURVE SMOOTH",
"251 97 OFFCURVE",
"296 109 QCURVE SMOOTH",
"311 113 LINE",
"311 220 LINE"
);
},
{
closed = 1;
nodes = (
"148 588 OFFCURVE",
"148 687 OFFCURVE",
"215 755 OFFCURVE",
"314 755 OFFCURVE",
"382 687 OFFCURVE",
"382 588 OFFCURVE",
"314 521 OFFCURVE",
"215 521 OFFCURVE"
);
},
{
closed = 1;
nodes = (
"220 618 OFFCURVE",
"246 592 OFFCURVE",
"286 592 OFFCURVE",
"311 618 OFFCURVE",
"311 658 OFFCURVE",
"286 683 OFFCURVE",
"246 683 OFFCURVE",
"220 658 OFFCURVE"
);
}
);
width = 511;
}
);
unicode = 00E5;
},
{
glyphname = aringacute;
lastChange = "2017-03-20 20:50:13 +0000";
layers = (
{
layerId = "8FFE84BD-9390-4D75-BABD-68166BF44E93";
paths = (
{
closed = 1;
nodes = (
"419 351 QCURVE SMOOTH",
"419 83 LINE",
"423 46 OFFCURVE",
"484 39 QCURVE",
"481 -9 LINE",
"404 -9 OFFCURVE",
"368 31 QCURVE",
"274 -10 OFFCURVE",
"180 -10 QCURVE SMOOTH",
"113 -10 OFFCURVE",
"43 67 OFFCURVE",
"43 210 OFFCURVE",
"114 279 OFFCURVE",
"190 287 QCURVE SMOOTH",
"360 304 LINE",
"360 351 LINE SMOOTH",
"360 407 OFFCURVE",
"311 456 OFFCURVE",
"270 456 QCURVE SMOOTH",
"206 456 OFFCURVE",
"104 444 QCURVE",
"73 441 LINE",
"70 489 LINE",
"180 510 OFFCURVE",
"345 510 OFFCURVE",
"419 432 OFFCURVE"
);
},
{
closed = 1;
nodes = (
"105 142 QCURVE SMOOTH",
"105 41 OFFCURVE",
"188 41 QCURVE SMOOTH",
"224 41 OFFCURVE",
"310 58 OFFCURVE",
"335 67 QCURVE SMOOTH",
"360 76 LINE",
"360 257 LINE",
"197 240 LINE",
"148 236 OFFCURVE",
"105 188 OFFCURVE"
);
},
{
closed = 1;
nodes = (
"143 604 OFFCURVE",
"143 689 OFFCURVE",
"201 747 OFFCURVE",
"286 747 OFFCURVE",
"344 689 OFFCURVE",
"344 604 OFFCURVE",
"286 546 OFFCURVE",
"201 546 OFFCURVE"
);
},
{
closed = 1;
nodes = (
"186 671 OFFCURVE",
"186 622 OFFCURVE",
"219 587 OFFCURVE",
"268 587 OFFCURVE",
"301 622 OFFCURVE",
"301 671 OFFCURVE",
"268 705 OFFCURVE",
"219 705 OFFCURVE"
);
},
{
closed = 1;
nodes = (
"138 818 LINE",
"345 915 LINE",
"367 863 LINE",
"157 776 LINE"
);
}
);
width = 499;
},
{
layerId = "0596A6ED-150F-4F1F-BF1E-4449A7B9DE21";
paths = (
{
closed = 1;
nodes = (
"425 349 QCURVE SMOOTH",
"425 93 LINE",
"428 56 OFFCURVE",
"483 49 QCURVE",
"480 -10 LINE",
"401 -10 OFFCURVE",
"361 30 QCURVE",
"271 -10 OFFCURVE",
"181 -10 QCURVE SMOOTH",
"112 -10 OFFCURVE",
"40 68 OFFCURVE",
"40 214 OFFCURVE",
"114 283 OFFCURVE",
"193 291 QCURVE SMOOTH",
"350 306 LINE",
"350 349 LINE SMOOTH",
"350 400 OFFCURVE",
"306 444 OFFCURVE",
"268 444 QCURVE SMOOTH",
"188 444 OFFCURVE",
"102 434 QCURVE",
"71 431 LINE",
"68 488 LINE",
"178 510 OFFCURVE",
"348 510 OFFCURVE",
"425 432 OFFCURVE"
);
},
{
closed = 1;
nodes = (
"117 145 QCURVE SMOOTH",
"117 53 OFFCURVE",
"193 53 QCURVE SMOOTH",
"261 53 OFFCURVE",
"327 76 QCURVE SMOOTH",
"350 84 LINE",
"350 249 LINE",
"202 235 LINE SMOOTH",
"157 231 OFFCURVE",
"117 187 OFFCURVE"
);
},
{
closed = 1;
nodes = (
"142 689 OFFCURVE",
"202 749 OFFCURVE",
"289 749 OFFCURVE",
"349 689 OFFCURVE",
"349 601 OFFCURVE",
"290 541 OFFCURVE",
"202 541 OFFCURVE",
"142 601 OFFCURVE"
);
},
{
closed = 1;
nodes = (
"191 668 OFFCURVE",
"191 621 OFFCURVE",
"223 588 OFFCURVE",
"269 588 OFFCURVE",
"301 621 OFFCURVE",
"301 668 OFFCURVE",
"269 701 OFFCURVE",
"223 701 OFFCURVE"
);
},
{
closed = 1;
nodes = (
"132 824 LINE",
"348 922 LINE",
"374 858 LINE",
"153 773 LINE"
);
}
);
width = 501;
},
{
layerId = "1FB77202-83CB-408E-8929-4AFC59A3446D";
paths = (
{
closed = 1;
nodes = (
"445 344 QCURVE SMOOTH",
"445 136 LINE",
"447 112 OFFCURVE",
"459 93 OFFCURVE",
"478 89 QCURVE",
"474 -12 LINE",
"423 -12 OFFCURVE",
"362 2 OFFCURVE",
"331 23 QCURVE",
"259 -12 OFFCURVE",
"184 -12 QCURVE SMOOTH",
"29 -12 OFFCURVE",
"29 152 QCURVE SMOOTH",
"29 232 OFFCURVE",
"115 299 OFFCURVE",
"204 305 QCURVE SMOOTH",
"311 313 LINE",
"311 344 LINE SMOOTH",
"311 375 OFFCURVE",
"283 398 OFFCURVE",
"252 398 QCURVE",
"64 390 LINE",
"60 483 LINE",
"167 512 OFFCURVE",
"360 512 OFFCURVE",
"445 432 OFFCURVE"
);
},
{
closed = 1;
nodes = (
"220 212 LINE SMOOTH",
"164 207 OFFCURVE",
"164 97 OFFCURVE",
"213 97 QCURVE SMOOTH",
"251 97 OFFCURVE",
"296 109 QCURVE SMOOTH",
"311 113 LINE",
"311 220 LINE"
);
},
{
closed = 1;
nodes = (
"135 588 OFFCURVE",
"135 687 OFFCURVE",
"202 755 OFFCURVE",
"301 755 OFFCURVE",
"369 687 OFFCURVE",
"369 588 OFFCURVE",
"301 521 OFFCURVE",
"202 521 OFFCURVE"
);
},
{
closed = 1;
nodes = (
"207 618 OFFCURVE",
"233 592 OFFCURVE",
"273 592 OFFCURVE",
"298 618 OFFCURVE",
"298 658 OFFCURVE",
"272 683 OFFCURVE",
"233 683 OFFCURVE",
"207 658 OFFCURVE"
);
},
{
closed = 1;
nodes = (
"108 852 LINE",
"360 954 LINE",
"400 839 LINE",
"138 765 LINE"
);
}
);
width = 511;
}
);
unicode = 01FB;
},
{
glyphname = atilde;
lastChange = "2017-03-20 20:50:13 +0000";
layers = (
{
layerId = "8FFE84BD-9390-4D75-BABD-68166BF44E93";
paths = (
{
closed = 1;
nodes = (
"419 351 QCURVE SMOOTH",
"419 83 LINE",
"423 46 OFFCURVE",
"484 39 QCURVE",
"481 -9 LINE",
"404 -9 OFFCURVE",
"368 31 QCURVE",
"274 -10 OFFCURVE",
"180 -10 QCURVE SMOOTH",
"113 -10 OFFCURVE",
"43 67 OFFCURVE",
"43 210 OFFCURVE",
"114 279 OFFCURVE",
"190 287 QCURVE SMOOTH",
"360 304 LINE",
"360 351 LINE SMOOTH",
"360 407 OFFCURVE",
"311 456 OFFCURVE",
"270 456 QCURVE SMOOTH",
"206 456 OFFCURVE",
"104 444 QCURVE",
"73 441 LINE",
"70 489 LINE",
"180 510 OFFCURVE",
"345 510 OFFCURVE",
"419 432 OFFCURVE"
);
},
{
closed = 1;
nodes = (
"105 142 QCURVE SMOOTH",
"105 41 OFFCURVE",
"188 41 QCURVE SMOOTH",
"224 41 OFFCURVE",
"310 58 OFFCURVE",
"335 67 QCURVE SMOOTH",
"360 76 LINE",
"360 257 LINE",
"197 240 LINE",
"148 236 OFFCURVE",
"105 188 OFFCURVE"
);
},
{
closed = 1;
nodes = (
"311 619 QCURVE SMOOTH",
"290 619 OFFCURVE",
"184 668 OFFCURVE",
"172 668 QCURVE SMOOTH",
"148 668 OFFCURVE",
"110 638 QCURVE",
"97 627 LINE",
"82 667 LINE",
"132 717 OFFCURVE",
"170 717 QCURVE SMOOTH",
"191 717 OFFCURVE",
"298 669 OFFCURVE",
"310 669 QCURVE SMOOTH",
"331 669 OFFCURVE",
"366 698 QCURVE SMOOTH",
"378 708 LINE",
"392 666 LINE",
"347 619 OFFCURVE"
);
}
);
width = 499;
},
{
layerId = "0596A6ED-150F-4F1F-BF1E-4449A7B9DE21";
paths = (
{
closed = 1;
nodes = (
"425 349 QCURVE SMOOTH",
"425 93 LINE",
"428 56 OFFCURVE",
"483 49 QCURVE",
"480 -10 LINE",
"401 -10 OFFCURVE",
"361 30 QCURVE",
"271 -10 OFFCURVE",
"181 -10 QCURVE SMOOTH",
"112 -10 OFFCURVE",
"40 68 OFFCURVE",
"40 214 OFFCURVE",
"114 283 OFFCURVE",
"193 291 QCURVE SMOOTH",
"350 306 LINE",
"350 349 LINE SMOOTH",
"350 400 OFFCURVE",
"306 444 OFFCURVE",
"268 444 QCURVE SMOOTH",
"188 444 OFFCURVE",
"102 434 QCURVE",
"71 431 LINE",
"68 488 LINE",
"178 510 OFFCURVE",
"348 510 OFFCURVE",
"425 432 OFFCURVE"
);
},
{
closed = 1;
nodes = (
"117 145 QCURVE SMOOTH",
"117 53 OFFCURVE",
"193 53 QCURVE SMOOTH",
"261 53 OFFCURVE",
"327 76 QCURVE SMOOTH",
"350 84 LINE",
"350 249 LINE",
"202 235 LINE SMOOTH",
"157 231 OFFCURVE",
"117 187 OFFCURVE"
);
},
{
closed = 1;
nodes = (
"307 612 QCURVE SMOOTH",
"286 612 OFFCURVE",
"183 659 OFFCURVE",
"170 659 QCURVE SMOOTH",
"147 659 OFFCURVE",
"108 629 QCURVE SMOOTH",
"95 619 LINE",
"77 667 LINE",
"127 719 OFFCURVE",
"168 719 QCURVE SMOOTH",
"189 719 OFFCURVE",
"293 673 OFFCURVE",
"304 673 QCURVE SMOOTH",
"326 673 OFFCURVE",
"364 702 QCURVE SMOOTH",
"376 711 LINE",
"393 663 LINE",
"347 612 OFFCURVE"
);
}
);
width = 501;
},
{
layerId = "1FB77202-83CB-408E-8929-4AFC59A3446D";
paths = (
{
closed = 1;
nodes = (
"445 344 QCURVE SMOOTH",
"445 136 LINE",
"447 112 OFFCURVE",
"459 93 OFFCURVE",
"478 89 QCURVE",
"474 -12 LINE",
"423 -12 OFFCURVE",
"362 2 OFFCURVE",
"331 23 QCURVE",
"259 -12 OFFCURVE",
"184 -12 QCURVE SMOOTH",
"29 -12 OFFCURVE",
"29 152 QCURVE SMOOTH",
"29 232 OFFCURVE",
"115 299 OFFCURVE",
"204 305 QCURVE SMOOTH",
"311 313 LINE",
"311 344 LINE SMOOTH",
"311 375 OFFCURVE",
"283 398 OFFCURVE",
"252 398 QCURVE",
"64 390 LINE",
"60 483 LINE",
"167 512 OFFCURVE",
"360 512 OFFCURVE",
"445 432 OFFCURVE"
);
},
{
closed = 1;
nodes = (
"220 212 LINE SMOOTH",
"164 207 OFFCURVE",
"164 97 OFFCURVE",
"213 97 QCURVE SMOOTH",
"251 97 OFFCURVE",
"296 109 QCURVE SMOOTH",
"311 113 LINE",
"311 220 LINE"
);
},
{
closed = 1;
nodes = (
"312 585 OFFCURVE",
"267 585 OFFCURVE",
"175 621 OFFCURVE",
"162 621 QCURVE SMOOTH",
"133 621 OFFCURVE",
"96 598 QCURVE SMOOTH",
"83 590 LINE",
"54 665 LINE",
"74 688 OFFCURVE",
"135 725 OFFCURVE",
"180 725 OFFCURVE",
"273 689 OFFCURVE",
"285 689 QCURVE SMOOTH",
"309 689 OFFCURVE",
"351 714 QCURVE",
"365 723 LINE",
"394 647 LINE",
"388 640 OFFCURVE",
"368 619 OFFCURVE"
);
}
);
width = 511;
}
);
unicode = 00E3;
},
{
glyphname = ae;
lastChange = "2017-03-20 20:50:13 +0000";
layers = (
{
layerId = "8FFE84BD-9390-4D75-BABD-68166BF44E93";
paths = (
{
closed = 1;
nodes = (
"559 45 QCURVE SMOOTH",
"608 45 OFFCURVE",
"712 52 QCURVE SMOOTH",
"741 54 LINE",
"743 4 LINE",
"631 -10 OFFCURVE",
"553 -10 QCURVE SMOOTH",
"454 -10 OFFCURVE",
"407 46 QCURVE",
"373 31 LINE SMOOTH",
"281 -10 OFFCURVE",
"176 -10 QCURVE SMOOTH",
"43 -10 OFFCURVE",
"43 141 QCURVE SMOOTH",
"43 221 OFFCURVE",
"124 280 OFFCURVE",
"225 291 QCURVE",
"360 304 LINE",
"360 349 LINE SMOOTH",
"360 452 OFFCURVE",
"264 452 QCURVE SMOOTH",
"198 452 OFFCURVE",
"105 444 QCURVE",
"74 442 LINE",
"72 496 LINE",
"188 509 OFFCURVE",
"266 509 QCURVE SMOOTH",
"374 509 OFFCURVE",
"402 428 QCURVE",
"451 509 OFFCURVE",
"565 509 QCURVE SMOOTH",
"664 509 OFFCURVE",
"762 396 OFFCURVE",
"762 273 QCURVE",
"759 225 LINE",
"419 225 LINE",
"420 133 OFFCURVE",
"483 45 OFFCURVE"
);
},
{
closed = 1;
nodes = (
"183 43 QCURVE SMOOTH",
"272 43 OFFCURVE",
"381 85 QCURVE",
"358 140 OFFCURVE",
"358 254 QCURVE",
"197 239 LINE SMOOTH",
"149 234 OFFCURVE",
"105 189 OFFCURVE",
"105 94 OFFCURVE",
"146 43 OFFCURVE"
);
},
{
closed = 1;
nodes = (
"419 275 QCURVE",
"701 275 LINE",
"701 372 OFFCURVE",
"636 456 OFFCURVE",
"565 456 QCURVE SMOOTH",
"419 456 OFFCURVE"
);
}
);
width = 809;
},
{
layerId = "0596A6ED-150F-4F1F-BF1E-4449A7B9DE21";
paths = (
{
closed = 1;
nodes = (
"710 65 QCURVE SMOOTH",
"739 67 LINE",
"741 6 LINE",
"628 -10 OFFCURVE",
"448 -10 OFFCURVE",
"400 44 QCURVE",
"368 30 LINE",
"281 -10 OFFCURVE",
"176 -10 QCURVE SMOOTH",
"109 -10 OFFCURVE",
"40 69 OFFCURVE",
"40 223 OFFCURVE",
"122 284 OFFCURVE",
"221 294 QCURVE SMOOTH",
"350 306 LINE",
"350 347 LINE SMOOTH",
"350 438 OFFCURVE",
"263 438 QCURVE SMOOTH",
"197 438 OFFCURVE",
"104 430 QCURVE",
"73 428 LINE",
"70 495 LINE",
"189 510 OFFCURVE",
"267 510 QCURVE SMOOTH",
"369 510 OFFCURVE",
"402 437 QCURVE",
"450 510 OFFCURVE",
"659 510 OFFCURVE",
"759 397 OFFCURVE",
"759 276 QCURVE",
"755 218 LINE",
"425 218 LINE",
"425 136 OFFCURVE",
"485 58 OFFCURVE",
"608 58 OFFCURVE"
);
},
{
closed = 1;
nodes = (
"188 55 QCURVE SMOOTH",
"234 55 OFFCURVE",
"352 84 OFFCURVE",
"367 92 QCURVE",
"348 143 OFFCURVE",
"348 245 QCURVE",
"202 233 LINE SMOOTH",
"158 229 OFFCURVE",
"117 187 OFFCURVE",
"117 145 QCURVE SMOOTH",
"117 55 OFFCURVE"
);
},
{
closed = 1;
nodes = (
"425 279 QCURVE",
"684 279 LINE",
"684 368 OFFCURVE",
"625 443 OFFCURVE",
"492 443 OFFCURVE",
"425 365 OFFCURVE"
);
}
);
width = 804;
},
{
layerId = "1FB77202-83CB-408E-8929-4AFC59A3446D";
paths = (
{
closed = 1;
nodes = (
"492 111 OFFCURVE",
"537 111 QCURVE SMOOTH",
"605 111 OFFCURVE",
"703 118 QCURVE SMOOTH",
"731 120 LINE",
"733 16 LINE",
"618 -12 OFFCURVE",
"423 -12 OFFCURVE",
"372 36 QCURVE",
"349 25 LINE",
"265 -12 OFFCURVE",
"105 -12 OFFCURVE",
"29 75 OFFCURVE",
"29 232 OFFCURVE",
"116 301 OFFCURVE",
"203 306 QCURVE SMOOTH",
"311 313 LINE",
"311 338 LINE SMOOTH",
"311 358 OFFCURVE",
"283 383 OFFCURVE",
"256 383 QCURVE SMOOTH",
"184 383 OFFCURVE",
"99 375 QCURVE SMOOTH",
"67 372 LINE",
"63 489 LINE",
"196 511 OFFCURVE",
"355 511 OFFCURVE",
"398 474 QCURVE",
"450 511 OFFCURVE",
"531 511 QCURVE SMOOTH",
"749 511 OFFCURVE",
"749 286 QCURVE",
"739 192 LINE",
"445 192 LINE",
"446 149 OFFCURVE"
);
},
{
closed = 1;
nodes = (
"311 118 LINE",
"310 211 LINE",
"220 207 LINE SMOOTH",
"164 204 OFFCURVE",
"164 156 QCURVE SMOOTH",
"164 103 OFFCURVE",
"205 103 QCURVE SMOOTH",
"245 103 OFFCURVE",
"294 114 QCURVE SMOOTH"
);
},
{
closed = 1;
nodes = (
"445 295 QCURVE",
"617 295 LINE",
"617 348 OFFCURVE",
"578 392 OFFCURVE",
"483 392 OFFCURVE",
"445 346 OFFCURVE"
);
}
);
width = 784;
}
);
unicode = 00E6;
},
{
glyphname = aeacute;
lastChange = "2017-03-20 20:50:13 +0000";
layers = (
{
layerId = "8FFE84BD-9390-4D75-BABD-68166BF44E93";
paths = (
{
closed = 1;
nodes = (
"559 45 QCURVE SMOOTH",
"608 45 OFFCURVE",
"712 52 QCURVE SMOOTH",
"741 54 LINE",
"743 4 LINE",
"631 -10 OFFCURVE",
"553 -10 QCURVE SMOOTH",
"454 -10 OFFCURVE",
"407 46 QCURVE",
"373 31 LINE SMOOTH",
"281 -10 OFFCURVE",
"176 -10 QCURVE SMOOTH",
"43 -10 OFFCURVE",
"43 141 QCURVE SMOOTH",
"43 221 OFFCURVE",
"124 280 OFFCURVE",
"225 291 QCURVE",
"360 304 LINE",
"360 349 LINE SMOOTH",
"360 452 OFFCURVE",
"264 452 QCURVE SMOOTH",
"198 452 OFFCURVE",
"105 444 QCURVE",
"74 442 LINE",
"72 496 LINE",
"188 509 OFFCURVE",
"266 509 QCURVE SMOOTH",
"374 509 OFFCURVE",
"402 428 QCURVE",
"451 509 OFFCURVE",
"565 509 QCURVE SMOOTH",
"664 509 OFFCURVE",
"762 396 OFFCURVE",
"762 273 QCURVE",
"759 225 LINE",
"419 225 LINE",
"420 133 OFFCURVE",
"483 45 OFFCURVE"
);
},
{
closed = 1;
nodes = (
"183 43 QCURVE SMOOTH",
"272 43 OFFCURVE",
"381 85 QCURVE",
"358 140 OFFCURVE",
"358 254 QCURVE",
"197 239 LINE SMOOTH",
"149 234 OFFCURVE",
"105 189 OFFCURVE",
"105 94 OFFCURVE",
"146 43 OFFCURVE"
);
},
{
closed = 1;
nodes = (
"419 275 QCURVE",
"701 275 LINE",
"701 372 OFFCURVE",
"636 456 OFFCURVE",
"565 456 QCURVE SMOOTH",
"419 456 OFFCURVE"
);
},
{
closed = 1;
nodes = (
"298 640 LINE",
"505 737 LINE",
"527 685 LINE",
"317 598 LINE"
);
}
);
width = 809;
},
{
layerId = "0596A6ED-150F-4F1F-BF1E-4449A7B9DE21";
paths = (
{
closed = 1;
nodes = (
"710 65 QCURVE SMOOTH",
"739 67 LINE",
"741 6 LINE",
"628 -10 OFFCURVE",
"448 -10 OFFCURVE",
"400 44 QCURVE",
"368 30 LINE",
"281 -10 OFFCURVE",
"176 -10 QCURVE SMOOTH",
"109 -10 OFFCURVE",
"40 69 OFFCURVE",
"40 223 OFFCURVE",
"122 284 OFFCURVE",
"221 294 QCURVE SMOOTH",
"350 306 LINE",
"350 347 LINE SMOOTH",
"350 438 OFFCURVE",
"263 438 QCURVE SMOOTH",
"197 438 OFFCURVE",
"104 430 QCURVE",
"73 428 LINE",
"70 495 LINE",
"189 510 OFFCURVE",
"267 510 QCURVE SMOOTH",
"369 510 OFFCURVE",
"402 437 QCURVE",
"450 510 OFFCURVE",
"659 510 OFFCURVE",
"759 397 OFFCURVE",
"759 276 QCURVE",
"755 218 LINE",
"425 218 LINE",
"425 136 OFFCURVE",
"485 58 OFFCURVE",
"608 58 OFFCURVE"
);
},
{
closed = 1;
nodes = (
"188 55 QCURVE SMOOTH",
"234 55 OFFCURVE",
"352 84 OFFCURVE",
"367 92 QCURVE",
"348 143 OFFCURVE",
"348 245 QCURVE",
"202 233 LINE SMOOTH",
"158 229 OFFCURVE",
"117 187 OFFCURVE",
"117 145 QCURVE SMOOTH",
"117 55 OFFCURVE"
);
},
{
closed = 1;
nodes = (
"425 279 QCURVE",
"684 279 LINE",
"684 368 OFFCURVE",
"625 443 OFFCURVE",
"492 443 OFFCURVE",
"425 365 OFFCURVE"
);
},
{
closed = 1;
nodes = (
"290 642 LINE",
"506 740 LINE",
"532 676 LINE",
"311 591 LINE"
);
}
);
width = 804;
},
{
layerId = "1FB77202-83CB-408E-8929-4AFC59A3446D";
paths = (
{
closed = 1;
nodes = (
"492 111 OFFCURVE",
"537 111 QCURVE SMOOTH",
"605 111 OFFCURVE",
"703 118 QCURVE SMOOTH",
"731 120 LINE",
"733 16 LINE",
"618 -12 OFFCURVE",
"423 -12 OFFCURVE",
"372 36 QCURVE",
"349 25 LINE",
"265 -12 OFFCURVE",
"105 -12 OFFCURVE",
"29 75 OFFCURVE",
"29 232 OFFCURVE",
"116 301 OFFCURVE",
"203 306 QCURVE SMOOTH",
"311 313 LINE",
"311 338 LINE SMOOTH",
"311 358 OFFCURVE",
"283 383 OFFCURVE",
"256 383 QCURVE SMOOTH",
"184 383 OFFCURVE",
"99 375 QCURVE SMOOTH",
"67 372 LINE",
"63 489 LINE",
"196 511 OFFCURVE",
"355 511 OFFCURVE",
"398 474 QCURVE",
"450 511 OFFCURVE",
"531 511 QCURVE SMOOTH",
"749 511 OFFCURVE",
"749 286 QCURVE",
"739 192 LINE",
"445 192 LINE",
"446 149 OFFCURVE"
);
},
{
closed = 1;
nodes = (
"311 118 LINE",
"310 211 LINE",
"220 207 LINE SMOOTH",
"164 204 OFFCURVE",
"164 156 QCURVE SMOOTH",
"164 103 OFFCURVE",
"205 103 QCURVE SMOOTH",
"245 103 OFFCURVE",
"294 114 QCURVE SMOOTH"
);
},
{
closed = 1;
nodes = (
"445 295 QCURVE",
"617 295 LINE",
"617 348 OFFCURVE",
"578 392 OFFCURVE",
"483 392 OFFCURVE",
"445 346 OFFCURVE"
);
},
{
closed = 1;
nodes = (
"256 651 LINE",
"508 753 LINE",
"548 638 LINE",
"286 564 LINE"
);
}
);
width = 784;
}
);
unicode = 01FD;
},
{
glyphname = b;
lastChange = "2017-03-20 20:50:13 +0000";
layers = (
{
layerId = "8FFE84BD-9390-4D75-BABD-68166BF44E93";
paths = (
{
closed = 1;
nodes = (
"290 510 QCURVE SMOOTH",
"390 510 OFFCURVE",
"468 394 OFFCURVE",
"468 109 OFFCURVE",
"369 -10 OFFCURVE",
"234 -10 QCURVE SMOOTH",
"178 -10 OFFCURVE",
"100 -2 QCURVE",
"74 0 LINE",
"74 722 LINE",
"134 722 LINE",
"134 473 LINE",
"212 510 OFFCURVE"
);
},
{
closed = 1;
nodes = (
"134 50 LINE",
"204 44 OFFCURVE",
"289 44 OFFCURVE",
"357 68 OFFCURVE",
"394 125 OFFCURVE",
"406 198 OFFCURVE",
"406 258 QCURVE SMOOTH",
"406 364 OFFCURVE",
"355 456 OFFCURVE",
"285 456 QCURVE SMOOTH",
"251 456 OFFCURVE",
"175 439 OFFCURVE",
"154 430 QCURVE SMOOTH",
"134 422 LINE"
);
}
);
width = 521;
},
{
layerId = "0596A6ED-150F-4F1F-BF1E-4449A7B9DE21";
paths = (
{
closed = 1;
nodes = (
"293 510 QCURVE SMOOTH",
"394 510 OFFCURVE",
"475 395 OFFCURVE",
"475 107 OFFCURVE",
"374 -10 OFFCURVE",
"239 -10 QCURVE SMOOTH",
"197 -10 OFFCURVE",
"100 -2 QCURVE",
"72 1 LINE",
"72 718 LINE",
"146 718 LINE",
"146 475 LINE",
"222 510 OFFCURVE"
);
},
{
closed = 1;
nodes = (
"238 57 QCURVE SMOOTH",
"336 57 OFFCURVE",
"399 146 OFFCURVE",
"399 358 OFFCURVE",
"349 443 OFFCURVE",
"285 443 QCURVE SMOOTH",
"227 443 OFFCURVE",
"166 421 QCURVE SMOOTH",
"146 414 LINE",
"146 62 LINE",
"211 57 OFFCURVE"
);
}
);
width = 526;
},
{
layerId = "1FB77202-83CB-408E-8929-4AFC59A3446D";
paths = (
{
closed = 1;
nodes = (
"304 512 QCURVE SMOOTH",
"409 512 OFFCURVE",
"506 397 OFFCURVE",
"506 101 OFFCURVE",
"394 -12 OFFCURVE",
"257 -12 QCURVE SMOOTH",
"214 -12 OFFCURVE",
"100 -2 QCURVE",
"62 2 LINE",
"62 700 LINE",
"196 700 LINE",
"196 485 LINE",
"260 512 OFFCURVE"
);
},
{
closed = 1;
nodes = (
"257 108 QCURVE SMOOTH",
"324 108 OFFCURVE",
"370 173 OFFCURVE",
"370 257 QCURVE SMOOTH",
"370 392 OFFCURVE",
"286 392 QCURVE SMOOTH",
"246 392 OFFCURVE",
"210 382 QCURVE",
"196 379 LINE",
"196 112 LINE",
"242 108 OFFCURVE"
);
}
);
width = 544;
}
);
unicode = 0062;
},
{
glyphname = c;
lastChange = "2017-03-20 20:50:13 +0000";
layers = (
{
layerId = "8FFE84BD-9390-4D75-BABD-68166BF44E93";
paths = (
{
closed = 1;
nodes = (
"261 510 QCURVE SMOOTH",
"306 510 OFFCURVE",
"368 500 QCURVE",
"391 497 LINE",
"388 446 LINE",
"309 456 OFFCURVE",
"271 456 QCURVE SMOOTH",
"182 456 OFFCURVE",
"116 369 OFFCURVE",
"116 136 OFFCURVE",
"176 44 OFFCURVE",
"271 44 QCURVE",
"390 53 LINE",
"392 2 LINE",
"303 -10 OFFCURVE",
"260 -10 QCURVE SMOOTH",
"141 -10 OFFCURVE",
"54 108 OFFCURVE",
"54 396 OFFCURVE",
"149 510 OFFCURVE"
);
}
);
width = 433;
},
{
layerId = "0596A6ED-150F-4F1F-BF1E-4449A7B9DE21";
paths = (
{
closed = 1;
nodes = (
"259 510 QCURVE SMOOTH",
"292 510 OFFCURVE",
"371 498 QCURVE",
"395 495 LINE",
"392 434 LINE",
"312 443 OFFCURVE",
"274 443 QCURVE SMOOTH",
"189 443 OFFCURVE",
"128 362 OFFCURVE",
"128 143 OFFCURVE",
"185 57 OFFCURVE",
"275 57 QCURVE",
"393 66 LINE",
"396 4 LINE",
"303 -10 OFFCURVE",
"257 -10 QCURVE SMOOTH",
"140 -10 OFFCURVE",
"51 110 OFFCURVE",
"51 395 OFFCURVE",
"147 510 OFFCURVE"
);
}
);
width = 436;
},
{
layerId = "1FB77202-83CB-408E-8929-4AFC59A3446D";
paths = (
{
closed = 1;
nodes = (
"249 512 QCURVE SMOOTH",
"301 512 OFFCURVE",
"382 496 QCURVE",
"409 490 LINE",
"405 384 LINE",
"326 392 OFFCURVE",
"288 392 QCURVE SMOOTH",
"219 392 OFFCURVE",
"174 333 OFFCURVE",
"174 169 OFFCURVE",
"219 108 OFFCURVE",
"289 108 QCURVE",
"405 116 LINE",
"409 9 LINE",
"302 -12 OFFCURVE",
"246 -12 QCURVE SMOOTH",
"135 -12 OFFCURVE",
"38 113 OFFCURVE",
"38 389 OFFCURVE",
"138 512 OFFCURVE"
);
}
);
width = 446;
}
);
unicode = 0063;
},
{
glyphname = cacute;
lastChange = "2017-03-20 20:50:13 +0000";
layers = (
{
layerId = "8FFE84BD-9390-4D75-BABD-68166BF44E93";
paths = (
{
closed = 1;
nodes = (
"261 510 QCURVE SMOOTH",
"306 510 OFFCURVE",
"368 500 QCURVE",
"391 497 LINE",
"388 446 LINE",
"309 456 OFFCURVE",
"271 456 QCURVE SMOOTH",
"182 456 OFFCURVE",
"116 369 OFFCURVE",
"116 136 OFFCURVE",
"176 44 OFFCURVE",
"271 44 QCURVE",
"390 53 LINE",
"392 2 LINE",
"303 -10 OFFCURVE",
"260 -10 QCURVE SMOOTH",
"141 -10 OFFCURVE",
"54 108 OFFCURVE",
"54 396 OFFCURVE",
"149 510 OFFCURVE"
);
},
{
closed = 1;
nodes = (
"133 640 LINE",
"340 737 LINE",
"362 685 LINE",
"152 598 LINE"
);
}
);
width = 433;
},
{
layerId = "0596A6ED-150F-4F1F-BF1E-4449A7B9DE21";
paths = (
{
closed = 1;
nodes = (
"259 510 QCURVE SMOOTH",
"292 510 OFFCURVE",
"371 498 QCURVE",
"395 495 LINE",
"392 434 LINE",
"312 443 OFFCURVE",
"274 443 QCURVE SMOOTH",
"189 443 OFFCURVE",
"128 362 OFFCURVE",
"128 143 OFFCURVE",
"185 57 OFFCURVE",
"275 57 QCURVE",
"393 66 LINE",
"396 4 LINE",
"303 -10 OFFCURVE",
"257 -10 QCURVE SMOOTH",
"140 -10 OFFCURVE",
"51 110 OFFCURVE",
"51 395 OFFCURVE",
"147 510 OFFCURVE"
);
},
{
closed = 1;
nodes = (
"126 642 LINE",
"342 740 LINE",
"368 676 LINE",
"147 591 LINE"
);
}
);
width = 436;
},
{
layerId = "1FB77202-83CB-408E-8929-4AFC59A3446D";
paths = (
{
closed = 1;
nodes = (
"249 512 QCURVE SMOOTH",
"301 512 OFFCURVE",
"382 496 QCURVE",
"409 490 LINE",
"405 384 LINE",
"326 392 OFFCURVE",
"288 392 QCURVE SMOOTH",
"219 392 OFFCURVE",
"174 333 OFFCURVE",
"174 169 OFFCURVE",
"219 108 OFFCURVE",
"289 108 QCURVE",
"405 116 LINE",
"409 9 LINE",
"302 -12 OFFCURVE",
"246 -12 QCURVE SMOOTH",
"135 -12 OFFCURVE",
"38 113 OFFCURVE",
"38 389 OFFCURVE",
"138 512 OFFCURVE"
);
},
{
closed = 1;
nodes = (
"97 651 LINE",
"349 753 LINE",
"389 638 LINE",
"127 564 LINE"
);
}
);
width = 446;
}
);
unicode = 0107;
},
{
glyphname = ccaron;
lastChange = "2017-03-20 20:50:13 +0000";
layers = (
{
layerId = "8FFE84BD-9390-4D75-BABD-68166BF44E93";
paths = (
{
closed = 1;
nodes = (
"261 510 QCURVE SMOOTH",
"306 510 OFFCURVE",
"368 500 QCURVE",
"391 497 LINE",
"388 446 LINE",
"309 456 OFFCURVE",
"271 456 QCURVE SMOOTH",
"182 456 OFFCURVE",
"116 369 OFFCURVE",
"116 136 OFFCURVE",
"176 44 OFFCURVE",
"271 44 QCURVE",
"390 53 LINE",
"392 2 LINE",
"303 -10 OFFCURVE",
"260 -10 QCURVE SMOOTH",
"141 -10 OFFCURVE",
"54 108 OFFCURVE",
"54 396 OFFCURVE",
"149 510 OFFCURVE"
);
},
{
closed = 1;
nodes = (
"218 595 LINE",
"96 732 LINE",
"158 732 LINE",
"240 641 LINE",
"321 732 LINE",
"383 732 LINE",
"260 595 LINE"
);
}
);
width = 433;
},
{
layerId = "0596A6ED-150F-4F1F-BF1E-4449A7B9DE21";
paths = (
{
closed = 1;
nodes = (
"259 510 QCURVE SMOOTH",
"292 510 OFFCURVE",
"371 498 QCURVE",
"395 495 LINE",
"392 434 LINE",
"312 443 OFFCURVE",
"274 443 QCURVE SMOOTH",
"189 443 OFFCURVE",
"128 362 OFFCURVE",
"128 143 OFFCURVE",
"185 57 OFFCURVE",
"275 57 QCURVE",
"393 66 LINE",
"396 4 LINE",
"303 -10 OFFCURVE",
"257 -10 QCURVE SMOOTH",
"140 -10 OFFCURVE",
"51 110 OFFCURVE",
"51 395 OFFCURVE",
"147 510 OFFCURVE"
);
},
{
closed = 1;
nodes = (
"214 592 LINE",
"91 732 LINE",
"165 732 LINE",
"240 645 LINE",
"314 732 LINE",
"389 732 LINE",
"264 592 LINE"
);
}
);
width = 436;
},
{
layerId = "1FB77202-83CB-408E-8929-4AFC59A3446D";
paths = (
{
closed = 1;
nodes = (
"249 512 QCURVE SMOOTH",
"301 512 OFFCURVE",
"382 496 QCURVE",
"409 490 LINE",
"405 384 LINE",
"326 392 OFFCURVE",
"288 392 QCURVE SMOOTH",
"219 392 OFFCURVE",
"174 333 OFFCURVE",
"174 169 OFFCURVE",
"219 108 OFFCURVE",
"289 108 QCURVE",
"405 116 LINE",
"409 9 LINE",
"302 -12 OFFCURVE",
"246 -12 QCURVE SMOOTH",
"135 -12 OFFCURVE",
"38 113 OFFCURVE",
"38 389 OFFCURVE",
"138 512 OFFCURVE"
);
},
{
closed = 1;
nodes = (
"199 580 LINE",
"73 731 LINE",
"196 731 LINE",
"242 664 LINE",
"288 731 LINE",
"411 731 LINE",
"283 580 LINE"
);
}
);
width = 446;
}
);
unicode = 010D;
},
{
glyphname = ccedilla;
lastChange = "2017-03-20 20:50:13 +0000";
layers = (
{
layerId = "8FFE84BD-9390-4D75-BABD-68166BF44E93";
paths = (
{
closed = 1;
nodes = (
"355 -127 QCURVE SMOOTH",
"355 -211 OFFCURVE",
"266 -211 QCURVE",
"182 -205 LINE",
"184 -165 LINE",
"225 -168 OFFCURVE",
"255 -168 QCURVE SMOOTH",
"300 -168 OFFCURVE",
"300 -127 QCURVE SMOOTH",
"300 -90 OFFCURVE",
"255 -90 QCURVE SMOOTH",
"208 -90 LINE",
"208 -7 LINE",
"120 4 OFFCURVE",
"54 125 OFFCURVE",
"54 396 OFFCURVE",
"149 510 OFFCURVE",
"261 510 QCURVE SMOOTH",
"306 510 OFFCURVE",
"368 500 QCURVE",
"391 497 LINE",
"388 446 LINE",
"309 456 OFFCURVE",
"271 456 QCURVE SMOOTH",
"182 456 OFFCURVE",
"116 369 OFFCURVE",
"116 136 OFFCURVE",
"176 44 OFFCURVE",
"271 44 QCURVE",
"390 53 LINE",
"392 2 LINE",
"303 -10 OFFCURVE",
"260 -10 QCURVE SMOOTH",
"246 -10 LINE",
"246 -52 LINE",
"304 -52 OFFCURVE",
"355 -83 OFFCURVE"
);
}
);
width = 433;
},
{
layerId = "0596A6ED-150F-4F1F-BF1E-4449A7B9DE21";
paths = (
{
closed = 1;
nodes = (
"360 -127 QCURVE SMOOTH",
"360 -217 OFFCURVE",
"267 -217 QCURVE SMOOTH",
"221 -217 OFFCURVE",
"192 -212 QCURVE SMOOTH",
"181 -210 LINE",
"184 -162 LINE",
"223 -165 OFFCURVE",
"250 -165 QCURVE SMOOTH",
"294 -165 OFFCURVE",
"294 -127 QCURVE SMOOTH",
"294 -93 OFFCURVE",
"250 -93 QCURVE SMOOTH",
"208 -93 LINE",
"208 -7 LINE",
"120 3 OFFCURVE",
"51 125 OFFCURVE",
"51 395 OFFCURVE",
"147 510 OFFCURVE",
"259 510 QCURVE SMOOTH",
"292 510 OFFCURVE",
"371 498 QCURVE",
"395 495 LINE",
"392 434 LINE",
"312 443 OFFCURVE",
"274 443 QCURVE SMOOTH",
"189 443 OFFCURVE",
"128 362 OFFCURVE",
"128 143 OFFCURVE",
"185 57 OFFCURVE",
"275 57 QCURVE",
"393 66 LINE",
"396 4 LINE",
"303 -10 OFFCURVE",
"257 -10 QCURVE SMOOTH",
"249 -10 LINE",
"249 -49 LINE",
"308 -49 OFFCURVE",
"360 -81 OFFCURVE"
);
}
);
width = 436;
},
{
layerId = "1FB77202-83CB-408E-8929-4AFC59A3446D";
paths = (
{
closed = 1;
nodes = (
"378 -74 OFFCURVE",
"378 -184 OFFCURVE",
"320 -241 OFFCURVE",
"267 -241 QCURVE SMOOTH",
"224 -241 OFFCURVE",
"188 -233 QCURVE SMOOTH",
"174 -230 LINE",
"178 -152 LINE",
"209 -153 OFFCURVE",
"226 -153 QCURVE SMOOTH",
"264 -153 OFFCURVE",
"264 -127 QCURVE SMOOTH",
"264 -105 OFFCURVE",
"226 -105 QCURVE SMOOTH",
"202 -105 LINE",
"202 -9 LINE",
"115 2 OFFCURVE",
"38 128 OFFCURVE",
"38 389 OFFCURVE",
"138 512 OFFCURVE",
"249 512 QCURVE SMOOTH",
"301 512 OFFCURVE",
"382 496 QCURVE",
"409 490 LINE",
"405 384 LINE",
"326 392 OFFCURVE",
"288 392 QCURVE SMOOTH",
"219 392 OFFCURVE",
"174 333 OFFCURVE",
"174 169 OFFCURVE",
"219 108 OFFCURVE",
"289 108 QCURVE",
"405 116 LINE",
"409 9 LINE",
"312 -10 OFFCURVE",
"255 -12 QCURVE",
"255 -37 LINE",
"319 -38 OFFCURVE"
);
}
);
width = 446;
}
);
unicode = 00E7;
},
{
glyphname = ccircumflex;
lastChange = "2017-03-20 20:50:13 +0000";
layers = (
{
layerId = "8FFE84BD-9390-4D75-BABD-68166BF44E93";
paths = (
{
closed = 1;
nodes = (
"261 510 QCURVE SMOOTH",
"306 510 OFFCURVE",
"368 500 QCURVE",
"391 497 LINE",
"388 446 LINE",
"309 456 OFFCURVE",
"271 456 QCURVE SMOOTH",
"182 456 OFFCURVE",
"116 369 OFFCURVE",
"116 136 OFFCURVE",
"176 44 OFFCURVE",
"271 44 QCURVE",
"390 53 LINE",
"392 2 LINE",
"303 -10 OFFCURVE",
"260 -10 QCURVE SMOOTH",
"141 -10 OFFCURVE",
"54 108 OFFCURVE",
"54 396 OFFCURVE",
"149 510 OFFCURVE"
);
},
{
closed = 1;
nodes = (
"91 595 LINE",
"213 732 LINE",
"255 732 LINE",
"378 595 LINE",
"315 595 LINE",
"235 687 LINE",
"154 595 LINE"
);
}
);
width = 433;
},
{
layerId = "0596A6ED-150F-4F1F-BF1E-4449A7B9DE21";
paths = (
{
closed = 1;
nodes = (
"259 510 QCURVE SMOOTH",
"292 510 OFFCURVE",
"371 498 QCURVE",
"395 495 LINE",
"392 434 LINE",
"312 443 OFFCURVE",
"274 443 QCURVE SMOOTH",
"189 443 OFFCURVE",
"128 362 OFFCURVE",
"128 143 OFFCURVE",
"185 57 OFFCURVE",
"275 57 QCURVE",
"393 66 LINE",
"396 4 LINE",
"303 -10 OFFCURVE",
"257 -10 QCURVE SMOOTH",
"140 -10 OFFCURVE",
"51 110 OFFCURVE",
"51 395 OFFCURVE",
"147 510 OFFCURVE"
);
},
{
closed = 1;
nodes = (
"83 592 LINE",
"206 732 LINE",
"257 732 LINE",
"381 592 LINE",
"306 592 LINE",
"233 679 LINE",
"158 592 LINE"
);
}
);
width = 436;
},
{
layerId = "1FB77202-83CB-408E-8929-4AFC59A3446D";
paths = (
{
closed = 1;
nodes = (
"249 512 QCURVE SMOOTH",
"301 512 OFFCURVE",
"382 496 QCURVE",
"409 490 LINE",
"405 384 LINE",
"326 392 OFFCURVE",
"288 392 QCURVE SMOOTH",
"219 392 OFFCURVE",
"174 333 OFFCURVE",
"174 169 OFFCURVE",
"219 108 OFFCURVE",
"289 108 QCURVE",
"405 116 LINE",
"409 9 LINE",
"302 -12 OFFCURVE",
"246 -12 QCURVE SMOOTH",
"135 -12 OFFCURVE",
"38 113 OFFCURVE",
"38 389 OFFCURVE",
"138 512 OFFCURVE"
);
},
{
closed = 1;
nodes = (
"54 580 LINE",
"180 731 LINE",
"264 731 LINE",
"392 580 LINE",
"269 580 LINE",
"223 647 LINE",
"177 580 LINE"
);
}
);
width = 446;
}
);
unicode = 0109;
},
